{"glyphs":{"0":{"ha":857,"x_min":0,"x_max":0,"o":"m 429 978 b 63 488 193 978 63 803 b 429 -4 63 171 193 -4 b 794 488 664 -4 794 171 b 429 978 794 803 664 978 z m 429 850 b 632 488 564 850 632 735 b 429 124 632 240 564 124 b 225 488 293 124 225 240 b 429 850 225 735 293 850 z "},"1":{"ha":857,"x_min":0,"x_max":0,"o":"m 147 974 l 147 826 l 357 826 l 357 0 l 521 0 l 521 974 z "},"2":{"ha":857,"x_min":0,"x_max":0,"o":"m 443 504 l 72 121 l 72 0 l 785 0 l 785 147 l 288 147 l 554 417 b 738 735 661 528 738 638 b 418 981 738 885 608 981 b 56 842 290 981 164 928 l 122 715 b 396 836 206 790 308 836 b 567 711 503 836 567 790 b 443 504 567 656 517 578 z "},"3":{"ha":857,"x_min":0,"x_max":0,"o":"m 460 564 l 403 568 l 715 869 l 715 972 l 76 972 l 78 826 l 511 826 l 226 553 l 226 458 l 368 458 b 604 299 517 458 604 404 b 371 131 604 197 518 131 b 97 232 272 131 174 167 l 29 99 b 382 -7 118 35 253 -7 b 764 301 617 -7 764 119 b 460 564 764 456 642 549 z "},"4":{"ha":857,"x_min":0,"x_max":0,"o":"m 388 974 l 47 361 l 47 239 l 521 239 l 521 0 l 674 0 l 674 239 l 818 239 l 818 386 l 675 386 l 674 615 l 521 615 l 522 386 l 224 386 l 546 974 z "},"5":{"ha":857,"x_min":0,"x_max":0,"o":"m 276 615 l 276 826 l 742 826 l 742 974 l 125 974 l 125 458 b 393 472 194 467 331 472 b 608 311 526 472 608 411 b 390 136 608 203 526 136 b 115 239 299 136 197 174 l 49 106 b 408 -6 149 39 289 -6 b 783 322 636 -6 783 124 b 421 617 783 492 642 617 b 276 615 383 617 319 617 z "},"6":{"ha":857,"x_min":0,"x_max":0,"o":"m 714 783 l 778 907 b 488 981 699 951 583 981 b 68 467 231 981 68 778 b 464 -7 68 168 218 -7 b 807 319 671 -7 807 118 b 493 631 807 510 688 631 b 228 492 371 631 279 583 b 499 844 221 703 310 844 b 714 783 572 844 654 822 z m 463 501 b 654 321 581 501 654 432 b 456 133 654 203 574 133 b 254 315 315 133 253 231 b 463 501 253 415 331 501 z "},"7":{"ha":857,"x_min":0,"x_max":0,"o":"m 67 974 l 67 690 l 213 690 l 214 826 l 625 826 l 224 0 l 397 0 l 807 849 l 807 974 z "},"8":{"ha":857,"x_min":0,"x_max":0,"o":"m 428 981 b 106 735 231 981 106 886 b 256 521 106 640 163 563 b 58 271 135 481 58 389 b 429 -7 58 99 201 -7 b 800 274 657 -7 800 100 b 610 521 800 390 726 481 b 751 728 697 560 751 635 b 428 981 751 885 628 981 z m 429 863 b 613 719 546 863 613 810 b 429 576 613 629 546 576 b 244 719 313 576 244 629 b 429 863 244 810 313 863 z m 428 449 b 646 288 565 449 646 389 b 429 122 646 182 565 122 b 213 289 292 122 213 182 b 428 449 213 390 292 449 z "},"9":{"ha":857,"x_min":0,"x_max":0,"o":"m 149 190 l 85 67 b 374 -7 164 22 278 -7 b 792 507 629 -7 792 196 b 397 981 792 806 642 981 b 57 654 192 981 57 856 b 368 343 57 465 175 343 b 632 482 490 343 581 390 b 363 129 638 271 550 129 b 149 190 289 129 208 151 z m 406 840 b 606 658 546 840 607 743 b 399 472 607 558 531 472 b 210 653 282 472 210 542 b 406 840 210 771 289 840 z "},"A":{"ha":1025,"x_min":0,"x_max":0,"o":"m 849 0 l 1024 0 l 599 972 l 431 972 l 1 0 l 172 0 l 265 219 l 756 219 z m 326 365 l 510 797 l 693 365 z "},"Á":{"ha":1025,"x_min":0,"x_max":0,"o":"m 731 1215 l 567 1285 l 419 1079 l 561 1079 z m 849 0 l 1024 0 l 599 972 l 431 972 l 1 0 l 172 0 l 265 219 l 756 219 z m 326 365 l 510 797 l 693 365 z "},"Ă":{"ha":1025,"x_min":0,"x_max":0,"o":"m 513 1075 b 708 1272 624 1075 704 1154 l 600 1272 b 513 1182 597 1219 561 1182 b 425 1272 464 1182 428 1219 l 317 1272 b 513 1075 321 1154 401 1075 z m 849 0 l 1024 0 l 599 972 l 431 972 l 1 0 l 172 0 l 265 219 l 756 219 z m 326 365 l 510 797 l 693 365 z "},"Ắ":{"ha":1025,"x_min":0,"x_max":0,"o":"m 761 1447 l 597 1515 l 450 1314 l 592 1314 z m 513 1076 b 708 1269 624 1076 704 1154 l 600 1269 b 513 1179 597 1217 561 1179 b 425 1269 464 1179 428 1217 l 317 1269 b 513 1076 321 1154 401 1076 z m 849 0 l 1024 0 l 599 972 l 431 972 l 1 0 l 172 0 l 265 219 l 756 219 z m 326 365 l 510 797 l 693 365 z "},"Ặ":{"ha":1025,"x_min":0,"x_max":0,"o":"m 513 1076 b 708 1268 624 1076 704 1153 l 600 1268 b 513 1178 597 1215 561 1178 b 425 1268 464 1178 428 1215 l 317 1268 b 513 1076 321 1153 401 1076 z m 1024 0 l 599 972 l 431 972 l 1 0 l 172 0 l 265 219 l 756 219 l 849 0 z m 326 365 l 510 797 l 693 365 z m 507 -71 b 414 -165 453 -71 414 -110 b 507 -260 414 -219 453 -260 b 600 -165 560 -260 600 -219 b 507 -71 600 -110 560 -71 z "},"Ằ":{"ha":1025,"x_min":0,"x_max":0,"o":"m 574 1315 l 426 1517 l 263 1449 l 432 1315 z m 513 1179 b 425 1269 464 1179 428 1217 l 317 1269 b 513 1076 321 1154 401 1076 b 708 1269 624 1076 704 1154 l 600 1269 b 513 1179 597 1217 561 1179 z m 849 0 l 1024 0 l 599 972 l 431 972 l 1 0 l 172 0 l 265 219 l 756 219 z m 326 365 l 510 797 l 693 365 z "},"Ẳ":{"ha":1025,"x_min":0,"x_max":0,"o":"m 522 1478 b 582 1422 561 1478 582 1453 b 500 1310 582 1381 550 1349 l 576 1283 b 663 1428 631 1326 663 1368 b 524 1556 663 1501 608 1556 b 376 1442 446 1556 388 1514 l 451 1415 b 522 1478 457 1453 481 1478 z m 513 1076 b 708 1269 624 1076 704 1154 l 600 1269 b 513 1179 597 1217 561 1179 b 425 1269 464 1179 428 1217 l 317 1269 b 513 1076 321 1154 401 1076 z m 849 0 l 1024 0 l 599 972 l 431 972 l 1 0 l 172 0 l 265 219 l 756 219 z m 326 365 l 510 797 l 693 365 z "},"Ẵ":{"ha":1025,"x_min":0,"x_max":0,"o":"m 440 1375 b 607 1300 489 1375 524 1300 b 733 1476 690 1300 733 1360 l 632 1476 b 579 1410 632 1433 614 1410 b 414 1486 532 1410 490 1486 b 286 1308 331 1486 286 1426 l 389 1308 b 440 1375 389 1351 407 1375 z m 513 1179 b 425 1269 464 1179 428 1217 l 317 1269 b 513 1076 321 1154 401 1076 b 708 1269 624 1076 704 1154 l 600 1269 b 513 1179 597 1217 561 1179 z m 849 0 l 1024 0 l 599 972 l 431 972 l 1 0 l 172 0 l 265 219 l 756 219 z m 326 365 l 510 797 l 693 365 z "},"Â":{"ha":1025,"x_min":0,"x_max":0,"o":"m 513 1204 l 599 1082 l 729 1082 l 586 1278 l 439 1278 l 296 1082 l 426 1082 z m 849 0 l 1024 0 l 599 972 l 431 972 l 1 0 l 172 0 l 265 219 l 756 219 z m 326 365 l 510 797 l 693 365 z "},"Ấ":{"ha":1025,"x_min":0,"x_max":0,"o":"m 953 1361 l 814 1429 l 667 1228 l 783 1228 z m 513 1206 l 599 1086 l 729 1086 l 586 1276 l 439 1276 l 296 1086 l 426 1086 z m 849 0 l 1024 0 l 599 972 l 431 972 l 1 0 l 172 0 l 265 219 l 756 219 z m 326 365 l 510 797 l 693 365 z "},"Ậ":{"ha":1025,"x_min":0,"x_max":0,"o":"m 513 1204 l 599 1085 l 729 1085 l 586 1276 l 439 1276 l 296 1085 l 426 1085 z m 1024 0 l 599 972 l 431 972 l 1 0 l 172 0 l 265 219 l 756 219 l 849 0 z m 326 365 l 510 797 l 693 365 z m 507 -71 b 414 -165 453 -71 414 -110 b 507 -260 414 -219 453 -260 b 600 -165 560 -260 600 -219 b 507 -71 600 -110 560 -71 z "},"Ầ":{"ha":1025,"x_min":0,"x_max":0,"o":"m 840 1228 l 693 1429 l 554 1361 l 724 1228 z m 513 1206 l 599 1086 l 729 1086 l 586 1276 l 439 1276 l 296 1086 l 426 1086 z m 849 0 l 1024 0 l 599 972 l 431 972 l 1 0 l 172 0 l 265 219 l 756 219 z m 326 365 l 510 797 l 693 365 z "},"Ẩ":{"ha":1025,"x_min":0,"x_max":0,"o":"m 689 1406 b 749 1350 728 1406 749 1381 b 667 1238 749 1308 717 1276 l 743 1211 b 829 1356 797 1254 829 1296 b 690 1483 829 1429 775 1483 b 543 1369 613 1483 554 1442 l 618 1343 b 689 1406 624 1381 647 1406 z m 513 1206 l 599 1086 l 729 1086 l 586 1276 l 439 1276 l 296 1086 l 426 1086 z m 849 0 l 1024 0 l 599 972 l 431 972 l 1 0 l 172 0 l 265 219 l 756 219 z m 326 365 l 510 797 l 693 365 z "},"Ẫ":{"ha":1025,"x_min":0,"x_max":0,"o":"m 436 1376 b 603 1301 485 1376 519 1301 b 729 1478 686 1301 729 1360 l 628 1478 b 575 1410 628 1435 610 1410 b 410 1486 528 1410 486 1486 b 282 1308 326 1486 282 1426 l 385 1308 b 436 1376 385 1351 403 1376 z m 439 1276 l 296 1086 l 426 1086 l 513 1206 l 599 1086 l 729 1086 l 586 1276 z m 849 0 l 1024 0 l 599 972 l 431 972 l 1 0 l 172 0 l 265 219 l 756 219 z m 326 365 l 510 797 l 693 365 z "},"Ȁ":{"ha":1025,"x_min":0,"x_max":0,"o":"m 474 1079 l 358 1293 l 222 1232 l 350 1079 z m 703 1079 l 588 1293 l 451 1232 l 579 1079 z m 849 0 l 1024 0 l 599 972 l 431 972 l 1 0 l 172 0 l 265 219 l 756 219 z m 326 365 l 510 797 l 693 365 z "},"Ä":{"ha":1025,"x_min":0,"x_max":0,"o":"m 390 1096 b 475 1183 438 1096 475 1135 b 390 1271 475 1235 438 1271 b 306 1183 342 1271 306 1235 b 390 1096 306 1135 342 1096 z m 636 1096 b 721 1183 683 1096 721 1135 b 636 1271 721 1235 683 1271 b 551 1183 588 1271 551 1235 b 636 1096 551 1135 588 1096 z m 849 0 l 1024 0 l 599 972 l 431 972 l 1 0 l 172 0 l 265 219 l 756 219 z m 326 365 l 510 797 l 693 365 z "},"Ạ":{"ha":1025,"x_min":0,"x_max":0,"o":"m 1024 0 l 599 972 l 431 972 l 1 0 l 172 0 l 265 219 l 756 219 l 849 0 z m 326 365 l 510 797 l 693 365 z m 507 -71 b 414 -165 453 -71 414 -110 b 507 -260 414 -219 453 -260 b 600 -165 560 -260 600 -219 b 507 -71 600 -110 560 -71 z "},"À":{"ha":1025,"x_min":0,"x_max":0,"o":"m 599 1079 l 451 1285 l 288 1215 l 457 1079 z m 849 0 l 1024 0 l 599 972 l 431 972 l 1 0 l 172 0 l 265 219 l 756 219 z m 326 365 l 510 797 l 693 365 z "},"Ả":{"ha":1025,"x_min":0,"x_max":0,"o":"m 508 1231 b 568 1175 547 1231 568 1206 b 486 1063 568 1133 536 1101 l 563 1036 b 649 1181 617 1081 649 1121 b 510 1310 649 1256 594 1310 b 363 1194 432 1310 374 1268 l 438 1169 b 508 1231 443 1206 467 1231 z m 849 0 l 1024 0 l 599 972 l 431 972 l 1 0 l 172 0 l 265 219 l 756 219 z m 326 365 l 510 797 l 693 365 z "},"Ȃ":{"ha":1025,"x_min":0,"x_max":0,"o":"m 513 1168 b 600 1076 561 1168 597 1131 l 708 1076 b 513 1274 704 1196 624 1274 b 317 1076 401 1274 321 1196 l 425 1076 b 513 1168 428 1131 464 1168 z m 849 0 l 1024 0 l 599 972 l 431 972 l 1 0 l 172 0 l 265 219 l 756 219 z m 326 365 l 510 797 l 693 365 z "},"Ā":{"ha":1025,"x_min":0,"x_max":0,"o":"m 690 1239 l 336 1239 l 336 1124 l 690 1124 z m 849 0 l 1024 0 l 599 972 l 431 972 l 1 0 l 172 0 l 265 219 l 756 219 z m 326 365 l 510 797 l 693 365 z "},"Ą":{"ha":1025,"x_min":0,"x_max":0,"o":"m 979 0 l 1025 0 l 600 972 l 431 972 l 1 0 l 172 0 l 267 219 l 756 219 l 850 0 l 897 0 b 825 -171 851 -65 825 -119 b 935 -279 825 -247 882 -279 b 1067 -200 986 -279 1036 -250 l 1021 -146 b 953 -190 1000 -172 978 -190 b 911 -146 928 -190 911 -174 b 979 0 911 -114 932 -67 z m 511 797 l 697 364 l 325 364 z "},"Å":{"ha":1025,"x_min":0,"x_max":0,"o":"m 849 0 l 1024 0 l 614 938 b 686 1075 657 968 686 1019 b 515 1244 686 1168 610 1244 b 346 1075 422 1244 346 1168 b 417 939 346 1019 374 969 l 1 0 l 172 0 l 265 219 l 756 219 z m 515 1167 b 613 1075 568 1167 613 1125 b 515 985 613 1025 568 985 b 419 1075 463 985 419 1025 b 515 1167 419 1125 463 1167 z m 326 365 l 510 797 l 693 365 z "},"Ǻ":{"ha":1025,"x_min":0,"x_max":0,"o":"m 744 1536 l 581 1606 l 433 1400 l 575 1400 z m 513 1024 b 676 1185 603 1024 676 1096 b 513 1346 676 1272 603 1346 b 349 1185 422 1346 349 1272 b 513 1024 349 1096 422 1024 z m 513 1274 b 607 1185 564 1274 607 1233 b 513 1096 607 1136 564 1096 b 418 1185 461 1096 418 1136 b 513 1274 418 1233 461 1274 z m 849 0 l 1024 0 l 599 972 l 431 972 l 1 0 l 172 0 l 265 219 l 756 219 z m 326 365 l 510 797 l 693 365 z "},"Ã":{"ha":1025,"x_min":0,"x_max":0,"o":"m 443 1172 b 610 1096 492 1172 526 1096 b 736 1278 693 1096 736 1157 l 635 1278 b 582 1210 635 1233 617 1210 b 417 1286 535 1210 493 1286 b 289 1104 333 1286 289 1225 l 392 1104 b 443 1172 392 1149 410 1172 z m 849 0 l 1024 0 l 599 972 l 431 972 l 1 0 l 172 0 l 265 219 l 756 219 z m 326 365 l 510 797 l 693 365 z "},"Æ":{"ha":1460,"x_min":0,"x_max":0,"o":"m 840 147 l 840 415 l 1317 415 l 1317 561 l 840 561 l 840 825 l 1371 825 l 1371 972 l 565 972 l 1 0 l 172 0 l 308 240 l 678 240 l 678 0 l 1388 0 l 1388 147 z m 381 368 l 644 836 l 678 836 l 678 368 z "},"Ǽ":{"ha":1460,"x_min":0,"x_max":0,"o":"m 1101 1215 l 938 1285 l 790 1079 l 932 1079 z m 840 147 l 840 415 l 1317 415 l 1317 561 l 840 561 l 840 825 l 1371 825 l 1371 972 l 565 972 l 1 0 l 172 0 l 308 240 l 678 240 l 678 0 l 1388 0 l 1388 147 z m 381 368 l 644 836 l 678 836 l 678 368 z "},"B":{"ha":981,"x_min":0,"x_max":0,"o":"m 550 972 l 128 972 l 128 0 l 560 0 b 914 267 779 0 914 100 b 706 513 914 397 836 490 b 876 729 811 539 876 621 b 550 972 876 881 751 972 z m 542 569 l 292 569 l 292 825 l 542 825 b 708 700 646 826 708 781 b 542 569 708 617 646 569 z m 542 147 l 292 147 l 292 425 l 542 425 b 746 288 669 426 746 374 b 542 147 746 197 669 146 z "},"C":{"ha":968,"x_min":0,"x_max":0,"o":"m 832 707 l 928 826 b 558 976 833 919 696 976 b 47 488 271 976 47 764 b 553 -7 47 208 268 -7 b 929 153 690 -7 831 56 l 832 261 b 561 146 758 190 658 146 b 214 489 367 146 214 297 b 561 831 214 681 367 831 b 832 707 660 831 761 783 z "},"Ć":{"ha":968,"x_min":0,"x_max":0,"o":"m 571 1285 l 424 1079 l 565 1079 l 735 1215 z m 832 707 l 928 826 b 558 976 833 919 696 976 b 47 488 271 976 47 764 b 553 -7 47 208 268 -7 b 929 153 690 -7 831 56 l 832 261 b 561 146 758 190 658 146 b 214 489 367 146 214 297 b 561 831 214 681 367 831 b 832 707 660 831 761 783 z "},"Č":{"ha":968,"x_min":0,"x_max":0,"o":"m 283 1278 l 433 1069 l 592 1069 l 742 1278 l 600 1278 l 513 1149 l 425 1278 z m 832 707 l 928 826 b 558 976 833 919 696 976 b 47 488 271 976 47 764 b 553 -7 47 208 268 -7 b 929 153 690 -7 831 56 l 832 261 b 561 146 758 190 658 146 b 214 489 367 146 214 297 b 561 831 214 681 367 831 b 832 707 660 831 761 783 z "},"Ç":{"ha":968,"x_min":0,"x_max":0,"o":"m 569 -69 l 600 -4 b 929 153 722 8 842 67 l 832 261 b 561 146 758 190 658 146 b 214 489 367 146 214 297 b 561 831 214 681 367 831 b 832 707 660 831 761 783 l 928 826 b 558 976 833 919 696 976 b 47 488 271 976 47 764 b 507 -6 47 224 244 17 l 457 -122 b 506 -115 472 -118 490 -115 b 572 -168 551 -115 572 -142 b 508 -225 572 -196 549 -225 b 428 -197 481 -225 451 -215 l 397 -272 b 519 -311 429 -296 474 -311 b 667 -179 601 -311 667 -260 b 569 -69 667 -118 628 -81 z "},"Ḉ":{"ha":968,"x_min":0,"x_max":0,"o":"m 749 1215 l 585 1285 l 438 1079 l 579 1079 z m 540 -85 l 578 -7 b 929 153 707 0 836 61 l 832 261 b 561 146 758 190 658 146 b 214 489 367 146 214 297 b 561 831 214 681 367 831 b 832 707 660 831 761 783 l 928 826 b 558 976 833 919 696 976 b 47 488 271 976 47 764 b 485 -3 47 231 233 28 l 428 -137 b 476 -131 443 -133 461 -131 b 543 -183 522 -131 543 -157 b 479 -240 543 -211 519 -240 b 399 -212 451 -240 422 -231 l 368 -287 b 490 -326 400 -311 444 -326 b 638 -194 572 -326 638 -275 b 540 -85 638 -133 599 -96 z "},"Ĉ":{"ha":968,"x_min":0,"x_max":0,"o":"m 443 1278 l 300 1082 l 431 1082 l 517 1204 l 603 1082 l 733 1082 l 590 1278 z m 832 707 l 928 826 b 558 976 833 919 696 976 b 47 488 271 976 47 764 b 553 -7 47 208 268 -7 b 929 153 690 -7 831 56 l 832 261 b 561 146 758 190 658 146 b 214 489 367 146 214 297 b 561 831 214 681 367 831 b 832 707 660 831 761 783 z "},"Ċ":{"ha":968,"x_min":0,"x_max":0,"o":"m 517 1279 b 424 1183 464 1279 424 1239 b 517 1089 424 1129 464 1089 b 610 1183 569 1089 610 1129 b 517 1279 610 1239 569 1279 z m 832 707 l 928 826 b 558 976 833 919 696 976 b 47 488 271 976 47 764 b 553 -7 47 208 268 -7 b 929 153 690 -7 831 56 l 832 261 b 561 146 758 190 658 146 b 214 489 367 146 214 297 b 561 831 214 681 367 831 b 832 707 660 831 761 783 z "},"D":{"ha":1076,"x_min":0,"x_max":0,"o":"m 526 972 l 128 972 l 128 0 l 522 0 b 1029 486 817 0 1029 206 b 526 972 1029 768 818 972 z m 531 147 l 292 147 l 292 825 l 524 825 b 864 485 715 825 864 683 b 531 147 864 288 719 147 z "},"Ǆ":{"ha":2001,"x_min":0,"x_max":0,"o":"m 1311 1278 l 1461 1069 l 1619 1069 l 1769 1278 l 1628 1278 l 1540 1149 l 1453 1278 z m 526 972 l 128 972 l 128 0 l 522 0 b 1029 486 817 0 1029 206 b 526 972 1029 768 818 972 z m 1146 972 l 1146 825 l 1721 825 l 1128 118 l 1128 0 l 1949 0 l 1949 147 l 1350 147 l 1942 854 l 1942 972 z m 531 147 l 292 147 l 292 825 l 524 825 b 864 485 715 825 864 683 b 531 147 864 288 719 147 z "},"Ð":{"ha":1104,"x_min":0,"x_max":0,"o":"m 554 972 l 156 972 l 156 536 l 0 536 l 0 440 l 156 440 l 156 0 l 550 0 b 1057 486 844 0 1057 206 b 554 972 1057 768 846 972 z m 558 147 l 319 147 l 319 440 l 594 440 l 594 536 l 319 536 l 319 825 l 551 825 b 892 485 743 825 892 683 b 558 147 892 288 747 147 z "},"Ď":{"ha":1076,"x_min":0,"x_max":0,"o":"m 274 1278 l 424 1069 l 582 1069 l 732 1278 l 590 1278 l 503 1149 l 415 1278 z m 526 972 l 128 972 l 128 0 l 522 0 b 1029 486 817 0 1029 206 b 526 972 1029 768 818 972 z m 531 147 l 292 147 l 292 825 l 524 825 b 864 485 715 825 864 683 b 531 147 864 288 719 147 z "},"Đ":{"ha":1104,"x_min":0,"x_max":0,"o":"m 554 972 l 156 972 l 156 536 l 0 536 l 0 440 l 156 440 l 156 0 l 550 0 b 1057 486 844 0 1057 206 b 554 972 1057 768 846 972 z m 558 147 l 319 147 l 319 440 l 594 440 l 594 536 l 319 536 l 319 825 l 551 825 b 892 485 743 825 892 683 b 558 147 892 288 747 147 z "},"Ḍ":{"ha":1076,"x_min":0,"x_max":0,"o":"m 526 972 l 128 972 l 128 0 l 522 0 b 1029 486 817 0 1029 206 b 526 972 1029 768 818 972 z m 531 147 l 292 147 l 292 825 l 524 825 b 864 485 715 825 864 683 b 531 147 864 288 719 147 z m 543 -69 b 450 -165 490 -69 450 -110 b 543 -260 450 -219 490 -260 b 636 -165 596 -260 636 -219 b 543 -69 636 -110 596 -69 z "},"Ḏ":{"ha":1076,"x_min":0,"x_max":0,"o":"m 526 972 l 128 972 l 128 0 l 522 0 b 1029 486 817 0 1029 206 b 526 972 1029 768 818 972 z m 531 147 l 292 147 l 292 825 l 524 825 b 864 485 715 825 864 683 b 531 147 864 288 719 147 z m 365 -87 l 365 -203 l 719 -203 l 719 -87 z "},"ǅ":{"ha":1822,"x_min":0,"x_max":0,"o":"m 1222 1044 l 1372 836 l 1531 836 l 1681 1044 l 1539 1044 l 1451 915 l 1364 1044 z m 526 972 l 128 972 l 128 0 l 522 0 b 1029 486 817 0 1029 206 b 526 972 1029 768 818 972 z m 531 147 l 292 147 l 292 825 l 524 825 b 864 485 715 825 864 683 b 531 147 864 288 719 147 z m 1151 739 l 1151 608 l 1561 608 l 1139 108 l 1139 0 l 1771 -1 l 1771 129 l 1336 131 l 1758 631 l 1758 738 z "},"E":{"ha":911,"x_min":0,"x_max":0,"o":"m 128 972 l 128 0 l 839 0 l 839 147 l 292 147 l 292 415 l 767 415 l 767 561 l 292 561 l 292 825 l 822 825 l 822 972 z "},"É":{"ha":911,"x_min":0,"x_max":0,"o":"m 542 1285 l 394 1079 l 536 1079 l 706 1215 z m 128 972 l 128 0 l 839 0 l 839 147 l 292 147 l 292 415 l 767 415 l 767 561 l 292 561 l 292 825 l 822 825 l 822 972 z "},"Ĕ":{"ha":911,"x_min":0,"x_max":0,"o":"m 400 1272 l 292 1272 b 488 1075 296 1154 376 1075 b 683 1272 599 1075 679 1154 l 575 1272 b 488 1182 572 1219 536 1182 b 400 1272 439 1182 403 1219 z m 128 972 l 128 0 l 839 0 l 839 147 l 292 147 l 292 415 l 767 415 l 767 561 l 292 561 l 292 825 l 822 825 l 822 972 z "},"Ě":{"ha":911,"x_min":0,"x_max":0,"o":"m 254 1278 l 404 1069 l 563 1069 l 713 1278 l 571 1278 l 483 1149 l 396 1278 z m 128 972 l 128 0 l 839 0 l 839 147 l 292 147 l 292 415 l 767 415 l 767 561 l 292 561 l 292 825 l 822 825 l 822 972 z "},"Ḝ":{"ha":911,"x_min":0,"x_max":0,"o":"m 488 1076 b 683 1274 599 1076 679 1156 l 575 1274 b 488 1183 572 1221 536 1183 b 400 1274 439 1183 403 1221 l 292 1274 b 488 1076 296 1156 376 1076 z m 839 0 l 839 147 l 292 147 l 292 415 l 767 415 l 767 561 l 292 561 l 292 825 l 822 825 l 822 972 l 128 972 l 128 0 l 438 0 l 379 -137 b 428 -131 394 -133 413 -131 b 494 -183 474 -131 494 -157 b 431 -240 494 -211 471 -240 b 350 -212 403 -240 374 -231 l 319 -287 b 442 -326 351 -311 396 -326 b 589 -194 524 -326 589 -275 b 492 -85 589 -133 550 -96 l 532 0 z "},"Ê":{"ha":911,"x_min":0,"x_max":0,"o":"m 414 1278 l 271 1082 l 401 1082 l 488 1204 l 574 1082 l 704 1082 l 561 1278 z m 128 972 l 128 0 l 839 0 l 839 147 l 292 147 l 292 415 l 767 415 l 767 561 l 292 561 l 292 825 l 822 825 l 822 972 z "},"Ế":{"ha":911,"x_min":0,"x_max":0,"o":"m 789 1429 l 642 1228 l 758 1228 l 928 1361 z m 414 1276 l 271 1086 l 401 1086 l 488 1206 l 574 1086 l 704 1086 l 561 1276 z m 128 972 l 128 0 l 839 0 l 839 147 l 292 147 l 292 415 l 767 415 l 767 561 l 292 561 l 292 825 l 822 825 l 822 972 z "},"Ệ":{"ha":911,"x_min":0,"x_max":0,"o":"m 561 1276 l 414 1276 l 271 1085 l 401 1085 l 488 1204 l 574 1085 l 704 1085 z m 128 972 l 128 0 l 839 0 l 839 147 l 292 147 l 292 415 l 767 415 l 767 561 l 292 561 l 292 825 l 822 825 l 822 972 z m 483 -71 b 390 -165 429 -71 390 -110 b 483 -260 390 -219 429 -260 b 576 -165 536 -260 576 -219 b 483 -71 576 -110 536 -71 z "},"Ề":{"ha":911,"x_min":0,"x_max":0,"o":"m 668 1429 l 529 1361 l 699 1228 l 815 1228 z m 414 1276 l 271 1086 l 401 1086 l 488 1206 l 574 1086 l 704 1086 l 561 1276 z m 128 972 l 128 0 l 839 0 l 839 147 l 292 147 l 292 415 l 767 415 l 767 561 l 292 561 l 292 825 l 822 825 l 822 972 z "},"Ể":{"ha":911,"x_min":0,"x_max":0,"o":"m 518 1369 l 593 1343 b 664 1406 599 1381 622 1406 b 724 1350 703 1406 724 1381 b 642 1238 724 1308 692 1276 l 718 1211 b 804 1356 772 1254 804 1296 b 665 1483 804 1429 750 1483 b 518 1369 588 1483 529 1442 z m 414 1276 l 271 1086 l 401 1086 l 488 1206 l 574 1086 l 704 1086 l 561 1276 z m 128 972 l 128 0 l 839 0 l 839 147 l 292 147 l 292 415 l 767 415 l 767 561 l 292 561 l 292 825 l 822 825 l 822 972 z "},"Ễ":{"ha":911,"x_min":0,"x_max":0,"o":"m 704 1478 l 603 1478 b 550 1410 603 1435 585 1410 b 385 1486 503 1410 461 1486 b 257 1308 301 1486 257 1426 l 360 1308 b 411 1376 360 1351 378 1376 b 578 1301 460 1376 494 1301 b 704 1478 661 1301 704 1360 z m 414 1276 l 271 1086 l 401 1086 l 488 1206 l 574 1086 l 704 1086 l 561 1276 z m 128 972 l 128 0 l 839 0 l 839 147 l 292 147 l 292 415 l 767 415 l 767 561 l 292 561 l 292 825 l 822 825 l 822 972 z "},"Ȅ":{"ha":911,"x_min":0,"x_max":0,"o":"m 333 1293 l 197 1232 l 325 1079 l 449 1079 z m 563 1293 l 426 1232 l 554 1079 l 678 1079 z m 128 972 l 128 0 l 839 0 l 839 147 l 292 147 l 292 415 l 767 415 l 767 561 l 292 561 l 292 825 l 822 825 l 822 972 z "},"Ë":{"ha":911,"x_min":0,"x_max":0,"o":"m 365 1271 b 281 1183 317 1271 281 1235 b 365 1096 281 1135 317 1096 b 450 1183 413 1096 450 1135 b 365 1271 450 1235 413 1271 z m 611 1271 b 526 1183 563 1271 526 1235 b 611 1096 526 1135 563 1096 b 696 1183 658 1096 696 1135 b 611 1271 696 1235 658 1271 z m 128 972 l 128 0 l 839 0 l 839 147 l 292 147 l 292 415 l 767 415 l 767 561 l 292 561 l 292 825 l 822 825 l 822 972 z "},"Ė":{"ha":911,"x_min":0,"x_max":0,"o":"m 488 1279 b 394 1183 435 1279 394 1239 b 488 1089 394 1129 435 1089 b 581 1183 540 1089 581 1129 b 488 1279 581 1239 540 1279 z m 128 972 l 128 0 l 839 0 l 839 147 l 292 147 l 292 415 l 767 415 l 767 561 l 292 561 l 292 825 l 822 825 l 822 972 z "},"Ẹ":{"ha":911,"x_min":0,"x_max":0,"o":"m 128 972 l 128 0 l 839 0 l 839 147 l 292 147 l 292 415 l 767 415 l 767 561 l 292 561 l 292 825 l 822 825 l 822 972 z m 483 -71 b 390 -165 429 -71 390 -110 b 483 -260 390 -219 429 -260 b 576 -165 536 -260 576 -219 b 483 -71 576 -110 536 -71 z "},"È":{"ha":911,"x_min":0,"x_max":0,"o":"m 426 1285 l 263 1215 l 432 1079 l 574 1079 z m 128 972 l 128 0 l 839 0 l 839 147 l 292 147 l 292 415 l 767 415 l 767 561 l 292 561 l 292 825 l 822 825 l 822 972 z "},"Ẻ":{"ha":911,"x_min":0,"x_max":0,"o":"m 338 1194 l 413 1169 b 483 1231 418 1206 442 1231 b 543 1175 522 1231 543 1206 b 461 1063 543 1133 511 1101 l 538 1036 b 624 1181 592 1081 624 1121 b 485 1310 624 1256 569 1310 b 338 1194 407 1310 349 1268 z m 128 972 l 128 0 l 839 0 l 839 147 l 292 147 l 292 415 l 767 415 l 767 561 l 292 561 l 292 825 l 822 825 l 822 972 z "},"Ȇ":{"ha":911,"x_min":0,"x_max":0,"o":"m 400 1076 b 488 1168 403 1131 439 1168 b 575 1076 536 1168 572 1131 l 683 1076 b 488 1274 679 1196 599 1274 b 292 1076 376 1274 296 1196 z m 128 972 l 128 0 l 839 0 l 839 147 l 292 147 l 292 415 l 767 415 l 767 561 l 292 561 l 292 825 l 822 825 l 822 972 z "},"Ē":{"ha":911,"x_min":0,"x_max":0,"o":"m 311 1239 l 311 1124 l 665 1124 l 665 1239 z m 128 972 l 128 0 l 839 0 l 839 147 l 292 147 l 292 415 l 767 415 l 767 561 l 292 561 l 292 825 l 822 825 l 822 972 z "},"Ḗ":{"ha":911,"x_min":0,"x_max":0,"o":"m 556 1515 l 408 1310 l 550 1310 l 719 1446 z m 310 1213 l 310 1097 l 664 1097 l 664 1213 z m 128 972 l 128 0 l 839 0 l 839 147 l 292 147 l 292 415 l 767 415 l 767 561 l 292 561 l 292 825 l 822 825 l 822 972 z "},"Ḕ":{"ha":911,"x_min":0,"x_max":0,"o":"m 419 1515 l 256 1446 l 425 1310 l 567 1310 z m 310 1213 l 310 1097 l 664 1097 l 664 1213 z m 128 972 l 128 0 l 839 0 l 839 147 l 292 147 l 292 415 l 767 415 l 767 561 l 292 561 l 292 825 l 822 825 l 822 972 z "},"Ę":{"ha":924,"x_min":0,"x_max":0,"o":"m 760 0 l 851 0 l 851 136 l 292 136 l 292 426 l 779 426 l 779 561 l 292 561 l 292 836 l 835 836 l 835 972 l 128 972 l 128 0 l 678 0 b 606 -171 629 -68 606 -121 b 714 -279 606 -247 661 -279 b 847 -200 765 -279 814 -250 l 801 -146 b 732 -190 781 -172 757 -190 b 690 -146 708 -190 690 -174 b 760 0 690 -114 710 -69 z "},"Ẽ":{"ha":911,"x_min":0,"x_max":0,"o":"m 711 1278 l 610 1278 b 557 1210 610 1233 592 1210 b 392 1286 510 1210 468 1286 b 264 1104 308 1286 264 1225 l 367 1104 b 418 1172 367 1149 385 1172 b 585 1096 467 1172 501 1096 b 711 1278 668 1096 711 1157 z m 128 972 l 128 0 l 839 0 l 839 147 l 292 147 l 292 415 l 767 415 l 767 561 l 292 561 l 292 825 l 822 825 l 822 972 z "},"F":{"ha":799,"x_min":0,"x_max":0,"o":"m 128 972 l 128 0 l 292 0 l 292 399 l 733 399 l 733 544 l 292 544 l 292 825 l 779 825 l 781 972 z "},"G":{"ha":1040,"x_min":0,"x_max":0,"o":"m 793 207 b 569 140 724 165 642 140 b 214 486 371 140 214 292 b 568 831 214 679 369 831 b 849 719 669 831 774 789 l 942 840 b 568 976 846 924 707 976 b 47 486 274 976 47 764 b 558 -7 47 208 271 -7 b 936 119 692 -7 838 44 l 936 478 l 793 478 z "},"Ğ":{"ha":1040,"x_min":0,"x_max":0,"o":"m 538 1075 b 733 1272 649 1075 729 1154 l 625 1272 b 538 1182 622 1219 586 1182 b 450 1272 489 1182 453 1219 l 342 1272 b 538 1075 346 1154 426 1075 z m 793 207 b 569 140 724 165 642 140 b 214 486 371 140 214 292 b 568 831 214 679 369 831 b 849 719 669 831 774 789 l 942 840 b 568 976 846 924 707 976 b 47 486 274 976 47 764 b 558 -7 47 208 271 -7 b 936 119 692 -7 838 44 l 936 478 l 793 478 z "},"Ǧ":{"ha":1040,"x_min":0,"x_max":0,"o":"m 617 1074 l 767 1282 l 625 1282 l 538 1153 l 450 1282 l 308 1282 l 458 1074 z m 793 207 b 569 140 724 165 642 140 b 214 486 371 140 214 292 b 568 831 214 679 369 831 b 849 719 669 831 774 789 l 942 840 b 568 976 846 924 707 976 b 47 486 274 976 47 764 b 558 -7 47 208 271 -7 b 936 119 692 -7 838 44 l 936 478 l 793 478 z "},"Ĝ":{"ha":1040,"x_min":0,"x_max":0,"o":"m 538 1204 l 624 1082 l 754 1082 l 611 1278 l 464 1278 l 321 1082 l 451 1082 z m 793 207 b 569 140 724 165 642 140 b 214 486 371 140 214 292 b 568 831 214 679 369 831 b 849 719 669 831 774 789 l 942 840 b 568 976 846 924 707 976 b 47 486 274 976 47 764 b 558 -7 47 208 271 -7 b 936 119 692 -7 838 44 l 936 478 l 793 478 z "},"Ģ":{"ha":1040,"x_min":0,"x_max":0,"o":"m 793 207 b 569 140 724 165 642 140 b 214 486 371 140 214 292 b 568 831 214 679 369 831 b 849 719 669 831 774 789 l 942 840 b 568 976 846 924 707 976 b 47 486 274 976 47 764 b 558 -7 47 208 271 -7 b 936 119 692 -7 838 44 l 936 478 l 793 478 z m 538 -69 b 451 -157 488 -69 451 -107 b 489 -226 451 -185 464 -211 l 436 -346 l 518 -346 l 597 -228 b 622 -156 613 -206 622 -183 b 538 -69 622 -101 582 -69 z "},"Ġ":{"ha":1040,"x_min":0,"x_max":0,"o":"m 538 1089 b 631 1183 590 1089 631 1129 b 538 1279 631 1239 590 1279 b 444 1183 485 1279 444 1239 b 538 1089 444 1129 485 1089 z m 793 207 b 569 140 724 165 642 140 b 214 486 371 140 214 292 b 568 831 214 679 369 831 b 849 719 669 831 774 789 l 942 840 b 568 976 846 924 707 976 b 47 486 274 976 47 764 b 558 -7 47 208 271 -7 b 936 119 692 -7 838 44 l 936 478 l 793 478 z "},"Ḡ":{"ha":1040,"x_min":0,"x_max":0,"o":"m 714 1213 l 360 1213 l 360 1097 l 714 1097 z m 793 207 b 569 140 724 165 642 140 b 214 486 371 140 214 292 b 568 831 214 679 369 831 b 849 719 669 831 774 789 l 942 840 b 568 976 846 924 707 976 b 47 486 274 976 47 764 b 558 -7 47 208 271 -7 b 936 119 692 -7 838 44 l 936 478 l 793 478 z "},"H":{"ha":1099,"x_min":0,"x_max":0,"o":"m 128 972 l 128 0 l 292 0 l 292 403 l 807 403 l 807 0 l 971 0 l 971 972 l 807 972 l 807 550 l 292 550 l 292 972 z "},"Ħ":{"ha":1182,"x_min":0,"x_max":0,"o":"m 1138 831 l 1013 831 l 1013 972 l 849 972 l 849 831 l 333 831 l 333 972 l 169 972 l 169 831 l 44 831 l 44 715 l 169 715 l 169 0 l 333 0 l 333 403 l 849 403 l 849 0 l 1013 0 l 1013 715 l 1138 715 z m 849 550 l 333 550 l 333 715 l 849 715 z "},"Ḫ":{"ha":1099,"x_min":0,"x_max":0,"o":"m 128 972 l 128 0 l 292 0 l 292 403 l 807 403 l 807 0 l 971 0 l 971 972 l 807 972 l 807 550 l 292 550 l 292 972 z m 461 -69 l 353 -69 b 549 -267 357 -187 438 -267 b 744 -69 660 -267 740 -187 l 636 -69 b 549 -160 633 -122 597 -160 b 461 -69 500 -160 464 -122 z "},"Ĥ":{"ha":1099,"x_min":0,"x_max":0,"o":"m 482 1278 l 339 1082 l 469 1082 l 556 1204 l 642 1082 l 772 1082 l 629 1278 z m 128 972 l 128 0 l 292 0 l 292 403 l 807 403 l 807 0 l 971 0 l 971 972 l 807 972 l 807 550 l 292 550 l 292 972 z "},"Ḥ":{"ha":1099,"x_min":0,"x_max":0,"o":"m 128 972 l 128 0 l 292 0 l 292 403 l 807 403 l 807 0 l 971 0 l 971 972 l 807 972 l 807 550 l 292 550 l 292 972 z m 549 -69 b 456 -165 496 -69 456 -110 b 549 -260 456 -219 496 -260 b 642 -165 601 -260 642 -219 b 549 -69 642 -110 601 -69 z "},"I":{"ha":419,"x_min":0,"x_max":0,"o":"m 128 972 l 128 0 l 292 0 l 292 972 z "},"Ĳ":{"ha":1113,"x_min":0,"x_max":0,"o":"m 128 972 l 128 0 l 292 0 l 292 972 z m 1006 300 l 1006 972 l 504 972 l 504 825 l 840 825 l 840 306 b 701 151 840 206 789 151 b 494 258 635 151 558 189 l 417 133 b 703 -7 489 44 586 -7 b 1006 300 890 -7 1006 104 z "},"Í":{"ha":419,"x_min":0,"x_max":0,"o":"m 264 1285 l 117 1079 l 258 1079 l 428 1215 z m 128 972 l 128 0 l 292 0 l 292 972 z "},"Ĭ":{"ha":419,"x_min":0,"x_max":0,"o":"m 122 1272 l 14 1272 b 210 1075 18 1154 99 1075 b 406 1272 321 1075 401 1154 l 297 1272 b 210 1182 294 1219 258 1182 b 122 1272 161 1182 125 1219 z m 128 972 l 128 0 l 292 0 l 292 972 z "},"Î":{"ha":419,"x_min":0,"x_max":0,"o":"m 136 1278 l -7 1082 l 124 1082 l 210 1204 l 296 1082 l 426 1082 l 283 1278 z m 128 972 l 128 0 l 292 0 l 292 972 z "},"Ȉ":{"ha":419,"x_min":0,"x_max":0,"o":"m 56 1293 l -81 1232 l 47 1079 l 171 1079 z m 285 1293 l 149 1232 l 276 1079 l 400 1079 z m 128 972 l 128 0 l 292 0 l 292 972 z "},"Ï":{"ha":419,"x_min":0,"x_max":0,"o":"m 88 1271 b 3 1183 39 1271 3 1235 b 88 1096 3 1135 39 1096 b 172 1183 135 1096 172 1135 b 88 1271 172 1235 135 1271 z m 333 1271 b 249 1183 285 1271 249 1235 b 333 1096 249 1135 285 1096 b 418 1183 381 1096 418 1135 b 333 1271 418 1235 381 1271 z m 128 972 l 128 0 l 292 0 l 292 972 z "},"Ḯ":{"ha":419,"x_min":0,"x_max":0,"o":"m 278 1554 l 131 1349 l 272 1349 l 442 1485 z m 86 1271 b 1 1183 38 1271 1 1235 b 86 1096 1 1135 38 1096 b 171 1183 133 1096 171 1135 b 86 1271 171 1235 133 1271 z m 332 1271 b 247 1183 283 1271 247 1235 b 332 1096 247 1135 283 1096 b 417 1183 379 1096 417 1135 b 332 1271 417 1235 379 1271 z m 128 972 l 128 0 l 292 0 l 292 972 z "},"İ":{"ha":419,"x_min":0,"x_max":0,"o":"m 210 1279 b 117 1183 157 1279 117 1239 b 210 1089 117 1129 157 1089 b 303 1183 263 1089 303 1129 b 210 1279 303 1239 263 1279 z m 128 972 l 128 0 l 292 0 l 292 972 z "},"Ị":{"ha":419,"x_min":0,"x_max":0,"o":"m 128 972 l 128 0 l 292 0 l 292 972 z m 210 -71 b 117 -165 156 -71 117 -110 b 210 -260 117 -219 156 -260 b 303 -165 263 -260 303 -219 b 210 -71 303 -110 263 -71 z "},"Ì":{"ha":419,"x_min":0,"x_max":0,"o":"m 149 1285 l -15 1215 l 154 1079 l 296 1079 z m 128 972 l 128 0 l 292 0 l 292 972 z "},"Ỉ":{"ha":419,"x_min":0,"x_max":0,"o":"m 60 1194 l 135 1169 b 206 1231 140 1206 164 1231 b 265 1175 244 1231 265 1206 b 183 1063 265 1133 233 1101 l 260 1036 b 346 1181 314 1081 346 1121 b 207 1310 346 1256 292 1310 b 60 1194 129 1310 71 1268 z m 128 972 l 128 0 l 292 0 l 292 972 z "},"Ȋ":{"ha":419,"x_min":0,"x_max":0,"o":"m 122 1076 b 210 1168 125 1131 161 1168 b 297 1076 258 1168 294 1131 l 406 1076 b 210 1274 401 1196 321 1274 b 14 1076 99 1274 18 1196 z m 128 972 l 128 0 l 292 0 l 292 972 z "},"Ī":{"ha":419,"x_min":0,"x_max":0,"o":"m 32 1213 l 32 1097 l 386 1097 l 386 1213 z m 128 972 l 128 0 l 292 0 l 292 972 z "},"Į":{"ha":419,"x_min":0,"x_max":0,"o":"m 258 0 l 292 0 l 292 972 l 128 972 l 128 0 l 176 0 b 104 -171 131 -65 104 -119 b 214 -279 104 -247 160 -279 b 346 -200 265 -279 314 -250 l 300 -146 b 231 -190 279 -172 257 -190 b 190 -146 207 -190 190 -174 b 258 0 190 -114 211 -67 z "},"Ĩ":{"ha":419,"x_min":0,"x_max":0,"o":"m 433 1278 l 332 1278 b 279 1210 332 1233 314 1210 b 114 1286 232 1210 190 1286 b -14 1104 31 1286 -14 1225 l 89 1104 b 140 1172 89 1149 107 1172 b 307 1096 189 1172 224 1096 b 433 1278 390 1096 433 1157 z m 128 972 l 128 0 l 292 0 l 292 972 z "},"J":{"ha":693,"x_min":0,"x_max":0,"o":"m 586 300 l 586 972 l 85 972 l 85 825 l 421 825 l 421 306 b 282 151 421 206 369 151 b 75 258 215 151 139 189 l -3 133 b 283 -7 69 44 167 -7 b 586 300 471 -7 586 104 z "},"Ĵ":{"ha":693,"x_min":0,"x_max":0,"o":"m 257 1278 l 114 1082 l 244 1082 l 331 1204 l 417 1082 l 547 1082 l 404 1278 z m 586 300 l 586 972 l 85 972 l 85 825 l 421 825 l 421 306 b 282 151 421 206 369 151 b 75 258 215 151 139 189 l -3 133 b 283 -7 69 44 167 -7 b 586 300 471 -7 586 104 z "},"K":{"ha":997,"x_min":0,"x_max":0,"o":"m 974 0 l 572 557 l 949 972 l 756 972 l 292 469 l 292 972 l 128 972 l 128 0 l 292 0 l 292 247 l 457 429 l 776 0 z "},"Ķ":{"ha":997,"x_min":0,"x_max":0,"o":"m 572 557 l 949 972 l 756 972 l 292 469 l 292 972 l 128 972 l 128 0 l 292 0 l 292 247 l 457 429 l 776 0 l 974 0 z m 490 -69 b 404 -157 440 -69 404 -107 b 442 -226 404 -185 417 -211 l 389 -346 l 471 -346 l 550 -228 b 575 -156 565 -206 575 -183 b 490 -69 575 -101 535 -69 z "},"L":{"ha":742,"x_min":0,"x_max":0,"o":"m 128 972 l 128 0 l 713 0 l 713 149 l 292 149 l 292 972 z "},"Ǉ":{"ha":1435,"x_min":0,"x_max":0,"o":"m 128 972 l 128 0 l 713 0 l 713 149 l 292 149 l 292 972 z m 1328 300 l 1328 972 l 826 972 l 826 825 l 1163 825 l 1163 306 b 1024 151 1163 206 1111 151 b 817 258 957 151 881 189 l 739 133 b 1025 -7 811 44 908 -7 b 1328 300 1213 -7 1328 104 z "},"Ĺ":{"ha":742,"x_min":0,"x_max":0,"o":"m 267 1285 l 119 1079 l 261 1079 l 431 1215 z m 128 972 l 128 0 l 713 0 l 713 149 l 292 149 l 292 972 z "},"Ľ":{"ha":742,"x_min":0,"x_max":0,"o":"m 128 972 l 128 0 l 713 0 l 713 149 l 292 149 l 292 972 z m 563 972 l 563 692 l 671 692 l 713 972 z "},"Ļ":{"ha":742,"x_min":0,"x_max":0,"o":"m 292 149 l 292 972 l 128 972 l 128 0 l 713 0 l 713 149 z m 421 -69 b 335 -157 371 -69 335 -107 b 372 -226 335 -185 347 -211 l 319 -346 l 401 -346 l 481 -228 b 506 -156 496 -206 506 -183 b 421 -69 506 -101 465 -69 z "},"Ŀ":{"ha":742,"x_min":0,"x_max":0,"o":"m 128 972 l 128 0 l 713 0 l 713 149 l 292 149 l 292 972 z m 579 642 b 496 556 532 642 496 607 b 579 467 496 504 532 467 b 663 556 626 467 663 504 b 579 642 663 607 626 642 z "},"Ḷ":{"ha":742,"x_min":0,"x_max":0,"o":"m 128 972 l 128 0 l 713 0 l 713 149 l 292 149 l 292 972 z m 421 -69 b 328 -165 368 -69 328 -110 b 421 -260 328 -219 368 -260 b 514 -165 474 -260 514 -219 b 421 -69 514 -110 474 -69 z "},"ǈ":{"ha":1140,"x_min":0,"x_max":0,"o":"m 938 1047 b 840 950 882 1047 840 1007 b 938 853 840 894 882 853 b 1036 950 996 853 1036 894 b 938 1047 1036 1007 996 1047 z m 128 972 l 128 0 l 713 0 l 713 149 l 292 149 l 292 972 z m 1017 -21 l 1017 739 l 858 739 l 858 -36 b 771 -136 858 -107 819 -136 b 676 -103 740 -136 706 -124 l 624 -226 b 778 -276 667 -258 722 -276 b 1017 -21 896 -276 1017 -196 z "},"Ḻ":{"ha":742,"x_min":0,"x_max":0,"o":"m 128 972 l 128 0 l 713 0 l 713 149 l 292 149 l 292 972 z m 243 -87 l 243 -203 l 597 -203 l 597 -87 z "},"Ł":{"ha":742,"x_min":0,"x_max":0,"o":"m 292 149 l 292 556 l 553 632 l 553 747 l 292 671 l 292 972 l 128 972 l 128 622 l -3 583 l -3 469 l 128 507 l 128 0 l 713 0 l 713 149 z "},"M":{"ha":1285,"x_min":0,"x_max":0,"o":"m 128 972 l 128 0 l 282 0 l 282 726 l 589 101 l 696 101 l 1003 726 l 1004 0 l 1156 0 l 1156 972 l 963 972 l 643 326 l 322 972 z "},"Ṃ":{"ha":1285,"x_min":0,"x_max":0,"o":"m 128 972 l 128 0 l 282 0 l 282 726 l 589 101 l 696 101 l 1003 726 l 1004 0 l 1156 0 l 1156 972 l 963 972 l 643 326 l 322 972 z m 643 -69 b 550 -165 590 -69 550 -110 b 643 -260 550 -219 590 -260 b 736 -165 696 -260 736 -219 b 643 -69 736 -110 696 -69 z "},"N":{"ha":1100,"x_min":0,"x_max":0,"o":"m 128 972 l 128 0 l 292 0 l 292 697 l 810 0 l 971 0 l 971 972 l 810 972 l 810 274 l 289 972 z "},"Ǌ":{"ha":1793,"x_min":0,"x_max":0,"o":"m 128 972 l 128 0 l 292 0 l 292 697 l 810 0 l 971 0 l 971 972 l 810 972 l 810 274 l 289 972 z m 1686 300 l 1686 972 l 1185 972 l 1185 825 l 1521 825 l 1521 306 b 1382 151 1521 206 1469 151 b 1175 258 1315 151 1239 189 l 1097 133 b 1383 -7 1169 44 1267 -7 b 1686 300 1571 -7 1686 104 z "},"Ń":{"ha":1100,"x_min":0,"x_max":0,"o":"m 618 1285 l 471 1079 l 613 1079 l 782 1215 z m 128 972 l 128 0 l 292 0 l 292 697 l 810 0 l 971 0 l 971 972 l 810 972 l 810 274 l 289 972 z "},"Ň":{"ha":1100,"x_min":0,"x_max":0,"o":"m 331 1278 l 481 1069 l 639 1069 l 789 1278 l 647 1278 l 560 1149 l 472 1278 z m 128 972 l 128 0 l 292 0 l 292 697 l 810 0 l 971 0 l 971 972 l 810 972 l 810 274 l 289 972 z "},"Ņ":{"ha":1100,"x_min":0,"x_max":0,"o":"m 810 972 l 810 274 l 289 972 l 128 972 l 128 0 l 292 0 l 292 697 l 810 0 l 971 0 l 971 972 z m 550 -69 b 464 -157 500 -69 464 -107 b 501 -226 464 -185 476 -211 l 449 -346 l 531 -346 l 610 -228 b 635 -156 625 -206 635 -183 b 550 -69 635 -101 594 -69 z "},"Ṅ":{"ha":1100,"x_min":0,"x_max":0,"o":"m 564 1279 b 471 1183 511 1279 471 1239 b 564 1089 471 1129 511 1089 b 657 1183 617 1089 657 1129 b 564 1279 657 1239 617 1279 z m 128 972 l 128 0 l 292 0 l 292 697 l 810 0 l 971 0 l 971 972 l 810 972 l 810 274 l 289 972 z "},"Ṇ":{"ha":1100,"x_min":0,"x_max":0,"o":"m 128 972 l 128 0 l 292 0 l 292 697 l 810 0 l 971 0 l 971 972 l 810 972 l 810 274 l 289 972 z m 550 -69 b 457 -165 497 -69 457 -110 b 550 -260 457 -219 497 -260 b 643 -165 603 -260 643 -219 b 550 -69 643 -110 603 -69 z "},"Ŋ":{"ha":1100,"x_min":0,"x_max":0,"o":"m 810 972 l 810 274 l 289 972 l 128 972 l 128 0 l 292 0 l 292 697 l 804 7 b 665 -125 797 -79 743 -125 b 474 -49 607 -125 535 -100 l 396 -176 b 668 -283 464 -244 557 -283 b 971 0 853 -283 971 -172 l 971 972 z "},"ǋ":{"ha":1499,"x_min":0,"x_max":0,"o":"m 1296 1047 b 1199 950 1240 1047 1199 1007 b 1296 853 1199 894 1240 853 b 1394 950 1354 853 1394 894 b 1296 1047 1394 1007 1354 1047 z m 128 972 l 128 0 l 292 0 l 292 697 l 810 0 l 971 0 l 971 972 l 810 972 l 810 274 l 289 972 z m 1375 -21 l 1375 739 l 1217 739 l 1217 -36 b 1129 -136 1217 -107 1178 -136 b 1035 -103 1099 -136 1064 -124 l 982 -226 b 1136 -276 1025 -258 1081 -276 b 1375 -21 1254 -276 1375 -196 z "},"Ṉ":{"ha":1100,"x_min":0,"x_max":0,"o":"m 128 972 l 128 0 l 292 0 l 292 697 l 810 0 l 971 0 l 971 972 l 810 972 l 810 274 l 289 972 z m 372 -87 l 372 -203 l 726 -203 l 726 -87 z "},"Ñ":{"ha":1100,"x_min":0,"x_max":0,"o":"m 788 1278 l 686 1278 b 633 1210 686 1233 668 1210 b 468 1286 586 1210 544 1286 b 340 1104 385 1286 340 1225 l 443 1104 b 494 1172 443 1149 461 1172 b 661 1096 543 1172 578 1096 b 788 1278 744 1096 788 1157 z m 128 972 l 128 0 l 292 0 l 292 697 l 810 0 l 971 0 l 971 972 l 810 972 l 810 274 l 289 972 z "},"O":{"ha":1125,"x_min":0,"x_max":0,"o":"m 563 976 b 47 486 272 976 47 765 b 563 -7 47 208 272 -7 b 1078 486 853 -7 1078 208 b 563 976 1078 764 853 976 z m 564 829 b 910 486 754 829 910 679 b 564 140 910 293 754 140 b 214 486 374 140 214 293 b 564 829 214 679 372 829 z "},"Ó":{"ha":1125,"x_min":0,"x_max":0,"o":"m 610 1285 l 463 1079 l 604 1079 l 774 1215 z m 563 976 b 47 486 272 976 47 765 b 563 -7 47 208 272 -7 b 1078 486 853 -7 1078 208 b 563 976 1078 764 853 976 z m 564 829 b 910 486 754 829 910 679 b 564 140 910 293 754 140 b 214 486 374 140 214 293 b 564 829 214 679 372 829 z "},"Ŏ":{"ha":1125,"x_min":0,"x_max":0,"o":"m 468 1272 l 360 1272 b 556 1075 364 1154 444 1075 b 751 1272 667 1075 747 1154 l 643 1272 b 556 1182 640 1219 604 1182 b 468 1272 507 1182 471 1219 z m 563 976 b 47 486 272 976 47 765 b 563 -7 47 208 272 -7 b 1078 486 853 -7 1078 208 b 563 976 1078 764 853 976 z m 564 829 b 910 486 754 829 910 679 b 564 140 910 293 754 140 b 214 486 374 140 214 293 b 564 829 214 679 372 829 z "},"Ô":{"ha":1125,"x_min":0,"x_max":0,"o":"m 482 1278 l 339 1082 l 469 1082 l 556 1204 l 642 1082 l 772 1082 l 629 1278 z m 563 976 b 47 486 272 976 47 765 b 563 -7 47 208 272 -7 b 1078 486 853 -7 1078 208 b 563 976 1078 764 853 976 z m 564 829 b 910 486 754 829 910 679 b 564 140 910 293 754 140 b 214 486 374 140 214 293 b 564 829 214 679 372 829 z "},"Ố":{"ha":1125,"x_min":0,"x_max":0,"o":"m 857 1429 l 710 1228 l 826 1228 l 996 1361 z m 482 1276 l 339 1086 l 469 1086 l 556 1206 l 642 1086 l 772 1086 l 629 1276 z m 563 976 b 47 486 272 976 47 765 b 563 -7 47 208 272 -7 b 1078 486 853 -7 1078 208 b 563 976 1078 764 853 976 z m 564 829 b 910 486 754 829 910 679 b 564 140 910 293 754 140 b 214 486 374 140 214 293 b 564 829 214 679 372 829 z "},"Ộ":{"ha":1125,"x_min":0,"x_max":0,"o":"m 629 1276 l 482 1276 l 339 1085 l 469 1085 l 556 1204 l 642 1085 l 772 1085 z m 563 976 b 47 486 272 976 47 765 b 563 -7 47 208 272 -7 b 1078 486 853 -7 1078 208 b 563 976 1078 764 853 976 z m 564 829 b 910 486 754 829 910 679 b 564 140 910 293 754 140 b 214 486 374 140 214 293 b 564 829 214 679 372 829 z m 564 -71 b 471 -165 510 -71 471 -110 b 564 -260 471 -219 510 -260 b 657 -165 617 -260 657 -219 b 564 -71 657 -110 617 -71 z "},"Ồ":{"ha":1125,"x_min":0,"x_max":0,"o":"m 736 1429 l 597 1361 l 767 1228 l 883 1228 z m 482 1276 l 339 1086 l 469 1086 l 556 1206 l 642 1086 l 772 1086 l 629 1276 z m 563 976 b 47 486 272 976 47 765 b 563 -7 47 208 272 -7 b 1078 486 853 -7 1078 208 b 563 976 1078 764 853 976 z m 564 829 b 910 486 754 829 910 679 b 564 140 910 293 754 140 b 214 486 374 140 214 293 b 564 829 214 679 372 829 z "},"Ổ":{"ha":1125,"x_min":0,"x_max":0,"o":"m 586 1369 l 661 1343 b 732 1406 667 1381 690 1406 b 792 1350 771 1406 792 1381 b 710 1238 792 1308 760 1276 l 786 1211 b 872 1356 840 1254 872 1296 b 733 1483 872 1429 818 1483 b 586 1369 656 1483 597 1442 z m 482 1276 l 339 1086 l 469 1086 l 556 1206 l 642 1086 l 772 1086 l 629 1276 z m 563 976 b 47 486 272 976 47 765 b 563 -7 47 208 272 -7 b 1078 486 853 -7 1078 208 b 563 976 1078 764 853 976 z m 564 829 b 910 486 754 829 910 679 b 564 140 910 293 754 140 b 214 486 374 140 214 293 b 564 829 214 679 372 829 z "},"Ỗ":{"ha":1125,"x_min":0,"x_max":0,"o":"m 772 1478 l 671 1478 b 618 1410 671 1435 653 1410 b 453 1486 571 1410 529 1486 b 325 1308 369 1486 325 1426 l 428 1308 b 479 1376 428 1351 446 1376 b 646 1301 528 1376 563 1301 b 772 1478 729 1301 772 1360 z m 482 1276 l 339 1086 l 469 1086 l 556 1206 l 642 1086 l 772 1086 l 629 1276 z m 563 976 b 47 486 272 976 47 765 b 563 -7 47 208 272 -7 b 1078 486 853 -7 1078 208 b 563 976 1078 764 853 976 z m 564 829 b 910 486 754 829 910 679 b 564 140 910 293 754 140 b 214 486 374 140 214 293 b 564 829 214 679 372 829 z "},"Ȍ":{"ha":1125,"x_min":0,"x_max":0,"o":"m 401 1293 l 265 1232 l 393 1079 l 517 1079 z m 631 1293 l 494 1232 l 622 1079 l 746 1079 z m 563 976 b 47 486 272 976 47 765 b 563 -7 47 208 272 -7 b 1078 486 853 -7 1078 208 b 563 976 1078 764 853 976 z m 564 829 b 910 486 754 829 910 679 b 564 140 910 293 754 140 b 214 486 374 140 214 293 b 564 829 214 679 372 829 z "},"Ö":{"ha":1125,"x_min":0,"x_max":0,"o":"m 433 1271 b 349 1183 385 1271 349 1235 b 433 1096 349 1135 385 1096 b 518 1183 481 1096 518 1135 b 433 1271 518 1235 481 1271 z m 679 1271 b 594 1183 631 1271 594 1235 b 679 1096 594 1135 631 1096 b 764 1183 726 1096 764 1135 b 679 1271 764 1235 726 1271 z m 563 976 b 47 486 272 976 47 765 b 563 -7 47 208 272 -7 b 1078 486 853 -7 1078 208 b 563 976 1078 764 853 976 z m 564 829 b 910 486 754 829 910 679 b 564 140 910 293 754 140 b 214 486 374 140 214 293 b 564 829 214 679 372 829 z "},"Ȫ":{"ha":1125,"x_min":0,"x_max":0,"o":"m 378 1482 l 378 1367 l 732 1367 l 732 1482 z m 432 1271 b 347 1183 383 1271 347 1235 b 432 1096 347 1135 383 1096 b 517 1183 479 1096 517 1135 b 432 1271 517 1235 479 1271 z m 678 1271 b 593 1183 629 1271 593 1235 b 678 1096 593 1135 629 1096 b 763 1183 725 1096 763 1135 b 678 1271 763 1235 725 1271 z m 563 976 b 47 486 272 976 47 765 b 563 -7 47 208 272 -7 b 1078 486 853 -7 1078 208 b 563 976 1078 764 853 976 z m 564 829 b 910 486 754 829 910 679 b 564 140 910 293 754 140 b 214 486 374 140 214 293 b 564 829 214 679 372 829 z "},"Ȱ":{"ha":1125,"x_min":0,"x_max":0,"o":"m 378 1454 l 378 1339 l 732 1339 l 732 1454 z m 556 1279 b 463 1183 503 1279 463 1239 b 556 1089 463 1129 503 1089 b 649 1183 608 1089 649 1129 b 556 1279 649 1239 608 1279 z m 563 976 b 47 486 272 976 47 765 b 563 -7 47 208 272 -7 b 1078 486 853 -7 1078 208 b 563 976 1078 764 853 976 z m 564 829 b 910 486 754 829 910 679 b 564 140 910 293 754 140 b 214 486 374 140 214 293 b 564 829 214 679 372 829 z "},"Ọ":{"ha":1125,"x_min":0,"x_max":0,"o":"m 563 976 b 47 486 272 976 47 765 b 563 -7 47 208 272 -7 b 1078 486 853 -7 1078 208 b 563 976 1078 764 853 976 z m 564 829 b 910 486 754 829 910 679 b 564 140 910 293 754 140 b 214 486 374 140 214 293 b 564 829 214 679 372 829 z m 564 -71 b 471 -165 510 -71 471 -110 b 564 -260 471 -219 510 -260 b 657 -165 617 -260 657 -219 b 564 -71 657 -110 617 -71 z "},"Ò":{"ha":1125,"x_min":0,"x_max":0,"o":"m 494 1285 l 331 1215 l 500 1079 l 642 1079 z m 563 976 b 47 486 272 976 47 765 b 563 -7 47 208 272 -7 b 1078 486 853 -7 1078 208 b 563 976 1078 764 853 976 z m 564 829 b 910 486 754 829 910 679 b 564 140 910 293 754 140 b 214 486 374 140 214 293 b 564 829 214 679 372 829 z "},"Ỏ":{"ha":1125,"x_min":0,"x_max":0,"o":"m 406 1194 l 481 1169 b 551 1231 486 1206 510 1231 b 611 1175 590 1231 611 1206 b 529 1063 611 1133 579 1101 l 606 1036 b 692 1181 660 1081 692 1121 b 553 1310 692 1256 638 1310 b 406 1194 475 1310 417 1268 z m 563 976 b 47 486 272 976 47 765 b 563 -7 47 208 272 -7 b 1078 486 853 -7 1078 208 b 563 976 1078 764 853 976 z m 564 829 b 910 486 754 829 910 679 b 564 140 910 293 754 140 b 214 486 374 140 214 293 b 564 829 214 679 372 829 z "},"Ơ":{"ha":1125,"x_min":0,"x_max":0,"o":"m 828 910 b 918 1100 883 954 918 1022 l 796 1100 b 679 964 796 1029 747 975 b 563 976 642 972 603 976 b 47 486 272 976 47 765 b 563 -7 47 208 272 -7 b 1078 486 853 -7 1078 208 b 828 910 1078 669 979 825 z m 564 140 b 214 486 374 140 214 293 b 564 829 214 679 372 829 b 910 486 754 829 910 679 b 564 140 910 293 754 140 z "},"Ớ":{"ha":1125,"x_min":0,"x_max":0,"o":"m 788 1215 l 624 1285 l 476 1079 l 618 1079 z m 828 910 b 918 1100 883 954 918 1022 l 796 1100 b 679 964 796 1029 747 975 b 563 976 642 972 603 976 b 47 486 272 976 47 765 b 563 -7 47 208 272 -7 b 1078 486 853 -7 1078 208 b 828 910 1078 669 979 825 z m 564 140 b 214 486 374 140 214 293 b 564 829 214 679 372 829 b 910 486 754 829 910 679 b 564 140 910 293 754 140 z "},"Ợ":{"ha":1125,"x_min":0,"x_max":0,"o":"m 828 910 b 918 1100 883 954 918 1022 l 796 1100 b 679 964 796 1029 747 975 b 563 976 642 972 603 976 b 47 486 272 976 47 765 b 563 -7 47 208 272 -7 b 1078 486 853 -7 1078 208 b 828 910 1078 669 979 825 z m 564 140 b 214 486 374 140 214 293 b 564 829 214 679 372 829 b 910 486 754 829 910 679 b 564 140 910 293 754 140 z m 564 -71 b 471 -165 510 -71 471 -110 b 564 -260 471 -219 510 -260 b 657 -165 617 -260 657 -219 b 564 -71 657 -110 617 -71 z "},"Ờ":{"ha":1125,"x_min":0,"x_max":0,"o":"m 635 1079 l 488 1285 l 324 1215 l 493 1079 z m 828 910 b 918 1100 883 954 918 1022 l 796 1100 b 679 964 796 1029 747 975 b 563 976 642 972 603 976 b 47 486 272 976 47 765 b 563 -7 47 208 272 -7 b 1078 486 853 -7 1078 208 b 828 910 1078 669 979 825 z m 564 140 b 214 486 374 140 214 293 b 564 829 214 679 372 829 b 910 486 754 829 910 679 b 564 140 910 293 754 140 z "},"Ở":{"ha":1125,"x_min":0,"x_max":0,"o":"m 551 1231 b 611 1175 590 1231 611 1206 b 529 1063 611 1133 579 1101 l 606 1036 b 692 1181 660 1081 692 1121 b 553 1310 692 1256 638 1310 b 406 1194 475 1310 417 1268 l 481 1169 b 551 1231 486 1206 510 1231 z m 828 910 b 918 1100 883 954 918 1022 l 796 1100 b 679 964 796 1029 747 975 b 563 976 642 972 603 976 b 47 486 272 976 47 765 b 563 -7 47 208 272 -7 b 1078 486 853 -7 1078 208 b 828 910 1078 669 979 825 z m 564 140 b 214 486 374 140 214 293 b 564 829 214 679 372 829 b 910 486 754 829 910 679 b 564 140 910 293 754 140 z "},"Ỡ":{"ha":1125,"x_min":0,"x_max":0,"o":"m 486 1172 b 653 1096 535 1172 569 1096 b 779 1278 736 1096 779 1157 l 678 1278 b 625 1210 678 1233 660 1210 b 460 1286 578 1210 536 1286 b 332 1104 376 1286 332 1225 l 435 1104 b 486 1172 435 1149 453 1172 z m 828 910 b 918 1100 883 954 918 1022 l 796 1100 b 679 964 796 1029 747 975 b 563 976 642 972 603 976 b 47 486 272 976 47 765 b 563 -7 47 208 272 -7 b 1078 486 853 -7 1078 208 b 828 910 1078 669 979 825 z m 564 140 b 214 486 374 140 214 293 b 564 829 214 679 372 829 b 910 486 754 829 910 679 b 564 140 910 293 754 140 z "},"Ő":{"ha":1125,"x_min":0,"x_max":0,"o":"m 468 1289 l 353 1075 l 476 1075 l 604 1228 z m 697 1289 l 582 1075 l 706 1075 l 833 1228 z m 563 976 b 47 486 272 976 47 765 b 563 -7 47 208 272 -7 b 1078 486 853 -7 1078 208 b 563 976 1078 764 853 976 z m 564 829 b 910 486 754 829 910 679 b 564 140 910 293 754 140 b 214 486 374 140 214 293 b 564 829 214 679 372 829 z "},"Ȏ":{"ha":1125,"x_min":0,"x_max":0,"o":"m 468 1076 b 556 1168 471 1131 507 1168 b 643 1076 604 1168 640 1131 l 751 1076 b 556 1274 747 1196 667 1274 b 360 1076 444 1274 364 1196 z m 563 976 b 47 486 272 976 47 765 b 563 -7 47 208 272 -7 b 1078 486 853 -7 1078 208 b 563 976 1078 764 853 976 z m 564 829 b 910 486 754 829 910 679 b 564 140 910 293 754 140 b 214 486 374 140 214 293 b 564 829 214 679 372 829 z "},"Ō":{"ha":1125,"x_min":0,"x_max":0,"o":"m 379 1239 l 379 1124 l 733 1124 l 733 1239 z m 563 976 b 47 486 272 976 47 765 b 563 -7 47 208 272 -7 b 1078 486 853 -7 1078 208 b 563 976 1078 764 853 976 z m 564 829 b 910 486 754 829 910 679 b 564 140 910 293 754 140 b 214 486 374 140 214 293 b 564 829 214 679 372 829 z "},"Ṓ":{"ha":1125,"x_min":0,"x_max":0,"o":"m 624 1515 l 476 1310 l 618 1310 l 788 1446 z m 378 1213 l 378 1097 l 732 1097 l 732 1213 z m 563 976 b 47 486 272 976 47 765 b 563 -7 47 208 272 -7 b 1078 486 853 -7 1078 208 b 563 976 1078 764 853 976 z m 564 829 b 910 486 754 829 910 679 b 564 140 910 293 754 140 b 214 486 374 140 214 293 b 564 829 214 679 372 829 z "},"Ṑ":{"ha":1125,"x_min":0,"x_max":0,"o":"m 488 1515 l 324 1446 l 493 1310 l 635 1310 z m 378 1213 l 378 1097 l 732 1097 l 732 1213 z m 563 976 b 47 486 272 976 47 765 b 563 -7 47 208 272 -7 b 1078 486 853 -7 1078 208 b 563 976 1078 764 853 976 z m 564 829 b 910 486 754 829 910 679 b 564 140 910 293 754 140 b 214 486 374 140 214 293 b 564 829 214 679 372 829 z "},"Ǫ":{"ha":1125,"x_min":0,"x_max":0,"o":"m 1078 486 b 563 976 1078 764 853 976 b 47 486 272 976 47 765 b 511 -4 47 225 246 19 b 442 -172 467 -67 442 -122 b 551 -281 442 -249 497 -281 b 683 -201 603 -281 651 -251 l 638 -147 b 569 -192 617 -174 593 -192 b 526 -147 544 -192 526 -175 b 592 -6 526 -115 547 -69 b 1078 486 868 7 1078 218 z m 214 486 b 564 829 214 679 372 829 b 910 486 754 829 910 679 b 564 140 910 293 754 140 b 214 486 374 140 214 293 z "},"Ø":{"ha":1125,"x_min":0,"x_max":0,"o":"m 874 881 l 986 1049 l 889 1049 l 804 922 b 563 976 733 957 650 976 b 47 486 272 976 47 765 b 250 90 47 322 126 179 l 139 -76 l 235 -76 l 318 49 b 563 -7 390 14 474 -7 b 1078 486 853 -7 1078 208 b 874 881 1078 651 999 793 z m 214 486 b 564 829 214 679 372 829 b 719 793 619 829 672 817 l 338 222 b 214 486 263 285 214 379 z m 564 140 b 404 178 507 140 453 154 l 786 750 b 910 486 861 688 910 593 b 564 140 910 293 754 140 z "},"Ǿ":{"ha":1125,"x_min":0,"x_max":0,"o":"m 794 1215 l 631 1285 l 483 1079 l 625 1079 z m 874 881 l 986 1049 l 889 1049 l 804 922 b 563 976 733 957 650 976 b 47 486 272 976 47 765 b 250 90 47 322 126 179 l 139 -76 l 235 -76 l 318 49 b 563 -7 390 14 474 -7 b 1078 486 853 -7 1078 208 b 874 881 1078 651 999 793 z m 214 486 b 564 829 214 679 372 829 b 719 793 619 829 672 817 l 338 222 b 214 486 263 285 214 379 z m 564 140 b 404 178 507 140 453 154 l 786 750 b 910 486 861 688 910 593 b 564 140 910 293 754 140 z "},"Õ":{"ha":1125,"x_min":0,"x_max":0,"o":"m 779 1278 l 678 1278 b 625 1210 678 1233 660 1210 b 460 1286 578 1210 536 1286 b 332 1104 376 1286 332 1225 l 435 1104 b 486 1172 435 1149 453 1172 b 653 1096 535 1172 569 1096 b 779 1278 736 1096 779 1157 z m 563 976 b 47 486 272 976 47 765 b 563 -7 47 208 272 -7 b 1078 486 853 -7 1078 208 b 563 976 1078 764 853 976 z m 564 829 b 910 486 754 829 910 679 b 564 140 910 293 754 140 b 214 486 374 140 214 293 b 564 829 214 679 372 829 z "},"Ṍ":{"ha":1125,"x_min":0,"x_max":0,"o":"m 624 1556 l 476 1350 l 618 1350 l 788 1486 z m 779 1278 l 678 1278 b 625 1210 678 1233 660 1210 b 460 1286 578 1210 536 1286 b 332 1104 376 1286 332 1225 l 435 1104 b 486 1172 435 1149 453 1172 b 653 1096 535 1172 569 1096 b 779 1278 736 1096 779 1157 z m 563 976 b 47 486 272 976 47 765 b 563 -7 47 208 272 -7 b 1078 486 853 -7 1078 208 b 563 976 1078 764 853 976 z m 564 829 b 910 486 754 829 910 679 b 564 140 910 293 754 140 b 214 486 374 140 214 293 b 564 829 214 679 372 829 z "},"Ṏ":{"ha":1125,"x_min":0,"x_max":0,"o":"m 432 1542 b 347 1454 383 1542 347 1506 b 432 1367 347 1406 383 1367 b 517 1454 479 1367 517 1406 b 432 1542 517 1506 479 1542 z m 678 1542 b 593 1454 629 1542 593 1506 b 678 1367 593 1406 629 1367 b 763 1454 725 1367 763 1406 b 678 1542 763 1506 725 1542 z m 779 1278 l 678 1278 b 625 1210 678 1233 660 1210 b 460 1286 578 1210 536 1286 b 332 1104 376 1286 332 1225 l 435 1104 b 486 1172 435 1149 453 1172 b 653 1096 535 1172 569 1096 b 779 1278 736 1096 779 1157 z m 563 976 b 47 486 272 976 47 765 b 563 -7 47 208 272 -7 b 1078 486 853 -7 1078 208 b 563 976 1078 764 853 976 z m 564 829 b 910 486 754 829 910 679 b 564 140 910 293 754 140 b 214 486 374 140 214 293 b 564 829 214 679 372 829 z "},"Ȭ":{"ha":1125,"x_min":0,"x_max":0,"o":"m 378 1483 l 378 1368 l 732 1368 l 732 1483 z m 779 1278 l 678 1278 b 625 1210 678 1233 660 1210 b 460 1286 578 1210 536 1286 b 332 1104 376 1286 332 1225 l 435 1104 b 486 1172 435 1149 453 1172 b 653 1096 535 1172 569 1096 b 779 1278 736 1096 779 1157 z m 563 976 b 47 486 272 976 47 765 b 563 -7 47 208 272 -7 b 1078 486 853 -7 1078 208 b 563 976 1078 764 853 976 z m 564 829 b 910 486 754 829 910 679 b 564 140 910 293 754 140 b 214 486 374 140 214 293 b 564 829 214 679 372 829 z "},"Œ":{"ha":1524,"x_min":0,"x_max":0,"o":"m 904 147 l 904 415 l 1379 415 l 1379 561 l 904 561 l 904 825 l 1435 825 l 1435 972 l 561 972 b 47 486 271 972 47 758 b 561 0 47 211 272 0 l 1451 0 l 1451 147 z m 563 147 b 214 485 367 147 214 292 b 563 824 214 678 367 824 l 740 824 l 740 147 z "},"P":{"ha":935,"x_min":0,"x_max":0,"o":"m 515 972 l 128 972 l 128 0 l 292 0 l 292 293 l 515 293 b 900 640 760 293 900 421 b 515 972 900 851 760 972 z m 508 440 l 292 440 l 292 825 l 508 825 b 743 636 658 825 743 764 b 508 440 743 504 658 440 z "},"Þ":{"ha":942,"x_min":0,"x_max":0,"o":"m 496 835 l 292 835 l 292 972 l 128 972 l 128 0 l 292 0 l 292 169 l 496 169 b 907 510 760 169 907 293 b 496 835 907 717 760 835 z m 489 306 l 292 306 l 292 699 l 489 699 b 740 506 654 699 740 632 b 489 306 740 374 654 306 z "},"Q":{"ha":1136,"x_min":0,"x_max":0,"o":"m 1069 8 b 890 -72 1006 -42 942 -72 b 728 18 835 -72 781 -39 b 1078 486 935 82 1078 264 b 563 976 1078 764 853 976 b 47 486 272 976 47 765 b 561 -7 47 208 271 -6 b 871 -214 639 -137 749 -214 b 1135 -107 961 -214 1060 -174 z m 214 486 b 564 829 214 679 372 829 b 910 486 754 829 910 679 b 564 140 910 293 754 140 b 214 486 374 140 214 293 z "},"R":{"ha":1004,"x_min":0,"x_max":0,"o":"m 931 0 l 713 325 b 914 640 842 375 914 485 b 522 972 914 851 771 972 l 128 972 l 128 0 l 292 0 l 292 293 l 522 293 b 567 294 538 293 553 293 l 744 0 z m 292 440 l 292 825 l 522 825 b 758 636 672 825 758 764 b 522 440 758 504 672 440 z "},"Ŕ":{"ha":1004,"x_min":0,"x_max":0,"o":"m 711 1215 l 547 1285 l 400 1079 l 542 1079 z m 931 0 l 713 325 b 914 640 842 375 914 485 b 522 972 914 851 771 972 l 128 972 l 128 0 l 292 0 l 292 293 l 522 293 b 567 294 538 293 553 293 l 744 0 z m 292 440 l 292 825 l 522 825 b 758 636 672 825 758 764 b 522 440 758 504 672 440 z "},"Ř":{"ha":1004,"x_min":0,"x_max":0,"o":"m 568 1069 l 718 1278 l 576 1278 l 489 1149 l 401 1278 l 260 1278 l 410 1069 z m 931 0 l 713 325 b 914 640 842 375 914 485 b 522 972 914 851 771 972 l 128 972 l 128 0 l 292 0 l 292 293 l 522 293 b 567 294 538 293 553 293 l 744 0 z m 292 440 l 292 825 l 522 825 b 758 636 672 825 758 764 b 522 440 758 504 672 440 z "},"Ŗ":{"ha":1004,"x_min":0,"x_max":0,"o":"m 713 325 b 914 640 842 375 914 485 b 522 972 914 851 771 972 l 128 972 l 128 0 l 292 0 l 292 293 l 522 293 b 567 294 538 293 553 293 l 744 0 l 931 0 z m 292 440 l 292 825 l 522 825 b 758 636 672 825 758 764 b 522 440 758 504 672 440 z m 500 -69 b 414 -157 450 -69 414 -107 b 451 -226 414 -185 426 -211 l 399 -346 l 481 -346 l 560 -228 b 585 -156 575 -206 585 -183 b 500 -69 585 -101 544 -69 z "},"Ȑ":{"ha":1004,"x_min":0,"x_max":0,"o":"m 454 1079 l 339 1293 l 203 1232 l 331 1079 z m 683 1079 l 568 1293 l 432 1232 l 560 1079 z m 931 0 l 713 325 b 914 640 842 375 914 485 b 522 972 914 851 771 972 l 128 972 l 128 0 l 292 0 l 292 293 l 522 293 b 567 294 538 293 553 293 l 744 0 z m 292 440 l 292 825 l 522 825 b 758 636 672 825 758 764 b 522 440 758 504 672 440 z "},"Ṛ":{"ha":1004,"x_min":0,"x_max":0,"o":"m 713 325 b 914 640 842 375 914 485 b 522 972 914 851 771 972 l 128 972 l 128 0 l 292 0 l 292 293 l 522 293 b 567 294 538 293 553 293 l 744 0 l 931 0 z m 292 440 l 292 825 l 522 825 b 758 636 672 825 758 764 b 522 440 758 504 672 440 z m 500 -69 b 407 -165 447 -69 407 -110 b 500 -260 407 -219 447 -260 b 593 -165 553 -260 593 -219 b 500 -69 593 -110 553 -69 z "},"Ȓ":{"ha":1004,"x_min":0,"x_max":0,"o":"m 493 1168 b 581 1076 542 1168 578 1131 l 689 1076 b 493 1274 685 1196 604 1274 b 297 1076 382 1274 301 1196 l 406 1076 b 493 1168 408 1131 444 1168 z m 931 0 l 713 325 b 914 640 842 375 914 485 b 522 972 914 851 771 972 l 128 972 l 128 0 l 292 0 l 292 293 l 522 293 b 567 294 538 293 553 293 l 744 0 z m 292 440 l 292 825 l 522 825 b 758 636 672 825 758 764 b 522 440 758 504 672 440 z "},"Ṟ":{"ha":1004,"x_min":0,"x_max":0,"o":"m 713 325 b 914 640 842 375 914 485 b 522 972 914 851 771 972 l 128 972 l 128 0 l 292 0 l 292 293 l 522 293 b 567 294 538 293 553 293 l 744 0 l 931 0 z m 292 440 l 292 825 l 522 825 b 758 636 672 825 758 764 b 522 440 758 504 672 440 z m 322 -203 l 676 -203 l 676 -87 l 322 -87 z "},"S":{"ha":864,"x_min":0,"x_max":0,"o":"m 719 735 l 788 879 b 447 979 697 939 574 979 b 93 708 236 979 93 875 b 618 267 93 363 618 483 b 436 149 618 192 550 149 b 107 290 332 149 207 199 l 36 149 b 433 -6 136 57 281 -6 b 800 275 647 -6 800 101 b 276 724 801 625 276 511 b 435 825 276 789 339 825 b 719 735 508 825 614 799 z "},"Ś":{"ha":864,"x_min":0,"x_max":0,"o":"m 497 1285 l 350 1079 l 492 1079 l 661 1215 z m 719 735 l 788 879 b 447 979 697 939 574 979 b 93 708 236 979 93 875 b 618 267 93 363 618 483 b 436 149 618 192 550 149 b 107 290 332 149 207 199 l 36 149 b 433 -6 136 57 281 -6 b 800 275 647 -6 800 101 b 276 724 801 625 276 511 b 435 825 276 789 339 825 b 719 735 508 825 614 799 z "},"Ṥ":{"ha":864,"x_min":0,"x_max":0,"o":"m 443 1535 b 350 1439 390 1535 350 1494 b 443 1344 350 1385 390 1344 b 536 1439 496 1344 536 1385 b 443 1535 536 1494 496 1535 z m 511 1285 l 364 1079 l 506 1079 l 675 1215 z m 719 735 l 788 879 b 447 979 697 939 574 979 b 93 708 236 979 93 875 b 618 267 93 363 618 483 b 436 149 618 192 550 149 b 107 290 332 149 207 199 l 36 149 b 433 -6 136 57 281 -6 b 800 275 647 -6 800 101 b 276 724 801 625 276 511 b 435 825 276 789 339 825 b 719 735 508 825 614 799 z "},"Š":{"ha":864,"x_min":0,"x_max":0,"o":"m 210 1278 l 360 1069 l 518 1069 l 668 1278 l 526 1278 l 439 1149 l 351 1278 z m 719 735 l 788 879 b 447 979 697 939 574 979 b 93 708 236 979 93 875 b 618 267 93 363 618 483 b 436 149 618 192 550 149 b 107 290 332 149 207 199 l 36 149 b 433 -6 136 57 281 -6 b 800 275 647 -6 800 101 b 276 724 801 625 276 511 b 435 825 276 789 339 825 b 719 735 508 825 614 799 z "},"Ṧ":{"ha":864,"x_min":0,"x_max":0,"o":"m 443 1535 b 350 1439 390 1535 350 1494 b 443 1344 350 1385 390 1344 b 536 1439 496 1344 536 1385 b 443 1535 536 1494 496 1535 z m 214 1282 l 364 1074 l 522 1074 l 672 1282 l 531 1282 l 443 1153 l 356 1282 z m 719 735 l 788 879 b 447 979 697 939 574 979 b 93 708 236 979 93 875 b 618 267 93 363 618 483 b 436 149 618 192 550 149 b 107 290 332 149 207 199 l 36 149 b 433 -6 136 57 281 -6 b 800 275 647 -6 800 101 b 276 724 801 625 276 511 b 435 825 276 789 339 825 b 719 735 508 825 614 799 z "},"Ş":{"ha":864,"x_min":0,"x_max":0,"o":"m 276 724 b 435 825 276 789 339 825 b 719 735 508 825 614 799 l 788 879 b 447 979 697 939 574 979 b 93 708 236 979 93 875 b 618 267 93 363 618 483 b 436 149 618 192 550 149 b 107 290 332 149 207 199 l 36 149 b 414 -6 132 61 268 0 l 364 -122 b 413 -115 379 -118 397 -115 b 479 -168 458 -115 479 -142 b 415 -225 479 -196 456 -225 b 335 -197 388 -225 358 -215 l 304 -272 b 426 -311 336 -296 381 -311 b 574 -179 508 -311 574 -260 b 476 -69 574 -118 535 -81 l 508 -1 b 800 275 682 22 800 122 b 276 724 801 625 276 511 z "},"Ŝ":{"ha":864,"x_min":0,"x_max":0,"o":"m 369 1278 l 226 1082 l 357 1082 l 443 1204 l 529 1082 l 660 1082 l 517 1278 z m 719 735 l 788 879 b 447 979 697 939 574 979 b 93 708 236 979 93 875 b 618 267 93 363 618 483 b 436 149 618 192 550 149 b 107 290 332 149 207 199 l 36 149 b 433 -6 136 57 281 -6 b 800 275 647 -6 800 101 b 276 724 801 625 276 511 b 435 825 276 789 339 825 b 719 735 508 825 614 799 z "},"Ș":{"ha":864,"x_min":0,"x_max":0,"o":"m 276 724 b 435 825 276 789 339 825 b 719 735 508 825 614 799 l 788 879 b 447 979 697 939 574 979 b 93 708 236 979 93 875 b 618 267 93 363 618 483 b 436 149 618 192 550 149 b 107 290 332 149 207 199 l 36 149 b 433 -6 136 57 281 -6 b 800 275 647 -6 800 101 b 276 724 801 625 276 511 z m 439 -69 b 353 -157 389 -69 353 -107 b 390 -226 353 -185 365 -211 l 338 -346 l 419 -346 l 499 -228 b 524 -156 514 -206 524 -183 b 439 -69 524 -101 483 -69 z "},"Ṡ":{"ha":864,"x_min":0,"x_max":0,"o":"m 443 1279 b 350 1183 390 1279 350 1239 b 443 1089 350 1129 390 1089 b 536 1183 496 1089 536 1129 b 443 1279 536 1239 496 1279 z m 719 735 l 788 879 b 447 979 697 939 574 979 b 93 708 236 979 93 875 b 618 267 93 363 618 483 b 436 149 618 192 550 149 b 107 290 332 149 207 199 l 36 149 b 433 -6 136 57 281 -6 b 800 275 647 -6 800 101 b 276 724 801 625 276 511 b 435 825 276 789 339 825 b 719 735 508 825 614 799 z "},"Ṣ":{"ha":864,"x_min":0,"x_max":0,"o":"m 719 735 l 788 879 b 447 979 697 939 574 979 b 93 708 236 979 93 875 b 618 267 93 363 618 483 b 436 149 618 192 550 149 b 107 290 332 149 207 199 l 36 149 b 433 -6 136 57 281 -6 b 800 275 647 -6 800 101 b 276 724 801 625 276 511 b 435 825 276 789 339 825 b 719 735 508 825 614 799 z m 439 -69 b 346 -165 386 -69 346 -110 b 439 -260 346 -219 386 -260 b 532 -165 492 -260 532 -219 b 439 -69 532 -110 492 -69 z "},"Ṩ":{"ha":864,"x_min":0,"x_max":0,"o":"m 443 1279 b 350 1183 390 1279 350 1239 b 443 1089 350 1129 390 1089 b 536 1183 496 1089 536 1129 b 443 1279 536 1239 496 1279 z m 719 735 l 788 879 b 447 979 697 939 574 979 b 93 708 236 979 93 875 b 618 267 93 363 618 483 b 436 149 618 192 550 149 b 107 290 332 149 207 199 l 36 149 b 433 -6 136 57 281 -6 b 800 275 647 -6 800 101 b 276 724 801 625 276 511 b 435 825 276 789 339 825 b 719 735 508 825 614 799 z m 439 -69 b 346 -165 386 -69 346 -110 b 439 -260 346 -219 386 -260 b 532 -165 492 -260 532 -219 b 439 -69 532 -110 492 -69 z "},"ẞ":{"ha":942,"x_min":0,"x_max":0,"o":"m 678 557 l 832 732 l 832 869 b 511 976 763 925 658 976 b 111 583 260 976 111 831 l 111 0 l 275 0 l 275 585 b 515 831 275 739 364 831 b 692 788 590 831 647 814 l 501 569 l 501 429 l 564 429 b 733 286 671 429 733 376 b 564 146 733 199 669 146 l 451 146 l 451 0 l 564 0 b 900 285 775 0 900 110 b 678 557 900 425 819 524 z "},"Ə":{"ha":1083,"x_min":0,"x_max":0,"o":"m 543 -7 b 1036 486 821 -7 1036 208 b 543 976 1036 764 821 976 b 146 804 368 976 243 911 l 264 690 b 544 829 328 776 431 829 b 874 529 714 829 854 701 l 42 529 b 543 -7 42 215 246 -7 z m 544 140 b 219 386 379 140 257 239 l 865 386 b 544 140 826 239 701 140 z "},"T":{"ha":804,"x_min":0,"x_max":0,"o":"m 13 972 l 13 825 l 319 825 l 319 0 l 483 0 l 483 825 l 792 825 l 792 972 z "},"Ŧ":{"ha":804,"x_min":0,"x_max":0,"o":"m 792 825 l 792 972 l 13 972 l 13 825 l 319 825 l 319 551 l 100 551 l 100 436 l 319 436 l 319 0 l 483 0 l 483 436 l 704 436 l 704 551 l 483 551 l 483 825 z "},"Ť":{"ha":804,"x_min":0,"x_max":0,"o":"m 179 1278 l 329 1069 l 488 1069 l 638 1278 l 496 1278 l 408 1149 l 321 1278 z m 13 972 l 13 825 l 319 825 l 319 0 l 483 0 l 483 825 l 792 825 l 792 972 z "},"Ţ":{"ha":804,"x_min":0,"x_max":0,"o":"m 483 0 l 483 825 l 792 825 l 792 972 l 13 972 l 13 825 l 319 825 l 319 0 l 378 0 l 326 -122 b 375 -115 342 -118 360 -115 b 442 -168 421 -115 442 -142 b 378 -225 442 -196 418 -225 b 297 -197 350 -225 321 -215 l 267 -272 b 389 -311 299 -296 343 -311 b 536 -179 471 -311 536 -260 b 439 -69 536 -118 497 -81 l 472 0 z "},"Ț":{"ha":804,"x_min":0,"x_max":0,"o":"m 13 972 l 13 825 l 319 825 l 319 0 l 483 0 l 483 825 l 792 825 l 792 972 z m 401 -69 b 315 -157 351 -69 315 -107 b 353 -226 315 -185 328 -211 l 300 -346 l 382 -346 l 461 -228 b 486 -156 476 -206 486 -183 b 401 -69 486 -101 446 -69 z "},"Ṭ":{"ha":804,"x_min":0,"x_max":0,"o":"m 13 972 l 13 825 l 319 825 l 319 0 l 483 0 l 483 825 l 792 825 l 792 972 z m 401 -69 b 308 -165 349 -69 308 -110 b 401 -260 308 -219 349 -260 b 494 -165 454 -260 494 -219 b 401 -69 494 -110 454 -69 z "},"Ṯ":{"ha":804,"x_min":0,"x_max":0,"o":"m 13 972 l 13 825 l 319 825 l 319 0 l 483 0 l 483 825 l 792 825 l 792 972 z m 224 -87 l 224 -203 l 578 -203 l 578 -87 z "},"U":{"ha":1061,"x_min":0,"x_max":0,"o":"m 272 403 l 272 972 l 108 972 l 108 403 b 532 -7 108 149 269 -7 b 954 403 794 -7 954 149 l 954 972 l 790 972 l 790 403 b 533 140 790 238 692 140 b 272 403 374 140 272 239 z "},"Ú":{"ha":1061,"x_min":0,"x_max":0,"o":"m 585 1285 l 438 1079 l 579 1079 l 749 1215 z m 272 403 l 272 972 l 108 972 l 108 403 b 532 -7 108 149 269 -7 b 954 403 794 -7 954 149 l 954 972 l 790 972 l 790 403 b 533 140 790 238 692 140 b 272 403 374 140 272 239 z "},"Ŭ":{"ha":1061,"x_min":0,"x_max":0,"o":"m 443 1272 l 335 1272 b 531 1075 339 1154 419 1075 b 726 1272 642 1075 722 1154 l 618 1272 b 531 1182 615 1219 579 1182 b 443 1272 482 1182 446 1219 z m 272 403 l 272 972 l 108 972 l 108 403 b 532 -7 108 149 269 -7 b 954 403 794 -7 954 149 l 954 972 l 790 972 l 790 403 b 533 140 790 238 692 140 b 272 403 374 140 272 239 z "},"Û":{"ha":1061,"x_min":0,"x_max":0,"o":"m 457 1278 l 314 1082 l 444 1082 l 531 1204 l 617 1082 l 747 1082 l 604 1278 z m 272 403 l 272 972 l 108 972 l 108 403 b 532 -7 108 149 269 -7 b 954 403 794 -7 954 149 l 954 972 l 790 972 l 790 403 b 533 140 790 238 692 140 b 272 403 374 140 272 239 z "},"Ȕ":{"ha":1061,"x_min":0,"x_max":0,"o":"m 376 1293 l 240 1232 l 368 1079 l 492 1079 z m 606 1293 l 469 1232 l 597 1079 l 721 1079 z m 272 403 l 272 972 l 108 972 l 108 403 b 532 -7 108 149 269 -7 b 954 403 794 -7 954 149 l 954 972 l 790 972 l 790 403 b 533 140 790 238 692 140 b 272 403 374 140 272 239 z "},"Ü":{"ha":1061,"x_min":0,"x_max":0,"o":"m 408 1271 b 324 1183 360 1271 324 1235 b 408 1096 324 1135 360 1096 b 493 1183 456 1096 493 1135 b 408 1271 493 1235 456 1271 z m 654 1271 b 569 1183 606 1271 569 1235 b 654 1096 569 1135 606 1096 b 739 1183 701 1096 739 1135 b 654 1271 739 1235 701 1271 z m 272 403 l 272 972 l 108 972 l 108 403 b 532 -7 108 149 269 -7 b 954 403 794 -7 954 149 l 954 972 l 790 972 l 790 403 b 533 140 790 238 692 140 b 272 403 374 140 272 239 z "},"Ụ":{"ha":1061,"x_min":0,"x_max":0,"o":"m 272 403 l 272 972 l 108 972 l 108 403 b 532 -7 108 149 269 -7 b 954 403 794 -7 954 149 l 954 972 l 790 972 l 790 403 b 533 140 790 238 692 140 b 272 403 374 140 272 239 z m 533 -71 b 440 -165 479 -71 440 -110 b 533 -260 440 -219 479 -260 b 626 -165 586 -260 626 -219 b 533 -71 626 -110 586 -71 z "},"Ù":{"ha":1061,"x_min":0,"x_max":0,"o":"m 469 1285 l 306 1215 l 475 1079 l 617 1079 z m 272 403 l 272 972 l 108 972 l 108 403 b 532 -7 108 149 269 -7 b 954 403 794 -7 954 149 l 954 972 l 790 972 l 790 403 b 533 140 790 238 692 140 b 272 403 374 140 272 239 z "},"Ủ":{"ha":1061,"x_min":0,"x_max":0,"o":"m 381 1194 l 456 1169 b 526 1231 461 1206 485 1231 b 586 1175 565 1231 586 1206 b 504 1063 586 1133 554 1101 l 581 1036 b 667 1181 635 1081 667 1121 b 528 1310 667 1256 613 1310 b 381 1194 450 1310 392 1268 z m 272 403 l 272 972 l 108 972 l 108 403 b 532 -7 108 149 269 -7 b 954 403 794 -7 954 149 l 954 972 l 790 972 l 790 403 b 533 140 790 238 692 140 b 272 403 374 140 272 239 z "},"Ư":{"ha":1061,"x_min":0,"x_max":0,"o":"m 1083 1100 l 961 1100 b 874 972 961 1040 926 992 l 790 972 l 790 403 b 533 140 790 238 692 140 b 272 403 374 140 272 239 l 272 972 l 108 972 l 108 403 b 532 -7 108 149 269 -7 b 954 403 794 -7 954 149 l 954 883 b 1083 1100 1033 925 1083 1004 z "},"Ứ":{"ha":1061,"x_min":0,"x_max":0,"o":"m 763 1215 l 599 1285 l 451 1079 l 593 1079 z m 1083 1100 l 961 1100 b 874 972 961 1040 926 992 l 790 972 l 790 403 b 533 140 790 238 692 140 b 272 403 374 140 272 239 l 272 972 l 108 972 l 108 403 b 532 -7 108 149 269 -7 b 954 403 794 -7 954 149 l 954 883 b 1083 1100 1033 925 1083 1004 z "},"Ự":{"ha":1061,"x_min":0,"x_max":0,"o":"m 1083 1100 l 961 1100 b 874 972 961 1040 926 992 l 790 972 l 790 403 b 533 140 790 238 692 140 b 272 403 374 140 272 239 l 272 972 l 108 972 l 108 403 b 532 -7 108 149 269 -7 b 954 403 794 -7 954 149 l 954 883 b 1083 1100 1033 925 1083 1004 z m 533 -71 b 440 -165 479 -71 440 -110 b 533 -260 440 -219 479 -260 b 626 -165 586 -260 626 -219 b 533 -71 626 -110 586 -71 z "},"Ừ":{"ha":1061,"x_min":0,"x_max":0,"o":"m 610 1079 l 463 1285 l 299 1215 l 468 1079 z m 1083 1100 l 961 1100 b 874 972 961 1040 926 992 l 790 972 l 790 403 b 533 140 790 238 692 140 b 272 403 374 140 272 239 l 272 972 l 108 972 l 108 403 b 532 -7 108 149 269 -7 b 954 403 794 -7 954 149 l 954 883 b 1083 1100 1033 925 1083 1004 z "},"Ử":{"ha":1061,"x_min":0,"x_max":0,"o":"m 526 1231 b 586 1175 565 1231 586 1206 b 504 1063 586 1133 554 1101 l 581 1036 b 667 1181 635 1081 667 1121 b 528 1310 667 1256 613 1310 b 381 1194 450 1310 392 1268 l 456 1169 b 526 1231 461 1206 485 1231 z m 1083 1100 l 961 1100 b 874 972 961 1040 926 992 l 790 972 l 790 403 b 533 140 790 238 692 140 b 272 403 374 140 272 239 l 272 972 l 108 972 l 108 403 b 532 -7 108 149 269 -7 b 954 403 794 -7 954 149 l 954 883 b 1083 1100 1033 925 1083 1004 z "},"Ữ":{"ha":1061,"x_min":0,"x_max":0,"o":"m 461 1172 b 628 1096 510 1172 544 1096 b 754 1278 711 1096 754 1157 l 653 1278 b 600 1210 653 1233 635 1210 b 435 1286 553 1210 511 1286 b 307 1104 351 1286 307 1225 l 410 1104 b 461 1172 410 1149 428 1172 z m 1083 1100 l 961 1100 b 874 972 961 1040 926 992 l 790 972 l 790 403 b 533 140 790 238 692 140 b 272 403 374 140 272 239 l 272 972 l 108 972 l 108 403 b 532 -7 108 149 269 -7 b 954 403 794 -7 954 149 l 954 883 b 1083 1100 1033 925 1083 1004 z "},"Ű":{"ha":1061,"x_min":0,"x_max":0,"o":"m 443 1289 l 328 1075 l 451 1075 l 579 1228 z m 672 1289 l 557 1075 l 681 1075 l 808 1228 z m 272 403 l 272 972 l 108 972 l 108 403 b 532 -7 108 149 269 -7 b 954 403 794 -7 954 149 l 954 972 l 790 972 l 790 403 b 533 140 790 238 692 140 b 272 403 374 140 272 239 z "},"Ȗ":{"ha":1061,"x_min":0,"x_max":0,"o":"m 443 1076 b 531 1168 446 1131 482 1168 b 618 1076 579 1168 615 1131 l 726 1076 b 531 1274 722 1196 642 1274 b 335 1076 419 1274 339 1196 z m 272 403 l 272 972 l 108 972 l 108 403 b 532 -7 108 149 269 -7 b 954 403 794 -7 954 149 l 954 972 l 790 972 l 790 403 b 533 140 790 238 692 140 b 272 403 374 140 272 239 z "},"Ū":{"ha":1061,"x_min":0,"x_max":0,"o":"m 354 1239 l 354 1124 l 708 1124 l 708 1239 z m 272 403 l 272 972 l 108 972 l 108 403 b 532 -7 108 149 269 -7 b 954 403 794 -7 954 149 l 954 972 l 790 972 l 790 403 b 533 140 790 238 692 140 b 272 403 374 140 272 239 z "},"Ṻ":{"ha":1061,"x_min":0,"x_max":0,"o":"m 407 1501 b 322 1414 358 1501 322 1465 b 407 1326 322 1365 358 1326 b 492 1414 454 1326 492 1365 b 407 1501 492 1465 454 1501 z m 653 1501 b 568 1414 604 1501 568 1465 b 653 1326 568 1365 604 1326 b 738 1414 700 1326 738 1365 b 653 1501 738 1465 700 1501 z m 353 1213 l 353 1097 l 707 1097 l 707 1213 z m 272 403 l 272 972 l 108 972 l 108 403 b 532 -7 108 149 269 -7 b 954 403 794 -7 954 149 l 954 972 l 790 972 l 790 403 b 533 140 790 238 692 140 b 272 403 374 140 272 239 z "},"Ų":{"ha":1063,"x_min":0,"x_max":0,"o":"m 790 972 l 790 403 b 533 140 790 238 692 140 b 271 403 374 140 271 239 l 271 972 l 108 972 l 108 403 b 532 -7 108 149 269 -7 b 579 -6 549 -7 564 -7 b 513 -171 536 -68 513 -122 b 622 -279 513 -247 568 -279 b 754 -200 674 -279 722 -250 l 708 -146 b 639 -190 688 -172 665 -190 b 599 -146 615 -190 599 -174 b 672 10 599 -112 622 -62 b 954 403 850 57 954 199 l 954 972 z "},"Ů":{"ha":1061,"x_min":0,"x_max":0,"o":"m 531 1346 b 367 1185 440 1346 367 1272 b 531 1024 367 1096 440 1024 b 694 1185 621 1024 694 1096 b 531 1346 694 1272 621 1346 z m 531 1274 b 625 1185 582 1274 625 1233 b 531 1096 625 1136 582 1096 b 436 1185 479 1096 436 1136 b 531 1274 436 1233 479 1274 z m 272 403 l 272 972 l 108 972 l 108 403 b 532 -7 108 149 269 -7 b 954 403 794 -7 954 149 l 954 972 l 790 972 l 790 403 b 533 140 790 238 692 140 b 272 403 374 140 272 239 z "},"Ũ":{"ha":1061,"x_min":0,"x_max":0,"o":"m 754 1278 l 653 1278 b 600 1210 653 1233 635 1210 b 435 1286 553 1210 511 1286 b 307 1104 351 1286 307 1225 l 410 1104 b 461 1172 410 1149 428 1172 b 628 1096 510 1172 544 1096 b 754 1278 711 1096 754 1157 z m 272 403 l 272 972 l 108 972 l 108 403 b 532 -7 108 149 269 -7 b 954 403 794 -7 954 149 l 954 972 l 790 972 l 790 403 b 533 140 790 238 692 140 b 272 403 374 140 272 239 z "},"Ṹ":{"ha":1061,"x_min":0,"x_max":0,"o":"m 599 1556 l 451 1350 l 593 1350 l 763 1486 z m 754 1278 l 653 1278 b 600 1210 653 1233 635 1210 b 435 1286 553 1210 511 1286 b 307 1104 351 1286 307 1225 l 410 1104 b 461 1172 410 1149 428 1172 b 628 1096 510 1172 544 1096 b 754 1278 711 1096 754 1157 z m 272 403 l 272 972 l 108 972 l 108 403 b 532 -7 108 149 269 -7 b 954 403 794 -7 954 149 l 954 972 l 790 972 l 790 403 b 533 140 790 238 692 140 b 272 403 374 140 272 239 z "},"V":{"ha":958,"x_min":0,"x_max":0,"o":"m 4 972 l 392 0 l 561 0 l 954 972 l 783 972 l 481 182 l 181 972 z "},"W":{"ha":1439,"x_min":0,"x_max":0,"o":"m 4 972 l 326 0 l 496 0 l 729 758 l 960 0 l 1128 0 l 1453 972 l 1283 972 l 1049 182 l 813 972 l 651 972 l 417 182 l 181 972 z "},"Ẃ":{"ha":1439,"x_min":0,"x_max":0,"o":"m 774 1285 l 626 1079 l 768 1079 l 938 1215 z m 4 972 l 326 0 l 496 0 l 729 758 l 960 0 l 1128 0 l 1453 972 l 1283 972 l 1049 182 l 813 972 l 651 972 l 417 182 l 181 972 z "},"Ŵ":{"ha":1439,"x_min":0,"x_max":0,"o":"m 646 1278 l 503 1082 l 633 1082 l 719 1204 l 806 1082 l 936 1082 l 793 1278 z m 4 972 l 326 0 l 496 0 l 729 758 l 960 0 l 1128 0 l 1453 972 l 1283 972 l 1049 182 l 813 972 l 651 972 l 417 182 l 181 972 z "},"Ẅ":{"ha":1439,"x_min":0,"x_max":0,"o":"m 597 1271 b 513 1183 549 1271 513 1235 b 597 1096 513 1135 549 1096 b 682 1183 644 1096 682 1135 b 597 1271 682 1235 644 1271 z m 843 1271 b 758 1183 794 1271 758 1235 b 843 1096 758 1135 794 1096 b 928 1183 890 1096 928 1135 b 843 1271 928 1235 890 1271 z m 4 972 l 326 0 l 496 0 l 729 758 l 960 0 l 1128 0 l 1453 972 l 1283 972 l 1049 182 l 813 972 l 651 972 l 417 182 l 181 972 z "},"Ẁ":{"ha":1439,"x_min":0,"x_max":0,"o":"m 658 1285 l 494 1215 l 664 1079 l 806 1079 z m 4 972 l 326 0 l 496 0 l 729 758 l 960 0 l 1128 0 l 1453 972 l 1283 972 l 1049 182 l 813 972 l 651 972 l 417 182 l 181 972 z "},"X":{"ha":961,"x_min":0,"x_max":0,"o":"m 46 972 l 375 499 l 21 0 l 213 0 l 474 367 l 736 0 l 932 0 l 578 506 l 904 972 l 713 972 l 474 635 l 236 972 z "},"Y":{"ha":885,"x_min":0,"x_max":0,"o":"m 883 972 l 717 972 l 444 499 l 167 972 l 1 972 l 364 318 l 364 0 l 526 0 l 526 324 z "},"Ý":{"ha":885,"x_min":0,"x_max":0,"o":"m 660 1215 l 496 1285 l 349 1079 l 490 1079 z m 883 972 l 717 972 l 444 499 l 167 972 l 1 972 l 364 318 l 364 0 l 526 0 l 526 324 z "},"Ŷ":{"ha":885,"x_min":0,"x_max":0,"o":"m 442 1204 l 528 1082 l 658 1082 l 515 1278 l 368 1278 l 225 1082 l 356 1082 z m 883 972 l 717 972 l 444 499 l 167 972 l 1 972 l 364 318 l 364 0 l 526 0 l 526 324 z "},"Ÿ":{"ha":885,"x_min":0,"x_max":0,"o":"m 319 1096 b 404 1183 367 1096 404 1135 b 319 1271 404 1235 367 1271 b 235 1183 271 1271 235 1235 b 319 1096 235 1135 271 1096 z m 565 1096 b 650 1183 613 1096 650 1135 b 565 1271 650 1235 613 1271 b 481 1183 517 1271 481 1235 b 565 1096 481 1135 517 1096 z m 883 972 l 717 972 l 444 499 l 167 972 l 1 972 l 364 318 l 364 0 l 526 0 l 526 324 z "},"Ẏ":{"ha":885,"x_min":0,"x_max":0,"o":"m 442 1089 b 535 1183 494 1089 535 1129 b 442 1279 535 1239 494 1279 b 349 1183 389 1279 349 1239 b 442 1089 349 1129 389 1089 z m 883 972 l 717 972 l 444 499 l 167 972 l 1 972 l 364 318 l 364 0 l 526 0 l 526 324 z "},"Ỵ":{"ha":885,"x_min":0,"x_max":0,"o":"m 364 0 l 526 0 l 526 324 l 883 972 l 717 972 l 444 499 l 167 972 l 1 972 l 364 318 z m 446 -71 b 353 -165 392 -71 353 -110 b 446 -260 353 -219 392 -260 b 539 -165 499 -260 539 -219 b 446 -71 539 -110 499 -71 z "},"Ỳ":{"ha":885,"x_min":0,"x_max":0,"o":"m 528 1079 l 381 1285 l 217 1215 l 386 1079 z m 883 972 l 717 972 l 444 499 l 167 972 l 1 972 l 364 318 l 364 0 l 526 0 l 526 324 z "},"Ỷ":{"ha":885,"x_min":0,"x_max":0,"o":"m 438 1231 b 497 1175 476 1231 497 1206 b 415 1063 497 1133 465 1101 l 492 1036 b 578 1181 546 1081 578 1121 b 439 1310 578 1256 524 1310 b 292 1194 361 1310 303 1268 l 367 1169 b 438 1231 372 1206 396 1231 z m 883 972 l 717 972 l 444 499 l 167 972 l 1 972 l 364 318 l 364 0 l 526 0 l 526 324 z "},"Ȳ":{"ha":885,"x_min":0,"x_max":0,"o":"m 618 1213 l 264 1213 l 264 1097 l 618 1097 z m 883 972 l 717 972 l 444 499 l 167 972 l 1 972 l 364 318 l 364 0 l 526 0 l 526 324 z "},"Ỹ":{"ha":885,"x_min":0,"x_max":0,"o":"m 372 1172 b 539 1096 421 1172 456 1096 b 665 1278 622 1096 665 1157 l 564 1278 b 511 1210 564 1233 546 1210 b 346 1286 464 1210 422 1286 b 218 1104 263 1286 218 1225 l 321 1104 b 372 1172 321 1149 339 1172 z m 883 972 l 717 972 l 444 499 l 167 972 l 1 972 l 364 318 l 364 0 l 526 0 l 526 324 z "},"Z":{"ha":925,"x_min":0,"x_max":0,"o":"m 69 972 l 69 825 l 644 825 l 51 118 l 51 0 l 872 0 l 872 147 l 274 147 l 865 854 l 865 972 z "},"Ź":{"ha":925,"x_min":0,"x_max":0,"o":"m 522 1285 l 375 1079 l 517 1079 l 686 1215 z m 69 972 l 69 825 l 644 825 l 51 118 l 51 0 l 872 0 l 872 147 l 274 147 l 865 854 l 865 972 z "},"Ž":{"ha":925,"x_min":0,"x_max":0,"o":"m 235 1278 l 385 1069 l 543 1069 l 693 1278 l 551 1278 l 464 1149 l 376 1278 z m 69 972 l 69 825 l 644 825 l 51 118 l 51 0 l 872 0 l 872 147 l 274 147 l 865 854 l 865 972 z "},"Ż":{"ha":925,"x_min":0,"x_max":0,"o":"m 468 1279 b 375 1183 415 1279 375 1239 b 468 1089 375 1129 415 1089 b 561 1183 521 1089 561 1129 b 468 1279 561 1239 521 1279 z m 69 972 l 69 825 l 644 825 l 51 118 l 51 0 l 872 0 l 872 147 l 274 147 l 865 854 l 865 972 z "},"Ẓ":{"ha":925,"x_min":0,"x_max":0,"o":"m 69 972 l 69 825 l 644 825 l 51 118 l 51 0 l 872 0 l 872 147 l 274 147 l 865 854 l 865 972 z m 463 -69 b 369 -165 410 -69 369 -110 b 463 -260 369 -219 410 -260 b 556 -165 515 -260 556 -219 b 463 -69 556 -110 515 -69 z "},"a":{"ha":814,"x_min":0,"x_max":0,"o":"m 718 0 l 717 485 b 418 744 715 647 608 744 b 100 651 278 744 203 713 l 165 540 b 383 615 239 590 313 615 b 560 467 500 615 560 560 l 560 444 l 336 444 b 57 222 158 443 57 357 b 317 -7 57 92 157 -7 b 561 90 424 -7 508 25 l 561 0 z m 350 119 b 207 229 261 119 207 163 b 360 328 207 300 256 328 l 560 328 l 560 260 b 350 119 551 179 464 119 z "},"á":{"ha":814,"x_min":0,"x_max":0,"o":"m 621 982 l 457 1051 l 310 846 l 451 846 z m 718 0 l 717 485 b 418 744 715 647 608 744 b 100 651 278 744 203 713 l 165 540 b 383 615 239 590 313 615 b 560 467 500 615 560 560 l 560 444 l 336 444 b 57 222 158 443 57 357 b 317 -7 57 92 157 -7 b 561 90 424 -7 508 25 l 561 0 z m 350 119 b 207 229 261 119 207 163 b 360 328 207 300 256 328 l 560 328 l 560 260 b 350 119 551 179 464 119 z "},"ă":{"ha":814,"x_min":0,"x_max":0,"o":"m 403 842 b 599 1039 514 842 594 921 l 490 1039 b 403 949 488 986 451 949 b 315 1039 354 949 318 986 l 207 1039 b 403 842 211 921 292 842 z m 718 0 l 717 485 b 418 744 715 647 608 744 b 100 651 278 744 203 713 l 165 540 b 383 615 239 590 313 615 b 560 467 500 615 560 560 l 560 444 l 336 444 b 57 222 158 443 57 357 b 317 -7 57 92 157 -7 b 561 90 424 -7 508 25 l 561 0 z m 350 119 b 207 229 261 119 207 163 b 360 328 207 300 256 328 l 560 328 l 560 260 b 350 119 551 179 464 119 z "},"ắ":{"ha":814,"x_min":0,"x_max":0,"o":"m 651 1214 l 488 1282 l 340 1081 l 482 1081 z m 403 843 b 599 1036 514 843 594 921 l 490 1036 b 403 946 488 983 451 946 b 315 1036 354 946 318 983 l 207 1036 b 403 843 211 921 292 843 z m 718 0 l 717 485 b 418 744 715 647 608 744 b 100 651 278 744 203 713 l 165 540 b 383 615 239 590 313 615 b 560 467 500 615 560 560 l 560 444 l 336 444 b 57 222 158 443 57 357 b 317 -7 57 92 157 -7 b 561 90 424 -7 508 25 l 561 0 z m 350 119 b 207 229 261 119 207 163 b 360 328 207 300 256 328 l 560 328 l 560 260 b 350 119 551 179 464 119 z "},"ặ":{"ha":814,"x_min":0,"x_max":0,"o":"m 403 843 b 599 1035 514 843 594 919 l 490 1035 b 403 944 488 982 451 944 b 315 1035 354 944 318 982 l 207 1035 b 403 843 211 919 292 843 z m 718 0 l 717 485 b 418 744 715 647 608 744 b 100 651 278 744 203 713 l 165 540 b 383 615 239 590 313 615 b 560 467 500 615 560 560 l 560 444 l 336 444 b 57 222 158 443 57 357 b 317 -7 57 92 157 -7 b 561 90 424 -7 508 25 l 561 0 z m 350 119 b 207 229 261 119 207 163 b 360 328 207 300 256 328 l 560 328 l 560 260 b 350 119 551 179 464 119 z m 396 -71 b 303 -165 342 -71 303 -110 b 396 -260 303 -219 342 -260 b 489 -165 449 -260 489 -219 b 396 -71 489 -110 449 -71 z "},"ằ":{"ha":814,"x_min":0,"x_max":0,"o":"m 464 1082 l 317 1283 l 153 1215 l 322 1082 z m 403 946 b 315 1036 354 946 318 983 l 207 1036 b 403 843 211 921 292 843 b 599 1036 514 843 594 921 l 490 1036 b 403 946 488 983 451 946 z m 718 0 l 717 485 b 418 744 715 647 608 744 b 100 651 278 744 203 713 l 165 540 b 383 615 239 590 313 615 b 560 467 500 615 560 560 l 560 444 l 336 444 b 57 222 158 443 57 357 b 317 -7 57 92 157 -7 b 561 90 424 -7 508 25 l 561 0 z m 350 119 b 207 229 261 119 207 163 b 360 328 207 300 256 328 l 560 328 l 560 260 b 350 119 551 179 464 119 z "},"ẳ":{"ha":814,"x_min":0,"x_max":0,"o":"m 413 1244 b 472 1189 451 1244 472 1219 b 390 1076 472 1147 440 1115 l 467 1050 b 553 1194 521 1093 553 1135 b 414 1322 553 1268 499 1322 b 267 1208 336 1322 278 1281 l 342 1182 b 413 1244 347 1219 371 1244 z m 403 843 b 599 1036 514 843 594 921 l 490 1036 b 403 946 488 983 451 946 b 315 1036 354 946 318 983 l 207 1036 b 403 843 211 921 292 843 z m 718 0 l 717 485 b 418 744 715 647 608 744 b 100 651 278 744 203 713 l 165 540 b 383 615 239 590 313 615 b 560 467 500 615 560 560 l 560 444 l 336 444 b 57 222 158 443 57 357 b 317 -7 57 92 157 -7 b 561 90 424 -7 508 25 l 561 0 z m 350 119 b 207 229 261 119 207 163 b 360 328 207 300 256 328 l 560 328 l 560 260 b 350 119 551 179 464 119 z "},"ẵ":{"ha":814,"x_min":0,"x_max":0,"o":"m 331 1142 b 497 1067 379 1142 414 1067 b 624 1243 581 1067 624 1126 l 522 1243 b 469 1176 522 1200 504 1176 b 304 1253 422 1176 381 1253 b 176 1075 221 1253 176 1193 l 279 1075 b 331 1142 279 1118 297 1142 z m 403 946 b 315 1036 354 946 318 983 l 207 1036 b 403 843 211 921 292 843 b 599 1036 514 843 594 921 l 490 1036 b 403 946 488 983 451 946 z m 718 0 l 717 485 b 418 744 715 647 608 744 b 100 651 278 744 203 713 l 165 540 b 383 615 239 590 313 615 b 560 467 500 615 560 560 l 560 444 l 336 444 b 57 222 158 443 57 357 b 317 -7 57 92 157 -7 b 561 90 424 -7 508 25 l 561 0 z m 350 119 b 207 229 261 119 207 163 b 360 328 207 300 256 328 l 560 328 l 560 260 b 350 119 551 179 464 119 z "},"â":{"ha":814,"x_min":0,"x_max":0,"o":"m 403 971 l 489 849 l 619 849 l 476 1044 l 329 1044 l 186 849 l 317 849 z m 718 0 l 717 485 b 418 744 715 647 608 744 b 100 651 278 744 203 713 l 165 540 b 383 615 239 590 313 615 b 560 467 500 615 560 560 l 560 444 l 336 444 b 57 222 158 443 57 357 b 317 -7 57 92 157 -7 b 561 90 424 -7 508 25 l 561 0 z m 350 119 b 207 229 261 119 207 163 b 360 328 207 300 256 328 l 560 328 l 560 260 b 350 119 551 179 464 119 z "},"ấ":{"ha":814,"x_min":0,"x_max":0,"o":"m 843 1128 l 704 1196 l 557 994 l 674 994 z m 403 972 l 489 853 l 619 853 l 476 1043 l 329 1043 l 186 853 l 317 853 z m 418 744 b 100 651 278 744 203 713 l 165 540 b 383 615 239 590 313 615 b 560 467 500 615 560 560 l 560 444 l 336 444 b 57 222 158 443 57 357 b 317 -7 57 92 157 -7 b 561 90 424 -7 508 25 l 561 0 l 718 0 l 717 485 b 418 744 715 647 608 744 z m 350 119 b 207 229 261 119 207 163 b 360 328 207 300 256 328 l 560 328 l 560 260 b 350 119 551 179 464 119 z "},"ậ":{"ha":814,"x_min":0,"x_max":0,"o":"m 403 971 l 489 851 l 619 851 l 476 1043 l 329 1043 l 186 851 l 317 851 z m 718 0 l 717 485 b 418 744 715 647 608 744 b 100 651 278 744 203 713 l 165 540 b 383 615 239 590 313 615 b 560 467 500 615 560 560 l 560 444 l 336 444 b 57 222 158 443 57 357 b 317 -7 57 92 157 -7 b 561 90 424 -7 508 25 l 561 0 z m 350 119 b 207 229 261 119 207 163 b 360 328 207 300 256 328 l 560 328 l 560 260 b 350 119 551 179 464 119 z m 396 -71 b 303 -165 342 -71 303 -110 b 396 -260 303 -219 342 -260 b 489 -165 449 -260 489 -219 b 396 -71 489 -110 449 -71 z "},"ầ":{"ha":814,"x_min":0,"x_max":0,"o":"m 731 994 l 583 1196 l 444 1128 l 614 994 z m 403 972 l 489 853 l 619 853 l 476 1043 l 329 1043 l 186 853 l 317 853 z m 418 744 b 100 651 278 744 203 713 l 165 540 b 383 615 239 590 313 615 b 560 467 500 615 560 560 l 560 444 l 336 444 b 57 222 158 443 57 357 b 317 -7 57 92 157 -7 b 561 90 424 -7 508 25 l 561 0 l 718 0 l 717 485 b 418 744 715 647 608 744 z m 350 119 b 207 229 261 119 207 163 b 360 328 207 300 256 328 l 560 328 l 560 260 b 350 119 551 179 464 119 z "},"ẩ":{"ha":814,"x_min":0,"x_max":0,"o":"m 579 1172 b 639 1117 618 1172 639 1147 b 557 1004 639 1075 607 1043 l 633 978 b 719 1122 688 1021 719 1063 b 581 1250 719 1196 665 1250 b 433 1136 503 1250 444 1208 l 508 1110 b 579 1172 514 1147 538 1172 z m 403 972 l 489 853 l 619 853 l 476 1043 l 329 1043 l 186 853 l 317 853 z m 418 744 b 100 651 278 744 203 713 l 165 540 b 383 615 239 590 313 615 b 560 467 500 615 560 560 l 560 444 l 336 444 b 57 222 158 443 57 357 b 317 -7 57 92 157 -7 b 561 90 424 -7 508 25 l 561 0 l 718 0 l 717 485 b 418 744 715 647 608 744 z m 350 119 b 207 229 261 119 207 163 b 360 328 207 300 256 328 l 560 328 l 560 260 b 350 119 551 179 464 119 z "},"ẫ":{"ha":814,"x_min":0,"x_max":0,"o":"m 326 1143 b 493 1068 375 1143 410 1068 b 619 1244 576 1068 619 1126 l 518 1244 b 465 1176 518 1201 500 1176 b 300 1253 418 1176 376 1253 b 172 1075 217 1253 172 1193 l 275 1075 b 326 1143 275 1118 293 1143 z m 329 1043 l 186 853 l 317 853 l 403 972 l 489 853 l 619 853 l 476 1043 z m 718 0 l 717 485 b 418 744 715 647 608 744 b 100 651 278 744 203 713 l 165 540 b 383 615 239 590 313 615 b 560 467 500 615 560 560 l 560 444 l 336 444 b 57 222 158 443 57 357 b 317 -7 57 92 157 -7 b 561 90 424 -7 508 25 l 561 0 z m 350 119 b 207 229 261 119 207 163 b 360 328 207 300 256 328 l 560 328 l 560 260 b 350 119 551 179 464 119 z "},"ȁ":{"ha":814,"x_min":0,"x_max":0,"o":"m 364 846 l 249 1060 l 113 999 l 240 846 z m 593 846 l 478 1060 l 342 999 l 469 846 z m 718 0 l 717 485 b 418 744 715 647 608 744 b 100 651 278 744 203 713 l 165 540 b 383 615 239 590 313 615 b 560 467 500 615 560 560 l 560 444 l 336 444 b 57 222 158 443 57 357 b 317 -7 57 92 157 -7 b 561 90 424 -7 508 25 l 561 0 z m 350 119 b 207 229 261 119 207 163 b 360 328 207 300 256 328 l 560 328 l 560 260 b 350 119 551 179 464 119 z "},"ä":{"ha":814,"x_min":0,"x_max":0,"o":"m 281 863 b 365 950 328 863 365 901 b 281 1038 365 1001 328 1038 b 196 950 232 1038 196 1001 b 281 863 196 901 232 863 z m 526 863 b 611 950 574 863 611 901 b 526 1038 611 1001 574 1038 b 442 950 478 1038 442 1001 b 526 863 442 901 478 863 z m 718 0 l 717 485 b 418 744 715 647 608 744 b 100 651 278 744 203 713 l 165 540 b 383 615 239 590 313 615 b 560 467 500 615 560 560 l 560 444 l 336 444 b 57 222 158 443 57 357 b 317 -7 57 92 157 -7 b 561 90 424 -7 508 25 l 561 0 z m 350 119 b 207 229 261 119 207 163 b 360 328 207 300 256 328 l 560 328 l 560 260 b 350 119 551 179 464 119 z "},"ạ":{"ha":814,"x_min":0,"x_max":0,"o":"m 718 0 l 717 485 b 418 744 715 647 608 744 b 100 651 278 744 203 713 l 165 540 b 383 615 239 590 313 615 b 560 467 500 615 560 560 l 560 444 l 336 444 b 57 222 158 443 57 357 b 317 -7 57 92 157 -7 b 561 90 424 -7 508 25 l 561 0 z m 350 119 b 207 229 261 119 207 163 b 360 328 207 300 256 328 l 560 328 l 560 260 b 350 119 551 179 464 119 z m 396 -71 b 303 -165 342 -71 303 -110 b 396 -260 303 -219 342 -260 b 489 -165 449 -260 489 -219 b 396 -71 489 -110 449 -71 z "},"à":{"ha":814,"x_min":0,"x_max":0,"o":"m 489 846 l 342 1051 l 178 982 l 347 846 z m 718 0 l 717 485 b 418 744 715 647 608 744 b 100 651 278 744 203 713 l 165 540 b 383 615 239 590 313 615 b 560 467 500 615 560 560 l 560 444 l 336 444 b 57 222 158 443 57 357 b 317 -7 57 92 157 -7 b 561 90 424 -7 508 25 l 561 0 z m 350 119 b 207 229 261 119 207 163 b 360 328 207 300 256 328 l 560 328 l 560 260 b 350 119 551 179 464 119 z "},"ả":{"ha":814,"x_min":0,"x_max":0,"o":"m 399 997 b 458 942 438 997 458 972 b 376 829 458 900 426 868 l 453 803 b 539 947 507 847 539 888 b 400 1076 539 1022 485 1076 b 253 961 322 1076 264 1035 l 328 936 b 399 997 333 972 357 997 z m 718 0 l 717 485 b 418 744 715 647 608 744 b 100 651 278 744 203 713 l 165 540 b 383 615 239 590 313 615 b 560 467 500 615 560 560 l 560 444 l 336 444 b 57 222 158 443 57 357 b 317 -7 57 92 157 -7 b 561 90 424 -7 508 25 l 561 0 z m 350 119 b 207 229 261 119 207 163 b 360 328 207 300 256 328 l 560 328 l 560 260 b 350 119 551 179 464 119 z "},"ȃ":{"ha":814,"x_min":0,"x_max":0,"o":"m 403 935 b 490 843 451 935 488 897 l 599 843 b 403 1040 594 963 514 1040 b 207 843 292 1040 211 963 l 315 843 b 403 935 318 897 354 935 z m 718 0 l 717 485 b 418 744 715 647 608 744 b 100 651 278 744 203 713 l 165 540 b 383 615 239 590 313 615 b 560 467 500 615 560 560 l 560 444 l 336 444 b 57 222 158 443 57 357 b 317 -7 57 92 157 -7 b 561 90 424 -7 508 25 l 561 0 z m 350 119 b 207 229 261 119 207 163 b 360 328 207 300 256 328 l 560 328 l 560 260 b 350 119 551 179 464 119 z "},"ā":{"ha":814,"x_min":0,"x_max":0,"o":"m 581 1006 l 226 1006 l 226 890 l 581 890 z m 718 0 l 717 485 b 418 744 715 647 608 744 b 100 651 278 744 203 713 l 165 540 b 383 615 239 590 313 615 b 560 467 500 615 560 560 l 560 444 l 336 444 b 57 222 158 443 57 357 b 317 -7 57 92 157 -7 b 561 90 424 -7 508 25 l 561 0 z m 350 119 b 207 229 261 119 207 163 b 360 328 207 300 256 328 l 560 328 l 560 260 b 350 119 551 179 464 119 z "},"ą":{"ha":819,"x_min":0,"x_max":0,"o":"m 671 0 l 718 0 l 718 485 b 418 744 715 647 608 744 b 100 651 276 744 203 713 l 165 540 b 382 615 239 590 313 615 b 560 467 500 615 558 560 l 560 444 l 335 444 b 57 222 158 443 57 357 b 317 -7 57 92 156 -7 b 561 90 424 -7 508 25 l 561 0 l 590 0 b 515 -171 542 -64 515 -119 b 625 -279 515 -247 571 -279 b 757 -200 676 -279 725 -250 l 711 -146 b 643 -190 690 -172 668 -190 b 601 -146 618 -190 601 -174 b 671 0 601 -114 622 -67 z m 360 328 l 561 328 l 561 258 b 350 119 557 186 461 119 b 207 229 261 119 207 163 b 360 328 207 300 254 328 z "},"å":{"ha":814,"x_min":0,"x_max":0,"o":"m 403 790 b 567 951 493 790 567 863 b 403 1113 567 1039 493 1113 b 239 951 313 1113 239 1039 b 403 790 239 863 313 790 z m 403 1040 b 497 951 454 1040 497 1000 b 403 863 497 903 454 863 b 308 951 351 863 308 903 b 403 1040 308 1000 351 1040 z m 718 0 l 717 485 b 418 744 715 647 608 744 b 100 651 278 744 203 713 l 165 540 b 383 615 239 590 313 615 b 560 467 500 615 560 560 l 560 444 l 336 444 b 57 222 158 443 57 357 b 317 -7 57 92 157 -7 b 561 90 424 -7 508 25 l 561 0 z m 350 119 b 207 229 261 119 207 163 b 360 328 207 300 256 328 l 560 328 l 560 260 b 350 119 551 179 464 119 z "},"ǻ":{"ha":814,"x_min":0,"x_max":0,"o":"m 635 1303 l 471 1372 l 324 1167 l 465 1167 z m 403 790 b 567 951 493 790 567 863 b 403 1113 567 1039 493 1113 b 239 951 313 1113 239 1039 b 403 790 239 863 313 790 z m 403 1040 b 497 951 454 1040 497 1000 b 403 863 497 903 454 863 b 308 951 351 863 308 903 b 403 1040 308 1000 351 1040 z m 718 0 l 717 485 b 418 744 715 647 608 744 b 100 651 278 744 203 713 l 165 540 b 383 615 239 590 313 615 b 560 467 500 615 560 560 l 560 444 l 336 444 b 57 222 158 443 57 357 b 317 -7 57 92 157 -7 b 561 90 424 -7 508 25 l 561 0 z m 350 119 b 207 229 261 119 207 163 b 360 328 207 300 256 328 l 560 328 l 560 260 b 350 119 551 179 464 119 z "},"ã":{"ha":814,"x_min":0,"x_max":0,"o":"m 333 939 b 500 863 382 939 417 863 b 626 1044 583 863 626 924 l 525 1044 b 472 976 525 1000 507 976 b 307 1053 425 976 383 1053 b 179 871 224 1053 179 992 l 282 871 b 333 939 282 915 300 939 z m 718 0 l 717 485 b 418 744 715 647 608 744 b 100 651 278 744 203 713 l 165 540 b 383 615 239 590 313 615 b 560 467 500 615 560 560 l 560 444 l 336 444 b 57 222 158 443 57 357 b 317 -7 57 92 157 -7 b 561 90 424 -7 508 25 l 561 0 z m 350 119 b 207 229 261 119 207 163 b 360 328 207 300 256 328 l 560 328 l 560 260 b 350 119 551 179 464 119 z "},"æ":{"ha":1354,"x_min":0,"x_max":0,"o":"m 724 314 l 724 335 l 1307 335 b 940 744 1315 581 1168 744 b 678 638 833 744 742 707 b 418 744 628 707 538 744 b 100 656 317 744 210 715 l 140 540 b 385 615 225 590 308 615 b 563 468 499 615 563 563 l 563 425 l 338 425 b 57 215 158 424 57 347 b 315 -7 57 82 160 -7 b 631 169 464 -7 572 53 b 944 -6 689 57 801 -6 b 1251 119 1068 -6 1175 38 l 1165 210 b 957 124 1111 154 1038 124 b 724 314 833 124 724 213 z m 1147 421 l 724 421 b 942 628 739 546 826 628 b 1147 421 1060 628 1143 544 z m 368 339 l 563 339 l 564 235 b 351 106 521 149 450 106 b 207 229 264 106 207 156 b 368 339 207 300 265 339 z "},"ǽ":{"ha":1354,"x_min":0,"x_max":0,"o":"m 746 1051 l 599 846 l 740 846 l 910 982 z m 724 314 l 724 335 l 1307 335 b 940 744 1315 581 1168 744 b 678 638 833 744 742 707 b 418 744 628 707 538 744 b 100 656 317 744 210 715 l 140 540 b 385 615 225 590 308 615 b 563 468 499 615 563 563 l 563 425 l 338 425 b 57 215 158 424 57 347 b 315 -7 57 82 160 -7 b 631 169 464 -7 572 53 b 944 -6 689 57 801 -6 b 1251 119 1068 -6 1175 38 l 1165 210 b 957 124 1111 154 1038 124 b 724 314 833 124 724 213 z m 1147 421 l 724 421 b 942 628 739 546 826 628 b 1147 421 1060 628 1143 544 z m 368 339 l 563 339 l 564 235 b 351 106 521 149 450 106 b 207 229 264 106 207 156 b 368 339 207 300 265 339 z "},"b":{"ha":944,"x_min":0,"x_max":0,"o":"m 543 744 b 285 611 428 744 339 697 l 285 1031 l 125 1031 l 125 0 l 285 0 l 285 128 b 546 -6 339 42 428 -6 b 896 367 757 -6 896 146 b 543 744 896 592 753 744 z m 510 131 b 285 372 378 131 285 229 b 510 611 285 511 378 611 b 735 372 642 611 735 510 b 510 131 735 231 642 131 z "},"c":{"ha":783,"x_min":0,"x_max":0,"o":"m 639 521 l 726 624 b 421 744 658 701 554 744 b 49 368 201 744 49 592 b 421 -6 49 146 201 -6 b 735 132 561 -6 668 44 l 646 221 b 428 132 596 163 521 132 b 208 368 300 132 208 228 b 428 604 208 508 300 604 b 639 521 517 606 588 574 z "},"ć":{"ha":783,"x_min":0,"x_max":0,"o":"m 476 1051 l 329 846 l 471 846 l 640 982 z m 639 521 l 726 624 b 421 744 658 701 554 744 b 49 368 201 744 49 592 b 421 -6 49 146 201 -6 b 735 132 561 -6 668 44 l 646 221 b 428 132 596 163 521 132 b 208 368 300 132 208 228 b 428 604 208 508 300 604 b 639 521 517 606 588 574 z "},"č":{"ha":783,"x_min":0,"x_max":0,"o":"m 189 1044 l 339 836 l 497 836 l 647 1044 l 506 1044 l 418 915 l 331 1044 z m 639 521 l 726 624 b 421 744 658 701 554 744 b 49 368 201 744 49 592 b 421 -6 49 146 201 -6 b 735 132 561 -6 668 44 l 646 221 b 428 132 596 163 521 132 b 208 368 300 132 208 228 b 428 604 208 508 300 604 b 639 521 517 606 588 574 z "},"ç":{"ha":783,"x_min":0,"x_max":0,"o":"m 735 132 l 646 221 b 428 132 596 163 521 132 b 208 368 300 132 208 228 b 428 604 208 508 300 604 b 639 521 517 606 588 574 l 726 624 b 421 744 658 701 554 744 b 49 368 201 744 49 592 b 376 -3 49 161 181 15 l 326 -122 b 375 -115 342 -118 360 -115 b 442 -168 421 -115 442 -142 b 378 -225 442 -196 418 -225 b 297 -197 350 -225 321 -215 l 267 -272 b 389 -311 299 -296 343 -311 b 536 -179 471 -311 536 -260 b 439 -69 536 -118 497 -81 l 471 -3 b 735 132 586 7 676 56 z "},"ḉ":{"ha":783,"x_min":0,"x_max":0,"o":"m 654 982 l 490 1051 l 343 846 l 485 846 z m 735 132 l 646 221 b 428 132 596 163 521 132 b 208 368 300 132 208 228 b 428 604 208 508 300 604 b 639 521 517 606 588 574 l 726 624 b 421 744 658 701 554 744 b 49 368 201 744 49 592 b 356 -1 49 168 171 26 l 297 -137 b 346 -131 313 -133 331 -131 b 413 -183 392 -131 413 -157 b 349 -240 413 -211 389 -240 b 268 -212 321 -240 292 -231 l 238 -287 b 360 -326 269 -311 314 -326 b 507 -194 442 -326 507 -275 b 410 -85 507 -133 468 -96 l 447 -6 b 735 132 575 1 672 50 z "},"ĉ":{"ha":783,"x_min":0,"x_max":0,"o":"m 349 1044 l 206 849 l 336 849 l 422 971 l 508 849 l 639 849 l 496 1044 z m 639 521 l 726 624 b 421 744 658 701 554 744 b 49 368 201 744 49 592 b 421 -6 49 146 201 -6 b 735 132 561 -6 668 44 l 646 221 b 428 132 596 163 521 132 b 208 368 300 132 208 228 b 428 604 208 508 300 604 b 639 521 517 606 588 574 z "},"ċ":{"ha":783,"x_min":0,"x_max":0,"o":"m 422 1046 b 329 950 369 1046 329 1006 b 422 856 329 896 369 856 b 515 950 475 856 515 896 b 422 1046 515 1006 475 1046 z m 639 521 l 726 624 b 421 744 658 701 554 744 b 49 368 201 744 49 592 b 421 -6 49 146 201 -6 b 735 132 561 -6 668 44 l 646 221 b 428 132 596 163 521 132 b 208 368 300 132 208 228 b 428 604 208 508 300 604 b 639 521 517 606 588 574 z "},"d":{"ha":947,"x_min":0,"x_max":0,"o":"m 663 1031 l 663 611 b 400 746 608 697 519 746 b 49 372 192 746 49 594 b 403 -7 49 147 190 -7 b 663 126 521 -7 610 40 l 663 0 l 822 0 l 822 1031 z m 436 126 b 208 367 301 126 210 226 b 436 610 210 508 303 610 b 663 367 569 610 663 510 b 436 126 663 226 569 126 z "},"ð":{"ha":819,"x_min":0,"x_max":0,"o":"m 563 839 l 699 883 l 674 967 l 489 906 b 276 1038 426 957 356 1001 l 171 964 b 342 857 232 935 289 897 l 182 804 l 208 721 l 419 790 b 613 503 513 703 582 601 b 365 615 568 571 471 615 b 50 311 174 615 50 496 b 392 -7 50 118 185 -7 b 772 368 622 -7 772 140 b 563 839 772 538 694 704 z m 401 135 b 203 321 282 135 203 207 b 401 499 203 429 281 499 b 603 314 524 499 603 426 b 401 135 603 206 524 135 z "},"ď":{"ha":1047,"x_min":0,"x_max":0,"o":"m 663 611 b 400 746 608 697 519 746 b 49 372 192 746 49 594 b 403 -7 49 147 190 -7 b 663 126 521 -7 610 40 l 663 0 l 822 0 l 822 1031 l 663 1031 z m 925 1031 l 925 750 l 1033 750 l 1075 1031 z m 436 126 b 208 367 301 126 210 226 b 436 610 210 508 303 610 b 663 367 569 610 663 510 b 436 126 663 226 569 126 z "},"đ":{"ha":946,"x_min":0,"x_max":0,"o":"m 918 947 l 822 947 l 822 1031 l 663 1031 l 663 947 l 525 947 l 525 856 l 663 856 l 663 611 b 400 746 608 697 519 746 b 49 372 192 746 49 594 b 403 -7 49 147 190 -7 b 663 126 521 -7 610 40 l 663 0 l 822 0 l 822 856 l 918 856 z m 436 126 b 208 367 301 126 210 226 b 436 610 210 508 303 610 b 663 367 569 610 663 510 b 436 126 663 226 569 126 z "},"ḍ":{"ha":947,"x_min":0,"x_max":0,"o":"m 663 1031 l 663 611 b 400 746 608 697 519 746 b 49 372 192 746 49 594 b 403 -7 49 147 190 -7 b 663 126 521 -7 610 40 l 663 0 l 822 0 l 822 1031 z m 436 126 b 208 367 301 126 210 226 b 436 610 210 508 303 610 b 663 367 569 610 663 510 b 436 126 663 226 569 126 z m 496 -69 b 403 -165 443 -69 403 -110 b 496 -260 403 -219 443 -260 b 589 -165 549 -260 589 -219 b 496 -69 589 -110 549 -69 z "},"ḏ":{"ha":947,"x_min":0,"x_max":0,"o":"m 663 1031 l 663 611 b 400 746 608 697 519 746 b 49 372 192 746 49 594 b 403 -7 49 147 190 -7 b 663 126 521 -7 610 40 l 663 0 l 822 0 l 822 1031 z m 436 126 b 208 367 301 126 210 226 b 436 610 210 508 303 610 b 663 367 569 610 663 510 b 436 126 663 226 569 126 z m 318 -203 l 672 -203 l 672 -87 l 318 -87 z "},"ǆ":{"ha":1693,"x_min":0,"x_max":0,"o":"m 1401 836 l 1551 1044 l 1410 1044 l 1322 915 l 1235 1044 l 1093 1044 l 1243 836 z m 663 611 b 400 746 608 697 519 746 b 49 372 192 746 49 594 b 403 -7 49 147 190 -7 b 663 126 521 -7 610 40 l 663 0 l 822 0 l 822 1031 l 663 1031 z m 1207 131 l 1629 631 l 1629 738 l 1022 739 l 1022 608 l 1432 608 l 1010 108 l 1010 0 l 1642 -1 l 1642 129 z m 436 126 b 208 367 301 126 210 226 b 436 610 210 508 303 610 b 663 367 569 610 663 510 b 436 126 663 226 569 126 z "},"e":{"ha":817,"x_min":0,"x_max":0,"o":"m 422 744 b 49 368 203 743 49 592 b 426 -6 49 146 199 -6 b 732 119 554 -6 660 40 l 647 210 b 439 124 593 154 519 124 b 210 308 322 124 235 194 l 768 308 b 422 744 788 575 682 744 z m 207 425 b 424 617 224 543 307 617 b 629 425 544 617 624 544 z "},"é":{"ha":817,"x_min":0,"x_max":0,"o":"m 633 982 l 469 1051 l 322 846 l 464 846 z m 422 744 b 49 368 203 743 49 592 b 426 -6 49 146 199 -6 b 732 119 554 -6 660 40 l 647 210 b 439 124 593 154 519 124 b 210 308 322 124 235 194 l 768 308 b 422 744 788 575 682 744 z m 207 425 b 424 617 224 543 307 617 b 629 425 544 617 624 544 z "},"ĕ":{"ha":817,"x_min":0,"x_max":0,"o":"m 415 842 b 611 1039 526 842 607 921 l 503 1039 b 415 949 500 986 464 949 b 328 1039 367 949 331 986 l 219 1039 b 415 842 224 921 304 842 z m 422 744 b 49 368 203 743 49 592 b 426 -6 49 146 199 -6 b 732 119 554 -6 660 40 l 647 210 b 439 124 593 154 519 124 b 210 308 322 124 235 194 l 768 308 b 422 744 788 575 682 744 z m 207 425 b 424 617 224 543 307 617 b 629 425 544 617 624 544 z "},"ě":{"ha":817,"x_min":0,"x_max":0,"o":"m 490 836 l 640 1044 l 499 1044 l 411 915 l 324 1044 l 182 1044 l 332 836 z m 422 744 b 49 368 203 743 49 592 b 426 -6 49 146 199 -6 b 732 119 554 -6 660 40 l 647 210 b 439 124 593 154 519 124 b 210 308 322 124 235 194 l 768 308 b 422 744 788 575 682 744 z m 207 425 b 424 617 224 543 307 617 b 629 425 544 617 624 544 z "},"ḝ":{"ha":817,"x_min":0,"x_max":0,"o":"m 415 843 b 611 1040 526 843 607 922 l 503 1040 b 415 950 500 988 464 950 b 328 1040 367 950 331 988 l 219 1040 b 415 843 224 922 304 843 z m 422 744 b 49 368 203 743 49 592 b 371 -3 49 164 175 19 l 314 -137 b 363 -131 329 -133 347 -131 b 429 -183 408 -131 429 -157 b 365 -240 429 -211 406 -240 b 285 -212 338 -240 308 -231 l 254 -287 b 376 -326 286 -311 331 -326 b 524 -194 458 -326 524 -275 b 426 -85 524 -133 485 -96 l 465 -4 b 732 119 575 4 667 49 l 647 210 b 439 124 593 154 519 124 b 210 308 322 124 235 194 l 768 308 b 422 744 788 575 682 744 z m 207 425 b 424 617 224 543 307 617 b 629 425 544 617 624 544 z "},"ê":{"ha":817,"x_min":0,"x_max":0,"o":"m 415 971 l 501 849 l 632 849 l 489 1044 l 342 1044 l 199 849 l 329 849 z m 422 744 b 49 368 203 743 49 592 b 426 -6 49 146 199 -6 b 732 119 554 -6 660 40 l 647 210 b 439 124 593 154 519 124 b 210 308 322 124 235 194 l 768 308 b 422 744 788 575 682 744 z m 207 425 b 424 617 224 543 307 617 b 629 425 544 617 624 544 z "},"ế":{"ha":817,"x_min":0,"x_max":0,"o":"m 856 1128 l 717 1196 l 569 994 l 686 994 z m 415 972 l 501 853 l 632 853 l 489 1043 l 342 1043 l 199 853 l 329 853 z m 422 744 b 49 368 203 743 49 592 b 426 -6 49 146 199 -6 b 732 119 554 -6 660 40 l 647 210 b 439 124 593 154 519 124 b 210 308 322 124 235 194 l 768 308 b 422 744 788 575 682 744 z m 207 425 b 424 617 224 543 307 617 b 629 425 544 617 624 544 z "},"ệ":{"ha":817,"x_min":0,"x_max":0,"o":"m 415 971 l 501 851 l 632 851 l 489 1043 l 342 1043 l 199 851 l 329 851 z m 422 744 b 49 368 203 743 49 592 b 426 -6 49 146 199 -6 b 732 119 554 -6 660 40 l 647 210 b 439 124 593 154 519 124 b 210 308 322 124 235 194 l 768 308 b 422 744 788 575 682 744 z m 207 425 b 424 617 224 543 307 617 b 629 425 544 617 624 544 z m 418 -71 b 325 -165 364 -71 325 -110 b 418 -260 325 -219 364 -260 b 511 -165 471 -260 511 -219 b 418 -71 511 -110 471 -71 z "},"ề":{"ha":817,"x_min":0,"x_max":0,"o":"m 743 994 l 596 1196 l 457 1128 l 626 994 z m 415 972 l 501 853 l 632 853 l 489 1043 l 342 1043 l 199 853 l 329 853 z m 422 744 b 49 368 203 743 49 592 b 426 -6 49 146 199 -6 b 732 119 554 -6 660 40 l 647 210 b 439 124 593 154 519 124 b 210 308 322 124 235 194 l 768 308 b 422 744 788 575 682 744 z m 207 425 b 424 617 224 543 307 617 b 629 425 544 617 624 544 z "},"ể":{"ha":817,"x_min":0,"x_max":0,"o":"m 592 1172 b 651 1117 631 1172 651 1147 b 569 1004 651 1075 619 1043 l 646 978 b 732 1122 700 1021 732 1063 b 593 1250 732 1196 678 1250 b 446 1136 515 1250 457 1208 l 521 1110 b 592 1172 526 1147 550 1172 z m 415 972 l 501 853 l 632 853 l 489 1043 l 342 1043 l 199 853 l 329 853 z m 422 744 b 49 368 203 743 49 592 b 426 -6 49 146 199 -6 b 732 119 554 -6 660 40 l 647 210 b 439 124 593 154 519 124 b 210 308 322 124 235 194 l 768 308 b 422 744 788 575 682 744 z m 207 425 b 424 617 224 543 307 617 b 629 425 544 617 624 544 z "},"ễ":{"ha":817,"x_min":0,"x_max":0,"o":"m 339 1143 b 506 1068 388 1143 422 1068 b 632 1244 589 1068 632 1126 l 531 1244 b 478 1176 531 1201 513 1176 b 313 1253 431 1176 389 1253 b 185 1075 229 1253 185 1193 l 288 1075 b 339 1143 288 1118 306 1143 z m 342 1043 l 199 853 l 329 853 l 415 972 l 501 853 l 632 853 l 489 1043 z m 422 744 b 49 368 203 743 49 592 b 426 -6 49 146 199 -6 b 732 119 554 -6 660 40 l 647 210 b 439 124 593 154 519 124 b 210 308 322 124 235 194 l 768 308 b 422 744 788 575 682 744 z m 207 425 b 424 617 224 543 307 617 b 629 425 544 617 624 544 z "},"ȅ":{"ha":817,"x_min":0,"x_max":0,"o":"m 376 846 l 261 1060 l 125 999 l 253 846 z m 606 846 l 490 1060 l 354 999 l 482 846 z m 422 744 b 49 368 203 743 49 592 b 426 -6 49 146 199 -6 b 732 119 554 -6 660 40 l 647 210 b 439 124 593 154 519 124 b 210 308 322 124 235 194 l 768 308 b 422 744 788 575 682 744 z m 207 425 b 424 617 224 543 307 617 b 629 425 544 617 624 544 z "},"ë":{"ha":817,"x_min":0,"x_max":0,"o":"m 293 863 b 378 950 340 863 378 901 b 293 1038 378 1001 340 1038 b 208 950 244 1038 208 1001 b 293 863 208 901 244 863 z m 539 863 b 624 950 586 863 624 901 b 539 1038 624 1001 586 1038 b 454 950 490 1038 454 1001 b 539 863 454 901 490 863 z m 422 744 b 49 368 203 743 49 592 b 426 -6 49 146 199 -6 b 732 119 554 -6 660 40 l 647 210 b 439 124 593 154 519 124 b 210 308 322 124 235 194 l 768 308 b 422 744 788 575 682 744 z m 207 425 b 424 617 224 543 307 617 b 629 425 544 617 624 544 z "},"ė":{"ha":817,"x_min":0,"x_max":0,"o":"m 415 856 b 508 950 468 856 508 896 b 415 1046 508 1006 468 1046 b 322 950 363 1046 322 1006 b 415 856 322 896 363 856 z m 422 744 b 49 368 203 743 49 592 b 426 -6 49 146 199 -6 b 732 119 554 -6 660 40 l 647 210 b 439 124 593 154 519 124 b 210 308 322 124 235 194 l 768 308 b 422 744 788 575 682 744 z m 207 425 b 424 617 224 543 307 617 b 629 425 544 617 624 544 z "},"ẹ":{"ha":817,"x_min":0,"x_max":0,"o":"m 422 744 b 49 368 203 743 49 592 b 426 -6 49 146 199 -6 b 732 119 554 -6 660 40 l 647 210 b 439 124 593 154 519 124 b 210 308 322 124 235 194 l 768 308 b 422 744 788 575 682 744 z m 207 425 b 424 617 224 543 307 617 b 629 425 544 617 624 544 z m 418 -71 b 325 -165 364 -71 325 -110 b 418 -260 325 -219 364 -260 b 511 -165 471 -260 511 -219 b 418 -71 511 -110 471 -71 z "},"è":{"ha":817,"x_min":0,"x_max":0,"o":"m 501 846 l 354 1051 l 190 982 l 360 846 z m 422 744 b 49 368 203 743 49 592 b 426 -6 49 146 199 -6 b 732 119 554 -6 660 40 l 647 210 b 439 124 593 154 519 124 b 210 308 322 124 235 194 l 768 308 b 422 744 788 575 682 744 z m 207 425 b 424 617 224 543 307 617 b 629 425 544 617 624 544 z "},"ẻ":{"ha":817,"x_min":0,"x_max":0,"o":"m 411 997 b 471 942 450 997 471 972 b 389 829 471 900 439 868 l 465 803 b 551 947 519 847 551 888 b 413 1076 551 1022 497 1076 b 265 961 335 1076 276 1035 l 340 936 b 411 997 346 972 369 997 z m 422 744 b 49 368 203 743 49 592 b 426 -6 49 146 199 -6 b 732 119 554 -6 660 40 l 647 210 b 439 124 593 154 519 124 b 210 308 322 124 235 194 l 768 308 b 422 744 788 575 682 744 z m 207 425 b 424 617 224 543 307 617 b 629 425 544 617 624 544 z "},"ȇ":{"ha":817,"x_min":0,"x_max":0,"o":"m 415 935 b 503 843 464 935 500 897 l 611 843 b 415 1040 607 963 526 1040 b 219 843 304 1040 224 963 l 328 843 b 415 935 331 897 367 935 z m 422 744 b 49 368 203 743 49 592 b 426 -6 49 146 199 -6 b 732 119 554 -6 660 40 l 647 210 b 439 124 593 154 519 124 b 210 308 322 124 235 194 l 768 308 b 422 744 788 575 682 744 z m 207 425 b 424 617 224 543 307 617 b 629 425 544 617 624 544 z "},"ē":{"ha":817,"x_min":0,"x_max":0,"o":"m 593 1006 l 239 1006 l 239 890 l 593 890 z m 422 744 b 49 368 203 743 49 592 b 426 -6 49 146 199 -6 b 732 119 554 -6 660 40 l 647 210 b 439 124 593 154 519 124 b 210 308 322 124 235 194 l 768 308 b 422 744 788 575 682 744 z m 207 425 b 424 617 224 543 307 617 b 629 425 544 617 624 544 z "},"ḗ":{"ha":817,"x_min":0,"x_max":0,"o":"m 647 1213 l 483 1282 l 336 1076 l 478 1076 z m 592 979 l 238 979 l 238 864 l 592 864 z m 422 744 b 49 368 203 743 49 592 b 426 -6 49 146 199 -6 b 732 119 554 -6 660 40 l 647 210 b 439 124 593 154 519 124 b 210 308 322 124 235 194 l 768 308 b 422 744 788 575 682 744 z m 207 425 b 424 617 224 543 307 617 b 629 425 544 617 624 544 z "},"ḕ":{"ha":817,"x_min":0,"x_max":0,"o":"m 494 1076 l 347 1282 l 183 1213 l 353 1076 z m 238 864 l 592 864 l 592 979 l 238 979 z m 422 744 b 49 368 203 743 49 592 b 426 -6 49 146 199 -6 b 732 119 554 -6 660 40 l 647 210 b 439 124 593 154 519 124 b 210 308 322 124 235 194 l 768 308 b 422 744 788 575 682 744 z m 207 425 b 424 617 224 543 307 617 b 629 425 544 617 624 544 z "},"ę":{"ha":817,"x_min":0,"x_max":0,"o":"m 732 119 l 647 210 b 439 122 593 154 517 122 b 210 308 314 122 235 197 l 769 308 b 422 743 788 581 668 750 b 49 371 181 738 49 581 b 419 -6 49 146 201 -6 b 589 39 483 -6 535 7 b 501 -169 532 -37 501 -110 b 611 -279 501 -249 557 -279 b 742 -200 665 -279 711 -247 l 696 -146 b 629 -190 678 -169 656 -190 b 588 -143 604 -190 588 -175 b 732 119 588 -81 649 21 z m 629 425 l 207 425 b 425 617 218 539 306 617 b 629 425 544 617 624 539 z "},"ẽ":{"ha":817,"x_min":0,"x_max":0,"o":"m 346 939 b 513 863 394 939 429 863 b 639 1044 596 863 639 924 l 538 1044 b 485 976 538 1000 519 976 b 319 1053 438 976 396 1053 b 192 871 236 1053 192 992 l 294 871 b 346 939 294 915 313 939 z m 422 744 b 49 368 203 743 49 592 b 426 -6 49 146 199 -6 b 732 119 554 -6 660 40 l 647 210 b 439 124 593 154 519 124 b 210 308 322 124 235 194 l 768 308 b 422 744 788 575 682 744 z m 207 425 b 424 617 224 543 307 617 b 629 425 544 617 624 544 z "},"ə":{"ha":817,"x_min":0,"x_max":0,"o":"m 390 744 b 85 619 263 744 157 699 l 169 529 b 378 615 224 585 297 615 b 607 431 494 615 582 544 l 49 431 b 394 -6 29 164 135 -6 b 768 371 614 -4 768 147 b 390 744 768 593 618 744 z m 393 122 b 188 314 272 122 193 194 l 610 314 b 393 122 593 196 510 122 z "},"f":{"ha":476,"x_min":0,"x_max":0,"o":"m 407 899 b 508 864 440 899 478 886 l 569 986 b 403 1038 522 1021 463 1038 b 149 783 275 1038 149 956 l 149 711 l 51 711 l 51 592 l 149 592 l 149 0 l 307 0 l 307 592 l 500 592 l 500 711 l 307 711 l 307 799 b 407 899 307 868 353 899 z "},"g":{"ha":889,"x_min":0,"x_max":0,"o":"m 626 739 l 626 619 b 376 744 575 700 490 746 b 49 393 181 743 49 601 b 382 36 49 181 182 36 b 626 161 493 36 576 81 l 626 68 b 394 -142 626 -60 535 -142 b 163 -61 304 -142 232 -112 l 94 -176 b 401 -274 185 -237 286 -274 b 785 72 633 -274 785 -140 l 785 739 z m 414 161 b 199 389 286 161 200 256 b 414 615 200 521 288 615 b 626 389 539 615 626 522 b 414 161 626 256 539 161 z "},"ğ":{"ha":889,"x_min":0,"x_max":0,"o":"m 444 842 b 640 1039 556 842 636 921 l 532 1039 b 444 949 529 986 493 949 b 357 1039 396 949 360 986 l 249 1039 b 444 842 253 921 333 842 z m 626 739 l 626 619 b 376 744 575 700 490 746 b 49 393 181 743 49 601 b 382 36 49 181 182 36 b 626 161 493 36 576 81 l 626 68 b 394 -142 626 -60 535 -142 b 163 -61 304 -142 232 -112 l 94 -176 b 401 -274 185 -237 286 -274 b 785 72 633 -274 785 -140 l 785 739 z m 414 161 b 199 389 286 161 200 256 b 414 615 200 521 288 615 b 626 389 539 615 626 522 b 414 161 626 256 539 161 z "},"ǧ":{"ha":889,"x_min":0,"x_max":0,"o":"m 524 840 l 674 1049 l 532 1049 l 444 919 l 357 1049 l 215 1049 l 365 840 z m 626 739 l 626 619 b 376 744 575 700 490 746 b 49 393 181 743 49 601 b 382 36 49 181 182 36 b 626 161 493 36 576 81 l 626 68 b 394 -142 626 -60 535 -142 b 163 -61 304 -142 232 -112 l 94 -176 b 401 -274 185 -237 286 -274 b 785 72 633 -274 785 -140 l 785 739 z m 414 161 b 199 389 286 161 200 256 b 414 615 200 521 288 615 b 626 389 539 615 626 522 b 414 161 626 256 539 161 z "},"ĝ":{"ha":889,"x_min":0,"x_max":0,"o":"m 444 971 l 531 849 l 661 849 l 518 1044 l 371 1044 l 228 849 l 358 849 z m 626 739 l 626 619 b 376 744 575 700 490 746 b 49 393 181 743 49 601 b 382 36 49 181 182 36 b 626 161 493 36 576 81 l 626 68 b 394 -142 626 -60 535 -142 b 163 -61 304 -142 232 -112 l 94 -176 b 401 -274 185 -237 286 -274 b 785 72 633 -274 785 -140 l 785 739 z m 414 161 b 199 389 286 161 200 256 b 414 615 200 521 288 615 b 626 389 539 615 626 522 b 414 161 626 256 539 161 z "},"ģ":{"ha":889,"x_min":0,"x_max":0,"o":"m 444 806 b 532 893 496 806 532 843 b 494 963 532 921 519 947 l 547 1082 l 465 1082 l 385 964 b 360 892 369 942 360 919 b 444 806 360 838 400 806 z m 626 739 l 626 619 b 376 744 575 700 490 746 b 49 393 181 743 49 601 b 382 36 49 181 182 36 b 626 161 493 36 576 81 l 626 68 b 394 -142 626 -60 535 -142 b 163 -61 304 -142 232 -112 l 94 -176 b 401 -274 185 -237 286 -274 b 785 72 633 -274 785 -140 l 785 739 z m 414 161 b 199 389 286 161 200 256 b 414 615 200 521 288 615 b 626 389 539 615 626 522 b 414 161 626 256 539 161 z "},"ġ":{"ha":889,"x_min":0,"x_max":0,"o":"m 444 856 b 538 950 497 856 538 896 b 444 1046 538 1006 497 1046 b 351 950 392 1046 351 1006 b 444 856 351 896 392 856 z m 626 739 l 626 619 b 376 744 575 700 490 746 b 49 393 181 743 49 601 b 382 36 49 181 182 36 b 626 161 493 36 576 81 l 626 68 b 394 -142 626 -60 535 -142 b 163 -61 304 -142 232 -112 l 94 -176 b 401 -274 185 -237 286 -274 b 785 72 633 -274 785 -140 l 785 739 z m 414 161 b 199 389 286 161 200 256 b 414 615 200 521 288 615 b 626 389 539 615 626 522 b 414 161 626 256 539 161 z "},"ḡ":{"ha":889,"x_min":0,"x_max":0,"o":"m 621 979 l 267 979 l 267 864 l 621 864 z m 626 739 l 626 619 b 376 744 575 700 490 746 b 49 393 181 743 49 601 b 382 36 49 181 182 36 b 626 161 493 36 576 81 l 626 68 b 394 -142 626 -60 535 -142 b 163 -61 304 -142 232 -112 l 94 -176 b 401 -274 185 -237 286 -274 b 785 72 633 -274 785 -140 l 785 739 z m 414 161 b 199 389 286 161 200 256 b 414 615 200 521 288 615 b 626 389 539 615 626 522 b 414 161 626 256 539 161 z "},"h":{"ha":929,"x_min":0,"x_max":0,"o":"m 558 744 b 285 594 432 744 338 699 l 285 1031 l 125 1031 l 125 0 l 285 0 l 285 364 b 496 594 285 494 364 593 b 674 415 607 594 674 526 l 674 0 l 833 0 l 833 460 b 558 744 833 636 731 744 z "},"ħ":{"ha":929,"x_min":0,"x_max":0,"o":"m 558 744 b 285 594 432 744 338 699 l 285 818 l 481 818 l 481 914 l 285 914 l 285 1031 l 125 1031 l 125 914 l 8 914 l 8 818 l 125 818 l 125 0 l 285 0 l 285 364 b 496 594 285 494 364 593 b 674 415 607 594 674 526 l 674 0 l 833 0 l 833 460 b 558 744 833 636 731 744 z "},"ḫ":{"ha":929,"x_min":0,"x_max":0,"o":"m 558 744 b 285 594 432 744 338 699 l 285 1031 l 125 1031 l 125 0 l 285 0 l 285 364 b 496 594 285 494 364 593 b 674 415 607 594 674 526 l 674 0 l 833 0 l 833 460 b 558 744 833 636 731 744 z m 479 -160 b 392 -69 431 -160 394 -122 l 283 -69 b 479 -267 288 -187 368 -267 b 675 -69 590 -267 671 -187 l 567 -69 b 479 -160 564 -122 528 -160 z "},"ĥ":{"ha":929,"x_min":0,"x_max":0,"o":"m 289 1140 l 419 1140 l 276 1336 l 129 1336 l -14 1140 l 117 1140 l 203 1263 z m 558 744 b 285 594 432 744 338 699 l 285 1031 l 125 1031 l 125 0 l 285 0 l 285 364 b 496 594 285 494 364 593 b 674 415 607 594 674 526 l 674 0 l 833 0 l 833 460 b 558 744 833 636 731 744 z "},"ḥ":{"ha":929,"x_min":0,"x_max":0,"o":"m 558 744 b 285 594 432 744 338 699 l 285 1031 l 125 1031 l 125 0 l 285 0 l 285 364 b 496 594 285 494 364 593 b 674 415 607 594 674 526 l 674 0 l 833 0 l 833 460 b 558 744 833 636 731 744 z m 479 -69 b 386 -165 426 -69 386 -110 b 479 -260 386 -219 426 -260 b 572 -165 532 -260 572 -219 b 479 -69 572 -110 532 -69 z "},"i":{"ha":394,"x_min":0,"x_max":0,"o":"m 197 1046 b 104 950 144 1046 104 1006 b 197 856 104 896 144 856 b 290 950 250 856 290 896 b 197 1046 290 1006 250 1046 z m 118 739 l 118 0 l 276 0 l 276 739 z "},"ı":{"ha":394,"x_min":0,"x_max":0,"o":"m 118 739 l 118 0 l 276 0 l 276 739 z "},"í":{"ha":394,"x_min":0,"x_max":0,"o":"m 251 1051 l 104 846 l 246 846 l 415 982 z m 118 739 l 118 0 l 276 0 l 276 739 z "},"ĭ":{"ha":394,"x_min":0,"x_max":0,"o":"m 110 1039 l 1 1039 b 197 842 6 921 86 842 b 393 1039 308 842 389 921 l 285 1039 b 197 949 282 986 246 949 b 110 1039 149 949 113 986 z m 118 739 l 118 0 l 276 0 l 276 739 z "},"î":{"ha":394,"x_min":0,"x_max":0,"o":"m 124 1044 l -19 849 l 111 849 l 197 971 l 283 849 l 414 849 l 271 1044 z m 118 739 l 118 0 l 276 0 l 276 739 z "},"ȉ":{"ha":394,"x_min":0,"x_max":0,"o":"m 43 1060 l -93 999 l 35 846 l 158 846 z m 272 1060 l 136 999 l 264 846 l 388 846 z m 118 739 l 118 0 l 276 0 l 276 739 z "},"ï":{"ha":394,"x_min":0,"x_max":0,"o":"m 75 1038 b -10 950 26 1038 -10 1001 b 75 863 -10 901 26 863 b 160 950 122 863 160 901 b 75 1038 160 1001 122 1038 z m 321 1038 b 236 950 272 1038 236 1001 b 321 863 236 901 272 863 b 406 950 368 863 406 901 b 321 1038 406 1001 368 1038 z m 118 739 l 118 0 l 276 0 l 276 739 z "},"ḯ":{"ha":394,"x_min":0,"x_max":0,"o":"m 265 1321 l 118 1115 l 260 1115 l 429 1251 z m 74 1038 b -11 950 25 1038 -11 1001 b 74 863 -11 901 25 863 b 158 950 121 863 158 901 b 74 1038 158 1001 121 1038 z m 319 1038 b 235 950 271 1038 235 1001 b 319 863 235 901 271 863 b 404 950 367 863 404 901 b 319 1038 404 1001 367 1038 z m 118 739 l 118 0 l 276 0 l 276 739 z "},"ị":{"ha":394,"x_min":0,"x_max":0,"o":"m 197 1046 b 104 950 144 1046 104 1006 b 197 856 104 896 144 856 b 290 950 250 856 290 896 b 197 1046 290 1006 250 1046 z m 118 739 l 118 0 l 276 0 l 276 739 z m 197 -71 b 104 -165 143 -71 104 -110 b 197 -260 104 -219 143 -260 b 290 -165 250 -260 290 -219 b 197 -71 290 -110 250 -71 z "},"ì":{"ha":394,"x_min":0,"x_max":0,"o":"m 136 1051 l -28 982 l 142 846 l 283 846 z m 118 739 l 118 0 l 276 0 l 276 739 z "},"ỉ":{"ha":394,"x_min":0,"x_max":0,"o":"m 47 961 l 122 936 b 193 997 128 972 151 997 b 253 942 232 997 253 972 b 171 829 253 900 221 868 l 247 803 b 333 947 301 847 333 888 b 194 1076 333 1022 279 1076 b 47 961 117 1076 58 1035 z m 118 739 l 118 0 l 276 0 l 276 739 z "},"ȋ":{"ha":394,"x_min":0,"x_max":0,"o":"m 110 843 b 197 935 113 897 149 935 b 285 843 246 935 282 897 l 393 843 b 197 1040 389 963 308 1040 b 1 843 86 1040 6 963 z m 118 739 l 118 0 l 276 0 l 276 739 z "},"ĳ":{"ha":793,"x_min":0,"x_max":0,"o":"m 590 1047 b 493 950 535 1047 493 1007 b 590 853 493 894 535 853 b 689 950 649 853 689 894 b 590 1047 689 1007 649 1047 z m 197 1046 b 104 950 144 1046 104 1006 b 197 856 104 896 144 856 b 290 950 250 856 290 896 b 197 1046 290 1006 250 1046 z m 118 739 l 118 0 l 276 0 l 276 739 z m 669 -21 l 669 739 l 511 739 l 511 -36 b 424 -136 511 -107 472 -136 b 329 -103 393 -136 358 -124 l 276 -226 b 431 -276 319 -258 375 -276 b 669 -21 549 -276 669 -196 z "},"ī":{"ha":394,"x_min":0,"x_max":0,"o":"m 21 1006 l 21 890 l 375 890 l 375 1006 z m 118 739 l 118 0 l 276 0 l 276 739 z "},"į":{"ha":371,"x_min":0,"x_max":0,"o":"m 188 1047 b 94 950 135 1047 94 1007 b 188 853 94 893 135 853 b 281 950 242 853 281 893 b 188 1047 281 1007 242 1047 z m 235 0 l 268 0 l 268 739 l 108 739 l 108 0 l 153 0 b 81 -171 107 -65 81 -119 b 190 -279 81 -247 136 -279 b 322 -200 242 -279 290 -250 l 276 -146 b 208 -190 256 -172 233 -190 b 167 -146 183 -190 167 -174 b 235 0 167 -114 188 -67 z "},"ĩ":{"ha":394,"x_min":0,"x_max":0,"o":"m 421 1044 l 319 1044 b 267 976 319 1000 301 976 b 101 1053 219 976 178 1053 b -26 871 18 1053 -26 992 l 76 871 b 128 939 76 915 94 939 b 294 863 176 939 211 863 b 421 1044 378 863 421 924 z m 118 739 l 118 0 l 276 0 l 276 739 z "},"j":{"ha":399,"x_min":0,"x_max":0,"o":"m 196 1047 b 99 950 140 1047 99 1007 b 196 853 99 894 140 853 b 294 950 254 853 294 894 b 196 1047 294 1007 254 1047 z m 275 -21 l 275 739 l 117 739 l 117 -36 b 29 -136 117 -107 78 -136 b -65 -103 -1 -136 -36 -124 l -118 -226 b 36 -276 -75 -258 -19 -276 b 275 -21 154 -276 275 -196 z "},"ȷ":{"ha":381,"x_min":0,"x_max":0,"o":"m 276 -33 l 276 739 l 117 739 l 117 -10 b 17 -142 117 -97 82 -143 b -86 -108 -19 -140 -54 -129 l -126 -225 b 50 -275 -76 -257 -15 -274 b 276 -33 192 -276 276 -189 z "},"ĵ":{"ha":381,"x_min":0,"x_max":0,"o":"m 117 1044 l -26 849 l 104 849 l 190 971 l 276 849 l 407 849 l 264 1044 z m 276 -33 l 276 739 l 117 739 l 117 -10 b 17 -142 117 -97 82 -143 b -86 -108 -19 -140 -54 -129 l -126 -225 b 50 -275 -76 -257 -15 -274 b 276 -33 192 -276 276 -189 z "},"k":{"ha":826,"x_min":0,"x_max":0,"o":"m 626 0 l 815 0 l 521 453 l 794 739 l 611 739 l 285 408 l 285 1031 l 125 1031 l 125 0 l 285 0 l 285 207 l 410 339 z "},"ķ":{"ha":826,"x_min":0,"x_max":0,"o":"m 521 453 l 794 739 l 611 739 l 285 408 l 285 1031 l 125 1031 l 125 0 l 285 0 l 285 207 l 410 339 l 626 0 l 815 0 z m 446 -69 b 360 -157 396 -69 360 -107 b 397 -226 360 -185 372 -211 l 344 -346 l 426 -346 l 506 -228 b 531 -156 521 -206 531 -183 b 446 -69 531 -101 490 -69 z "},"ĸ":{"ha":819,"x_min":0,"x_max":0,"o":"m 619 0 l 808 0 l 514 453 l 788 739 l 604 739 l 276 408 l 276 739 l 118 739 l 118 0 l 276 0 l 276 206 l 404 339 z "},"l":{"ha":410,"x_min":0,"x_max":0,"o":"m 125 1031 l 125 0 l 285 0 l 285 1031 z "},"ĺ":{"ha":410,"x_min":0,"x_max":0,"o":"m 260 1343 l 113 1138 l 254 1138 l 424 1274 z m 125 1031 l 125 0 l 285 0 l 285 1031 z "},"ľ":{"ha":510,"x_min":0,"x_max":0,"o":"m 125 1031 l 125 0 l 285 0 l 285 1031 z m 388 1031 l 388 750 l 496 750 l 538 1031 z "},"ļ":{"ha":410,"x_min":0,"x_max":0,"o":"m 285 1031 l 125 1031 l 125 0 l 285 0 z m 206 -69 b 119 -157 156 -69 119 -107 b 157 -226 119 -185 132 -211 l 104 -346 l 186 -346 l 265 -228 b 290 -156 281 -206 290 -183 b 206 -69 290 -101 250 -69 z "},"ŀ":{"ha":493,"x_min":0,"x_max":0,"o":"m 125 1031 l 125 0 l 285 0 l 285 1031 z m 410 639 b 326 553 363 639 326 604 b 410 464 326 501 363 464 b 493 553 457 464 493 501 b 410 639 493 604 457 639 z "},"ḷ":{"ha":410,"x_min":0,"x_max":0,"o":"m 125 1031 l 125 0 l 285 0 l 285 1031 z m 206 -69 b 113 -165 153 -69 113 -110 b 206 -260 113 -219 153 -260 b 299 -165 258 -260 299 -219 b 206 -69 299 -110 258 -69 z "},"ǉ":{"ha":808,"x_min":0,"x_max":0,"o":"m 606 1047 b 508 950 550 1047 508 1007 b 606 853 508 894 550 853 b 704 950 664 853 704 894 b 606 1047 704 1007 664 1047 z m 125 1031 l 125 0 l 285 0 l 285 1031 z m 685 -21 l 685 739 l 526 739 l 526 -36 b 439 -136 526 -107 488 -136 b 344 -103 408 -136 374 -124 l 292 -226 b 446 -276 335 -258 390 -276 b 685 -21 564 -276 685 -196 z "},"ḻ":{"ha":410,"x_min":0,"x_max":0,"o":"m 125 1031 l 125 0 l 285 0 l 285 1031 z m 28 -87 l 28 -203 l 382 -203 l 382 -87 z "},"ł":{"ha":469,"x_min":0,"x_max":0,"o":"m 474 746 l 318 700 l 318 1031 l 158 1031 l 158 654 l 3 608 l 3 493 l 158 539 l 158 0 l 318 0 l 318 585 l 474 631 z "},"m":{"ha":1449,"x_min":0,"x_max":0,"o":"m 1082 744 b 801 567 947 744 849 690 b 544 744 767 679 676 744 b 276 596 422 744 328 700 l 276 739 l 118 739 l 118 0 l 276 0 l 276 365 b 482 596 276 494 354 592 b 656 415 590 596 656 528 l 656 0 l 815 0 l 815 365 b 1018 596 815 494 892 592 b 1193 415 1126 596 1193 528 l 1193 0 l 1353 0 l 1353 460 b 1082 744 1353 636 1251 744 z "},"ṃ":{"ha":1449,"x_min":0,"x_max":0,"o":"m 1082 744 b 801 567 947 744 849 690 b 544 744 767 679 676 744 b 276 596 422 744 328 700 l 276 739 l 118 739 l 118 0 l 276 0 l 276 365 b 482 596 276 494 354 592 b 656 415 590 596 656 528 l 656 0 l 815 0 l 815 365 b 1018 596 815 494 892 592 b 1193 415 1126 596 1193 528 l 1193 0 l 1353 0 l 1353 460 b 1082 744 1353 636 1251 744 z m 736 -69 b 643 -165 683 -69 643 -110 b 736 -260 643 -219 683 -260 b 829 -165 789 -260 829 -219 b 736 -69 829 -110 789 -69 z "},"n":{"ha":921,"x_min":0,"x_max":0,"o":"m 550 744 b 278 597 425 744 331 700 l 278 739 l 118 739 l 118 0 l 278 0 l 278 393 b 488 594 289 508 365 593 b 665 415 599 594 665 526 l 665 0 l 825 0 l 825 460 b 550 744 825 636 722 744 z "},"ń":{"ha":921,"x_min":0,"x_max":0,"o":"m 699 982 l 535 1051 l 388 846 l 529 846 z m 550 744 b 278 597 425 744 331 700 l 278 739 l 118 739 l 118 0 l 278 0 l 278 393 b 488 594 289 508 365 593 b 665 415 599 594 665 526 l 665 0 l 825 0 l 825 460 b 550 744 825 636 722 744 z "},"ŉ":{"ha":1058,"x_min":0,"x_max":0,"o":"m 129 1044 b 43 957 79 1044 43 1007 b 81 888 43 929 56 903 l 28 768 l 110 768 l 189 886 b 214 958 204 908 214 931 b 129 1044 214 1013 174 1044 z m 688 744 b 415 597 563 744 468 700 l 415 739 l 256 739 l 256 0 l 415 0 l 415 393 b 625 594 426 508 503 593 b 803 415 736 594 803 526 l 803 0 l 963 0 l 963 460 b 688 744 963 636 860 744 z "},"ň":{"ha":921,"x_min":0,"x_max":0,"o":"m 556 836 l 706 1044 l 564 1044 l 476 915 l 389 1044 l 247 1044 l 397 836 z m 550 744 b 278 597 425 744 331 700 l 278 739 l 118 739 l 118 0 l 278 0 l 278 393 b 488 594 289 508 365 593 b 665 415 599 594 665 526 l 665 0 l 825 0 l 825 460 b 550 744 825 636 722 744 z "},"ņ":{"ha":921,"x_min":0,"x_max":0,"o":"m 550 744 b 278 597 425 744 331 700 l 278 739 l 118 739 l 118 0 l 278 0 l 278 393 b 488 594 289 508 365 593 b 665 415 599 594 665 526 l 665 0 l 825 0 l 825 460 b 550 744 825 636 722 744 z m 467 -69 b 381 -157 417 -69 381 -107 b 418 -226 381 -185 393 -211 l 365 -346 l 447 -346 l 526 -228 b 551 -156 542 -206 551 -183 b 467 -69 551 -101 511 -69 z "},"ṅ":{"ha":921,"x_min":0,"x_max":0,"o":"m 481 856 b 574 950 533 856 574 896 b 481 1046 574 1006 533 1046 b 388 950 428 1046 388 1006 b 481 856 388 896 428 856 z m 550 744 b 278 597 425 744 331 700 l 278 739 l 118 739 l 118 0 l 278 0 l 278 393 b 488 594 289 508 365 593 b 665 415 599 594 665 526 l 665 0 l 825 0 l 825 460 b 550 744 825 636 722 744 z "},"ṇ":{"ha":921,"x_min":0,"x_max":0,"o":"m 550 744 b 278 597 425 744 331 700 l 278 739 l 118 739 l 118 0 l 278 0 l 278 393 b 488 594 289 508 365 593 b 665 415 599 594 665 526 l 665 0 l 825 0 l 825 460 b 550 744 825 636 722 744 z m 467 -69 b 374 -165 414 -69 374 -110 b 467 -260 374 -219 414 -260 b 560 -165 519 -260 560 -219 b 467 -69 560 -110 519 -69 z "},"ŋ":{"ha":921,"x_min":0,"x_max":0,"o":"m 550 744 b 278 597 425 744 331 700 l 278 739 l 118 739 l 118 0 l 278 0 l 278 393 b 488 594 289 508 365 593 b 665 415 599 594 665 526 l 665 -36 b 578 -136 665 -107 626 -136 b 483 -103 547 -136 513 -124 l 431 -226 b 585 -276 474 -258 529 -276 b 825 -22 703 -276 825 -196 l 825 460 b 550 744 825 636 722 744 z "},"ǌ":{"ha":1319,"x_min":0,"x_max":0,"o":"m 1117 853 b 1215 950 1175 853 1215 894 b 1117 1047 1215 1007 1175 1047 b 1019 950 1061 1047 1019 1007 b 1117 853 1019 894 1061 853 z m 825 0 l 825 460 b 550 744 825 636 722 744 b 278 597 425 744 331 700 l 278 739 l 118 739 l 118 0 l 278 0 l 278 393 b 488 594 289 508 365 593 b 665 415 599 594 665 526 l 665 0 z m 1038 -36 b 950 -136 1038 -107 999 -136 b 856 -103 919 -136 885 -124 l 803 -226 b 957 -276 846 -258 901 -276 b 1196 -21 1075 -276 1196 -196 l 1196 739 l 1038 739 z "},"ṉ":{"ha":921,"x_min":0,"x_max":0,"o":"m 550 744 b 278 597 425 744 331 700 l 278 739 l 118 739 l 118 0 l 278 0 l 278 393 b 488 594 289 508 365 593 b 665 415 599 594 665 526 l 665 0 l 825 0 l 825 460 b 550 744 825 636 722 744 z m 289 -203 l 643 -203 l 643 -87 l 289 -87 z "},"ñ":{"ha":921,"x_min":0,"x_max":0,"o":"m 411 939 b 578 863 460 939 494 863 b 704 1044 661 863 704 924 l 603 1044 b 550 976 603 1000 585 976 b 385 1053 503 976 461 1053 b 257 871 301 1053 257 992 l 360 871 b 411 939 360 915 378 939 z m 550 744 b 278 597 425 744 331 700 l 278 739 l 118 739 l 118 0 l 278 0 l 278 393 b 488 594 289 508 365 593 b 665 415 599 594 665 526 l 665 0 l 825 0 l 825 460 b 550 744 825 636 722 744 z "},"o":{"ha":868,"x_min":0,"x_max":0,"o":"m 435 744 b 49 371 206 744 49 593 b 435 -6 49 147 206 -6 b 819 371 663 -6 819 147 b 435 744 819 593 663 744 z m 435 608 b 660 368 567 608 660 510 b 435 128 660 225 567 128 b 208 368 301 128 208 225 b 435 608 208 510 301 608 z "},"ó":{"ha":868,"x_min":0,"x_max":0,"o":"m 489 1051 l 342 846 l 483 846 l 653 982 z m 435 744 b 49 371 206 744 49 593 b 435 -6 49 147 206 -6 b 819 371 663 -6 819 147 b 435 744 819 593 663 744 z m 435 608 b 660 368 567 608 660 510 b 435 128 660 225 567 128 b 208 368 301 128 208 225 b 435 608 208 510 301 608 z "},"ŏ":{"ha":868,"x_min":0,"x_max":0,"o":"m 347 1039 l 239 1039 b 435 842 243 921 324 842 b 631 1039 546 842 626 921 l 522 1039 b 435 949 519 986 483 949 b 347 1039 386 949 350 986 z m 435 744 b 49 371 206 744 49 593 b 435 -6 49 147 206 -6 b 819 371 663 -6 819 147 b 435 744 819 593 663 744 z m 435 608 b 660 368 567 608 660 510 b 435 128 660 225 567 128 b 208 368 301 128 208 225 b 435 608 208 510 301 608 z "},"ô":{"ha":868,"x_min":0,"x_max":0,"o":"m 361 1044 l 218 849 l 349 849 l 435 971 l 521 849 l 651 849 l 508 1044 z m 435 744 b 49 371 206 744 49 593 b 435 -6 49 147 206 -6 b 819 371 663 -6 819 147 b 435 744 819 593 663 744 z m 435 608 b 660 368 567 608 660 510 b 435 128 660 225 567 128 b 208 368 301 128 208 225 b 435 608 208 510 301 608 z "},"ố":{"ha":868,"x_min":0,"x_max":0,"o":"m 736 1196 l 589 994 l 706 994 l 875 1128 z m 361 1043 l 218 853 l 349 853 l 435 972 l 521 853 l 651 853 l 508 1043 z m 435 744 b 49 371 206 744 49 593 b 435 -6 49 147 206 -6 b 819 371 663 -6 819 147 b 435 744 819 593 663 744 z m 435 608 b 660 368 567 608 660 510 b 435 128 660 225 567 128 b 208 368 301 128 208 225 b 435 608 208 510 301 608 z "},"ộ":{"ha":868,"x_min":0,"x_max":0,"o":"m 508 1043 l 361 1043 l 218 851 l 349 851 l 435 971 l 521 851 l 651 851 z m 435 744 b 49 371 206 744 49 593 b 435 -6 49 147 206 -6 b 819 371 663 -6 819 147 b 435 744 819 593 663 744 z m 435 608 b 660 368 567 608 660 510 b 435 128 660 225 567 128 b 208 368 301 128 208 225 b 435 608 208 510 301 608 z m 435 -71 b 342 -165 381 -71 342 -110 b 435 -260 342 -219 381 -260 b 528 -165 488 -260 528 -219 b 435 -71 528 -110 488 -71 z "},"ồ":{"ha":868,"x_min":0,"x_max":0,"o":"m 615 1196 l 476 1128 l 646 994 l 763 994 z m 361 1043 l 218 853 l 349 853 l 435 972 l 521 853 l 651 853 l 508 1043 z m 435 744 b 49 371 206 744 49 593 b 435 -6 49 147 206 -6 b 819 371 663 -6 819 147 b 435 744 819 593 663 744 z m 435 608 b 660 368 567 608 660 510 b 435 128 660 225 567 128 b 208 368 301 128 208 225 b 435 608 208 510 301 608 z "},"ổ":{"ha":868,"x_min":0,"x_max":0,"o":"m 465 1136 l 540 1110 b 611 1172 546 1147 569 1172 b 671 1117 650 1172 671 1147 b 589 1004 671 1075 639 1043 l 665 978 b 751 1122 719 1021 751 1063 b 613 1250 751 1196 697 1250 b 465 1136 535 1250 476 1208 z m 361 1043 l 218 853 l 349 853 l 435 972 l 521 853 l 651 853 l 508 1043 z m 435 744 b 49 371 206 744 49 593 b 435 -6 49 147 206 -6 b 819 371 663 -6 819 147 b 435 744 819 593 663 744 z m 435 608 b 660 368 567 608 660 510 b 435 128 660 225 567 128 b 208 368 301 128 208 225 b 435 608 208 510 301 608 z "},"ỗ":{"ha":868,"x_min":0,"x_max":0,"o":"m 651 1244 l 550 1244 b 497 1176 550 1201 532 1176 b 332 1253 450 1176 408 1253 b 204 1075 249 1253 204 1193 l 307 1075 b 358 1143 307 1118 325 1143 b 525 1068 407 1143 442 1068 b 651 1244 608 1068 651 1126 z m 361 1043 l 218 853 l 349 853 l 435 972 l 521 853 l 651 853 l 508 1043 z m 435 744 b 49 371 206 744 49 593 b 435 -6 49 147 206 -6 b 819 371 663 -6 819 147 b 435 744 819 593 663 744 z m 435 608 b 660 368 567 608 660 510 b 435 128 660 225 567 128 b 208 368 301 128 208 225 b 435 608 208 510 301 608 z "},"ȍ":{"ha":868,"x_min":0,"x_max":0,"o":"m 281 1060 l 144 999 l 272 846 l 396 846 z m 510 1060 l 374 999 l 501 846 l 625 846 z m 435 744 b 49 371 206 744 49 593 b 435 -6 49 147 206 -6 b 819 371 663 -6 819 147 b 435 744 819 593 663 744 z m 435 608 b 660 368 567 608 660 510 b 435 128 660 225 567 128 b 208 368 301 128 208 225 b 435 608 208 510 301 608 z "},"ö":{"ha":868,"x_min":0,"x_max":0,"o":"m 313 1038 b 228 950 264 1038 228 1001 b 313 863 228 901 264 863 b 397 950 360 863 397 901 b 313 1038 397 1001 360 1038 z m 558 1038 b 474 950 510 1038 474 1001 b 558 863 474 901 510 863 b 643 950 606 863 643 901 b 558 1038 643 1001 606 1038 z m 435 744 b 49 371 206 744 49 593 b 435 -6 49 147 206 -6 b 819 371 663 -6 819 147 b 435 744 819 593 663 744 z m 435 608 b 660 368 567 608 660 510 b 435 128 660 225 567 128 b 208 368 301 128 208 225 b 435 608 208 510 301 608 z "},"ȫ":{"ha":868,"x_min":0,"x_max":0,"o":"m 257 1249 l 257 1133 l 611 1133 l 611 1249 z m 311 1038 b 226 950 263 1038 226 1001 b 311 863 226 901 263 863 b 396 950 358 863 396 901 b 311 1038 396 1001 358 1038 z m 557 1038 b 472 950 508 1038 472 1001 b 557 863 472 901 508 863 b 642 950 604 863 642 901 b 557 1038 642 1001 604 1038 z m 435 744 b 49 371 206 744 49 593 b 435 -6 49 147 206 -6 b 819 371 663 -6 819 147 b 435 744 819 593 663 744 z m 435 608 b 660 368 567 608 660 510 b 435 128 660 225 567 128 b 208 368 301 128 208 225 b 435 608 208 510 301 608 z "},"ȱ":{"ha":868,"x_min":0,"x_max":0,"o":"m 257 1221 l 257 1106 l 611 1106 l 611 1221 z m 435 1046 b 342 950 382 1046 342 1006 b 435 856 342 896 382 856 b 528 950 488 856 528 896 b 435 1046 528 1006 488 1046 z m 435 744 b 49 371 206 744 49 593 b 435 -6 49 147 206 -6 b 819 371 663 -6 819 147 b 435 744 819 593 663 744 z m 435 608 b 660 368 567 608 660 510 b 435 128 660 225 567 128 b 208 368 301 128 208 225 b 435 608 208 510 301 608 z "},"ọ":{"ha":868,"x_min":0,"x_max":0,"o":"m 435 744 b 49 371 206 744 49 593 b 435 -6 49 147 206 -6 b 819 371 663 -6 819 147 b 435 744 819 593 663 744 z m 435 608 b 660 368 567 608 660 510 b 435 128 660 225 567 128 b 208 368 301 128 208 225 b 435 608 208 510 301 608 z m 435 -71 b 342 -165 381 -71 342 -110 b 435 -260 342 -219 381 -260 b 528 -165 488 -260 528 -219 b 435 -71 528 -110 488 -71 z "},"ò":{"ha":868,"x_min":0,"x_max":0,"o":"m 374 1051 l 210 982 l 379 846 l 521 846 z m 435 744 b 49 371 206 744 49 593 b 435 -6 49 147 206 -6 b 819 371 663 -6 819 147 b 435 744 819 593 663 744 z m 435 608 b 660 368 567 608 660 510 b 435 128 660 225 567 128 b 208 368 301 128 208 225 b 435 608 208 510 301 608 z "},"ỏ":{"ha":868,"x_min":0,"x_max":0,"o":"m 285 961 l 360 936 b 431 997 365 972 389 997 b 490 942 469 997 490 972 b 408 829 490 900 458 868 l 485 803 b 571 947 539 847 571 888 b 432 1076 571 1022 517 1076 b 285 961 354 1076 296 1035 z m 435 744 b 49 371 206 744 49 593 b 435 -6 49 147 206 -6 b 819 371 663 -6 819 147 b 435 744 819 593 663 744 z m 435 608 b 660 368 567 608 660 510 b 435 128 660 225 567 128 b 208 368 301 128 208 225 b 435 608 208 510 301 608 z "},"ơ":{"ha":868,"x_min":0,"x_max":0,"o":"m 703 650 b 804 849 765 694 804 765 l 682 849 b 588 718 682 786 644 736 b 435 744 542 736 490 744 b 49 371 206 744 49 593 b 435 -6 49 147 206 -6 b 819 371 663 -6 819 147 b 703 650 819 488 776 583 z m 435 128 b 208 368 301 128 208 225 b 435 608 208 510 301 608 b 660 368 567 608 660 510 b 435 128 660 225 567 128 z "},"ớ":{"ha":868,"x_min":0,"x_max":0,"o":"m 667 982 l 503 1051 l 356 846 l 497 846 z m 703 650 b 804 849 765 694 804 765 l 682 849 b 588 718 682 786 644 736 b 435 744 542 736 490 744 b 49 371 206 744 49 593 b 435 -6 49 147 206 -6 b 819 371 663 -6 819 147 b 703 650 819 488 776 583 z m 435 128 b 208 368 301 128 208 225 b 435 608 208 510 301 608 b 660 368 567 608 660 510 b 435 128 660 225 567 128 z "},"ợ":{"ha":868,"x_min":0,"x_max":0,"o":"m 703 650 b 804 849 765 694 804 765 l 682 849 b 588 718 682 786 644 736 b 435 744 542 736 490 744 b 49 371 206 744 49 593 b 435 -6 49 147 206 -6 b 819 371 663 -6 819 147 b 703 650 819 488 776 583 z m 435 128 b 208 368 301 128 208 225 b 435 608 208 510 301 608 b 660 368 567 608 660 510 b 435 128 660 225 567 128 z m 435 -71 b 342 -165 381 -71 342 -110 b 435 -260 342 -219 381 -260 b 528 -165 488 -260 528 -219 b 435 -71 528 -110 488 -71 z "},"ờ":{"ha":868,"x_min":0,"x_max":0,"o":"m 514 846 l 367 1051 l 203 982 l 372 846 z m 703 650 b 804 849 765 694 804 765 l 682 849 b 588 718 682 786 644 736 b 435 744 542 736 490 744 b 49 371 206 744 49 593 b 435 -6 49 147 206 -6 b 819 371 663 -6 819 147 b 703 650 819 488 776 583 z m 435 128 b 208 368 301 128 208 225 b 435 608 208 510 301 608 b 660 368 567 608 660 510 b 435 128 660 225 567 128 z "},"ở":{"ha":868,"x_min":0,"x_max":0,"o":"m 431 997 b 490 942 469 997 490 972 b 408 829 490 900 458 868 l 485 803 b 571 947 539 847 571 888 b 432 1076 571 1022 517 1076 b 285 961 354 1076 296 1035 l 360 936 b 431 997 365 972 389 997 z m 703 650 b 804 849 765 694 804 765 l 682 849 b 588 718 682 786 644 736 b 435 744 542 736 490 744 b 49 371 206 744 49 593 b 435 -6 49 147 206 -6 b 819 371 663 -6 819 147 b 703 650 819 488 776 583 z m 435 128 b 208 368 301 128 208 225 b 435 608 208 510 301 608 b 660 368 567 608 660 510 b 435 128 660 225 567 128 z "},"ỡ":{"ha":868,"x_min":0,"x_max":0,"o":"m 365 939 b 532 863 414 939 449 863 b 658 1044 615 863 658 924 l 557 1044 b 504 976 557 1000 539 976 b 339 1053 457 976 415 1053 b 211 871 256 1053 211 992 l 314 871 b 365 939 314 915 332 939 z m 703 650 b 804 849 765 694 804 765 l 682 849 b 588 718 682 786 644 736 b 435 744 542 736 490 744 b 49 371 206 744 49 593 b 435 -6 49 147 206 -6 b 819 371 663 -6 819 147 b 703 650 819 488 776 583 z m 435 128 b 208 368 301 128 208 225 b 435 608 208 510 301 608 b 660 368 567 608 660 510 b 435 128 660 225 567 128 z "},"ő":{"ha":868,"x_min":0,"x_max":0,"o":"m 347 1056 l 232 842 l 356 842 l 483 994 z m 576 1056 l 461 842 l 585 842 l 713 994 z m 435 744 b 49 371 206 744 49 593 b 435 -6 49 147 206 -6 b 819 371 663 -6 819 147 b 435 744 819 593 663 744 z m 435 608 b 660 368 567 608 660 510 b 435 128 660 225 567 128 b 208 368 301 128 208 225 b 435 608 208 510 301 608 z "},"ȏ":{"ha":868,"x_min":0,"x_max":0,"o":"m 347 843 b 435 935 350 897 386 935 b 522 843 483 935 519 897 l 631 843 b 435 1040 626 963 546 1040 b 239 843 324 1040 243 963 z m 435 744 b 49 371 206 744 49 593 b 435 -6 49 147 206 -6 b 819 371 663 -6 819 147 b 435 744 819 593 663 744 z m 435 608 b 660 368 567 608 660 510 b 435 128 660 225 567 128 b 208 368 301 128 208 225 b 435 608 208 510 301 608 z "},"ō":{"ha":868,"x_min":0,"x_max":0,"o":"m 258 1006 l 258 890 l 613 890 l 613 1006 z m 435 744 b 49 371 206 744 49 593 b 435 -6 49 147 206 -6 b 819 371 663 -6 819 147 b 435 744 819 593 663 744 z m 435 608 b 660 368 567 608 660 510 b 435 128 660 225 567 128 b 208 368 301 128 208 225 b 435 608 208 510 301 608 z "},"ṓ":{"ha":868,"x_min":0,"x_max":0,"o":"m 503 1282 l 356 1076 l 497 1076 l 667 1213 z m 257 979 l 257 864 l 611 864 l 611 979 z m 435 744 b 49 371 206 744 49 593 b 435 -6 49 147 206 -6 b 819 371 663 -6 819 147 b 435 744 819 593 663 744 z m 435 608 b 660 368 567 608 660 510 b 435 128 660 225 567 128 b 208 368 301 128 208 225 b 435 608 208 510 301 608 z "},"ṑ":{"ha":868,"x_min":0,"x_max":0,"o":"m 367 1282 l 203 1213 l 372 1076 l 514 1076 z m 257 979 l 257 864 l 611 864 l 611 979 z m 435 744 b 49 371 206 744 49 593 b 435 -6 49 147 206 -6 b 819 371 663 -6 819 147 b 435 744 819 593 663 744 z m 435 608 b 660 368 567 608 660 510 b 435 128 660 225 567 128 b 208 368 301 128 208 225 b 435 608 208 510 301 608 z "},"ǫ":{"ha":868,"x_min":0,"x_max":0,"o":"m 819 371 b 435 744 819 593 663 744 b 49 371 206 744 49 593 b 383 -3 49 165 182 18 b 313 -172 338 -67 313 -121 b 422 -281 313 -249 368 -281 b 554 -201 474 -281 522 -251 l 508 -147 b 440 -192 488 -174 464 -192 b 397 -147 415 -192 397 -175 b 464 -4 397 -115 418 -69 b 819 371 675 7 819 157 z m 208 368 b 435 608 208 510 301 608 b 660 368 567 608 660 510 b 435 128 660 225 567 128 b 208 368 301 128 208 225 z "},"ø":{"ha":868,"x_min":0,"x_max":0,"o":"m 636 696 l 725 871 l 653 871 l 578 722 b 435 744 535 736 486 744 b 49 371 206 744 49 593 b 233 42 49 222 118 104 l 144 -132 l 217 -132 l 292 17 b 435 -6 335 3 383 -6 b 819 371 663 -6 819 147 b 636 696 819 518 750 635 z m 200 368 b 435 619 200 518 296 619 b 518 606 465 619 493 615 l 293 161 b 200 368 235 204 200 278 z m 435 115 b 350 129 404 115 375 121 l 575 575 b 669 368 633 532 669 458 b 435 115 669 218 572 115 z "},"ǿ":{"ha":868,"x_min":0,"x_max":0,"o":"m 667 982 l 503 1051 l 356 846 l 497 846 z m 636 696 l 725 871 l 653 871 l 578 722 b 435 744 535 736 486 744 b 49 371 206 744 49 593 b 233 42 49 222 118 104 l 144 -132 l 217 -132 l 292 17 b 435 -6 335 3 383 -6 b 819 371 663 -6 819 147 b 636 696 819 518 750 635 z m 200 368 b 435 619 200 518 296 619 b 518 606 465 619 493 615 l 293 161 b 200 368 235 204 200 278 z m 435 115 b 350 129 404 115 375 121 l 575 575 b 669 368 633 532 669 458 b 435 115 669 218 572 115 z "},"õ":{"ha":868,"x_min":0,"x_max":0,"o":"m 658 1044 l 557 1044 b 504 976 557 1000 539 976 b 339 1053 457 976 415 1053 b 211 871 256 1053 211 992 l 314 871 b 365 939 314 915 332 939 b 532 863 414 939 449 863 b 658 1044 615 863 658 924 z m 435 744 b 49 371 206 744 49 593 b 435 -6 49 147 206 -6 b 819 371 663 -6 819 147 b 435 744 819 593 663 744 z m 435 608 b 660 368 567 608 660 510 b 435 128 660 225 567 128 b 208 368 301 128 208 225 b 435 608 208 510 301 608 z "},"ṍ":{"ha":868,"x_min":0,"x_max":0,"o":"m 503 1322 l 356 1117 l 497 1117 l 667 1253 z m 658 1044 l 557 1044 b 504 976 557 1000 539 976 b 339 1053 457 976 415 1053 b 211 871 256 1053 211 992 l 314 871 b 365 939 314 915 332 939 b 532 863 414 939 449 863 b 658 1044 615 863 658 924 z m 435 744 b 49 371 206 744 49 593 b 435 -6 49 147 206 -6 b 819 371 663 -6 819 147 b 435 744 819 593 663 744 z m 435 608 b 660 368 567 608 660 510 b 435 128 660 225 567 128 b 208 368 301 128 208 225 b 435 608 208 510 301 608 z "},"ṏ":{"ha":868,"x_min":0,"x_max":0,"o":"m 311 1308 b 226 1221 263 1308 226 1272 b 311 1133 226 1172 263 1133 b 396 1221 358 1133 396 1172 b 311 1308 396 1272 358 1308 z m 557 1308 b 472 1221 508 1308 472 1272 b 557 1133 472 1172 508 1133 b 642 1221 604 1133 642 1172 b 557 1308 642 1272 604 1308 z m 658 1044 l 557 1044 b 504 976 557 1000 539 976 b 339 1053 457 976 415 1053 b 211 871 256 1053 211 992 l 314 871 b 365 939 314 915 332 939 b 532 863 414 939 449 863 b 658 1044 615 863 658 924 z m 435 744 b 49 371 206 744 49 593 b 435 -6 49 147 206 -6 b 819 371 663 -6 819 147 b 435 744 819 593 663 744 z m 435 608 b 660 368 567 608 660 510 b 435 128 660 225 567 128 b 208 368 301 128 208 225 b 435 608 208 510 301 608 z "},"ȭ":{"ha":868,"x_min":0,"x_max":0,"o":"m 257 1250 l 257 1135 l 611 1135 l 611 1250 z m 658 1044 l 557 1044 b 504 976 557 1000 539 976 b 339 1053 457 976 415 1053 b 211 871 256 1053 211 992 l 314 871 b 365 939 314 915 332 939 b 532 863 414 939 449 863 b 658 1044 615 863 658 924 z m 435 744 b 49 371 206 744 49 593 b 435 -6 49 147 206 -6 b 819 371 663 -6 819 147 b 435 744 819 593 663 744 z m 435 608 b 660 368 567 608 660 510 b 435 128 660 225 567 128 b 208 368 301 128 208 225 b 435 608 208 510 301 608 z "},"œ":{"ha":1446,"x_min":0,"x_max":0,"o":"m 1031 744 b 736 581 897 744 794 682 b 435 744 679 683 574 744 b 49 369 206 744 49 593 b 435 -6 49 147 206 -6 b 736 158 572 -6 678 56 b 1033 -6 793 56 896 -6 b 1342 119 1163 -6 1268 40 l 1257 210 b 1047 124 1201 154 1128 124 b 811 335 919 124 828 204 l 1399 335 b 1031 744 1406 579 1261 744 z m 811 421 b 1032 626 828 543 913 626 b 1239 421 1153 626 1235 542 z m 435 128 b 208 368 301 128 208 225 b 435 607 208 510 301 607 b 660 368 567 607 660 510 b 435 128 660 225 567 128 z "},"p":{"ha":944,"x_min":0,"x_max":0,"o":"m 543 744 b 285 611 428 744 339 697 l 285 739 l 125 739 l 125 -269 l 285 -269 l 285 128 b 546 -6 339 42 428 -6 b 896 367 757 -6 896 146 b 543 744 896 592 753 744 z m 510 131 b 285 372 378 131 285 229 b 510 611 285 511 378 611 b 735 372 642 611 735 510 b 510 131 735 231 642 131 z "},"þ":{"ha":944,"x_min":0,"x_max":0,"o":"m 285 615 l 285 1031 l 125 1031 l 125 -269 l 285 -269 l 285 125 b 546 -6 339 40 428 -6 b 896 367 757 -6 896 146 b 543 744 896 592 753 744 b 285 615 428 744 339 699 z m 510 611 b 735 372 642 611 735 510 b 510 131 735 231 642 131 b 285 372 378 131 285 229 b 510 611 285 511 378 611 z "},"q":{"ha":947,"x_min":0,"x_max":0,"o":"m 663 739 l 663 611 b 400 746 608 697 519 746 b 49 372 192 746 49 594 b 403 -7 49 147 190 -7 b 663 126 521 -7 610 40 l 663 -269 l 822 -269 l 822 739 z m 436 126 b 208 367 301 126 210 226 b 436 610 210 508 303 610 b 663 367 569 610 663 510 b 436 126 663 226 569 126 z "},"r":{"ha":547,"x_min":0,"x_max":0,"o":"m 278 592 l 278 739 l 118 739 l 118 0 l 278 0 l 278 386 b 533 592 290 513 385 600 l 533 744 b 278 592 417 744 328 692 z "},"ŕ":{"ha":547,"x_min":0,"x_max":0,"o":"m 550 982 l 386 1051 l 239 846 l 381 846 z m 278 592 l 278 739 l 118 739 l 118 0 l 278 0 l 278 386 b 533 592 290 513 385 600 l 533 744 b 278 592 417 744 328 692 z "},"ř":{"ha":547,"x_min":0,"x_max":0,"o":"m 407 836 l 557 1044 l 415 1044 l 328 915 l 240 1044 l 99 1044 l 249 836 z m 278 592 l 278 739 l 118 739 l 118 0 l 278 0 l 278 386 b 533 592 290 513 385 600 l 533 744 b 278 592 417 744 328 692 z "},"ŗ":{"ha":547,"x_min":0,"x_max":0,"o":"m 278 592 l 278 739 l 118 739 l 118 0 l 278 0 l 278 386 b 533 592 290 513 385 600 l 533 744 b 278 592 417 744 328 692 z m 194 -69 b 108 -157 144 -69 108 -107 b 146 -226 108 -185 121 -211 l 93 -346 l 175 -346 l 254 -228 b 279 -156 269 -206 279 -183 b 194 -69 279 -101 239 -69 z "},"ȑ":{"ha":547,"x_min":0,"x_max":0,"o":"m 293 846 l 178 1060 l 42 999 l 169 846 z m 522 846 l 407 1060 l 271 999 l 399 846 z m 278 592 l 278 739 l 118 739 l 118 0 l 278 0 l 278 386 b 533 592 290 513 385 600 l 533 744 b 278 592 417 744 328 692 z "},"ṛ":{"ha":547,"x_min":0,"x_max":0,"o":"m 278 592 l 278 739 l 118 739 l 118 0 l 278 0 l 278 386 b 533 592 290 513 385 600 l 533 744 b 278 592 417 744 328 692 z m 194 -69 b 101 -165 142 -69 101 -110 b 194 -260 101 -219 142 -260 b 288 -165 247 -260 288 -219 b 194 -69 288 -110 247 -69 z "},"ȓ":{"ha":547,"x_min":0,"x_max":0,"o":"m 332 935 b 419 843 381 935 417 897 l 528 843 b 332 1040 524 963 443 1040 b 136 843 221 1040 140 963 l 244 843 b 332 935 247 897 283 935 z m 278 592 l 278 739 l 118 739 l 118 0 l 278 0 l 278 386 b 533 592 290 513 385 600 l 533 744 b 278 592 417 744 328 692 z "},"ṟ":{"ha":547,"x_min":0,"x_max":0,"o":"m 278 592 l 278 739 l 118 739 l 118 0 l 278 0 l 278 386 b 533 592 290 513 385 600 l 533 744 b 278 592 417 744 328 692 z m 17 -203 l 371 -203 l 371 -87 l 17 -87 z "},"s":{"ha":653,"x_min":0,"x_max":0,"o":"m 539 553 l 597 671 b 339 746 531 718 432 746 b 67 532 197 746 67 682 b 454 199 65 265 454 350 b 333 119 454 143 401 119 b 86 211 253 119 150 154 l 29 97 b 326 -6 103 31 218 -6 b 610 214 475 -6 610 63 b 218 544 611 482 218 408 b 326 618 218 597 264 618 b 539 553 392 618 474 593 z "},"ś":{"ha":653,"x_min":0,"x_max":0,"o":"m 389 1051 l 242 846 l 383 846 l 553 982 z m 539 553 l 597 671 b 339 746 531 718 432 746 b 67 532 197 746 67 682 b 454 199 65 265 454 350 b 333 119 454 143 401 119 b 86 211 253 119 150 154 l 29 97 b 326 -6 103 31 218 -6 b 610 214 475 -6 610 63 b 218 544 611 482 218 408 b 326 618 218 597 264 618 b 539 553 392 618 474 593 z "},"ṥ":{"ha":653,"x_min":0,"x_max":0,"o":"m 335 1301 b 242 1206 282 1301 242 1261 b 335 1111 242 1151 282 1111 b 428 1206 388 1111 428 1151 b 335 1301 428 1261 388 1301 z m 403 1051 l 256 846 l 397 846 l 567 982 z m 539 553 l 597 671 b 339 746 531 718 432 746 b 67 532 197 746 67 682 b 454 199 65 265 454 350 b 333 119 454 143 401 119 b 86 211 253 119 150 154 l 29 97 b 326 -6 103 31 218 -6 b 610 214 475 -6 610 63 b 218 544 611 482 218 408 b 326 618 218 597 264 618 b 539 553 392 618 474 593 z "},"š":{"ha":653,"x_min":0,"x_max":0,"o":"m 101 1044 l 251 836 l 410 836 l 560 1044 l 418 1044 l 331 915 l 243 1044 z m 539 553 l 597 671 b 339 746 531 718 432 746 b 67 532 197 746 67 682 b 454 199 65 265 454 350 b 333 119 454 143 401 119 b 86 211 253 119 150 154 l 29 97 b 326 -6 103 31 218 -6 b 610 214 475 -6 610 63 b 218 544 611 482 218 408 b 326 618 218 597 264 618 b 539 553 392 618 474 593 z "},"ṧ":{"ha":653,"x_min":0,"x_max":0,"o":"m 335 1301 b 242 1206 282 1301 242 1261 b 335 1111 242 1151 282 1111 b 428 1206 388 1111 428 1151 b 335 1301 428 1261 388 1301 z m 106 1049 l 256 840 l 414 840 l 564 1049 l 422 1049 l 335 919 l 247 1049 z m 539 553 l 597 671 b 339 746 531 718 432 746 b 67 532 197 746 67 682 b 454 199 65 265 454 350 b 333 119 454 143 401 119 b 86 211 253 119 150 154 l 29 97 b 326 -6 103 31 218 -6 b 610 214 475 -6 610 63 b 218 544 611 482 218 408 b 326 618 218 597 264 618 b 539 553 392 618 474 593 z "},"ş":{"ha":653,"x_min":0,"x_max":0,"o":"m 218 544 b 326 618 218 597 264 618 b 539 553 392 618 474 593 l 597 671 b 339 746 531 718 432 746 b 67 532 197 746 67 682 b 454 199 65 265 454 350 b 333 119 454 143 401 119 b 86 211 253 119 150 154 l 29 97 b 300 -4 97 36 200 0 l 250 -122 b 299 -115 265 -118 283 -115 b 365 -168 344 -115 365 -142 b 301 -225 365 -196 342 -225 b 221 -197 274 -225 244 -215 l 190 -272 b 313 -311 222 -296 267 -311 b 460 -179 394 -311 460 -260 b 363 -69 460 -118 421 -81 l 396 0 b 610 214 514 18 610 86 b 218 544 611 482 218 408 z "},"ŝ":{"ha":653,"x_min":0,"x_max":0,"o":"m 261 1044 l 118 849 l 249 849 l 335 971 l 421 849 l 551 849 l 408 1044 z m 539 553 l 597 671 b 339 746 531 718 432 746 b 67 532 197 746 67 682 b 454 199 65 265 454 350 b 333 119 454 143 401 119 b 86 211 253 119 150 154 l 29 97 b 326 -6 103 31 218 -6 b 610 214 475 -6 610 63 b 218 544 611 482 218 408 b 326 618 218 597 264 618 b 539 553 392 618 474 593 z "},"ș":{"ha":653,"x_min":0,"x_max":0,"o":"m 218 544 b 326 618 218 597 264 618 b 539 553 392 618 474 593 l 597 671 b 339 746 531 718 432 746 b 67 532 197 746 67 682 b 454 199 65 265 454 350 b 333 119 454 143 401 119 b 86 211 253 119 150 154 l 29 97 b 326 -6 103 31 218 -6 b 610 214 475 -6 610 63 b 218 544 611 482 218 408 z m 325 -69 b 239 -157 275 -69 239 -107 b 276 -226 239 -185 251 -211 l 224 -346 l 306 -346 l 385 -228 b 410 -156 400 -206 410 -183 b 325 -69 410 -101 369 -69 z "},"ṡ":{"ha":653,"x_min":0,"x_max":0,"o":"m 335 1046 b 242 950 282 1046 242 1006 b 335 856 242 896 282 856 b 428 950 388 856 428 896 b 335 1046 428 1006 388 1046 z m 539 553 l 597 671 b 339 746 531 718 432 746 b 67 532 197 746 67 682 b 454 199 65 265 454 350 b 333 119 454 143 401 119 b 86 211 253 119 150 154 l 29 97 b 326 -6 103 31 218 -6 b 610 214 475 -6 610 63 b 218 544 611 482 218 408 b 326 618 218 597 264 618 b 539 553 392 618 474 593 z "},"ṣ":{"ha":653,"x_min":0,"x_max":0,"o":"m 539 553 l 597 671 b 339 746 531 718 432 746 b 67 532 197 746 67 682 b 454 199 65 265 454 350 b 333 119 454 143 401 119 b 86 211 253 119 150 154 l 29 97 b 326 -6 103 31 218 -6 b 610 214 475 -6 610 63 b 218 544 611 482 218 408 b 326 618 218 597 264 618 b 539 553 392 618 474 593 z m 325 -69 b 232 -165 272 -69 232 -110 b 325 -260 232 -219 272 -260 b 418 -165 378 -260 418 -219 b 325 -69 418 -110 378 -69 z "},"ṩ":{"ha":653,"x_min":0,"x_max":0,"o":"m 335 1046 b 242 950 282 1046 242 1006 b 335 856 242 896 282 856 b 428 950 388 856 428 896 b 335 1046 428 1006 388 1046 z m 539 553 l 597 671 b 339 746 531 718 432 746 b 67 532 197 746 67 682 b 454 199 65 265 454 350 b 333 119 454 143 401 119 b 86 211 253 119 150 154 l 29 97 b 326 -6 103 31 218 -6 b 610 214 475 -6 610 63 b 218 544 611 482 218 408 b 326 618 218 597 264 618 b 539 553 392 618 474 593 z m 325 -69 b 232 -165 272 -69 232 -110 b 325 -260 232 -219 272 -260 b 418 -165 378 -260 418 -219 b 325 -69 418 -110 378 -69 z "},"ß":{"ha":908,"x_min":0,"x_max":0,"o":"m 108 678 l 108 0 l 267 0 l 267 689 b 460 908 267 824 340 908 b 632 744 563 908 632 846 b 436 574 632 640 556 574 l 436 451 l 454 451 b 686 288 594 451 686 392 b 489 124 686 192 608 124 l 406 124 l 406 0 l 476 0 b 842 292 699 0 842 122 b 625 529 842 425 750 504 b 786 769 724 567 786 661 b 463 1038 786 932 653 1038 b 108 678 242 1038 108 896 z "},"t":{"ha":565,"x_min":0,"x_max":0,"o":"m 496 169 b 385 138 453 149 418 138 b 306 238 335 138 306 161 l 306 592 l 524 592 l 524 711 l 306 711 l 306 914 l 147 914 l 147 711 l 43 711 l 43 592 l 147 592 l 147 208 b 354 -7 147 57 243 -7 b 536 47 417 -7 478 13 z "},"ŧ":{"ha":565,"x_min":0,"x_max":0,"o":"m 496 169 b 385 138 453 149 418 138 b 306 238 335 138 306 161 l 306 346 l 524 346 l 524 463 l 306 463 l 306 594 l 524 594 l 524 711 l 306 711 l 306 914 l 147 914 l 147 711 l 43 711 l 43 594 l 147 594 l 147 463 l 43 463 l 43 346 l 147 346 l 147 208 b 354 -7 147 57 243 -7 b 536 47 417 -7 478 13 z "},"ť":{"ha":565,"x_min":0,"x_max":0,"o":"m 542 1031 l 392 1031 l 392 797 l 500 797 z m 385 138 b 306 238 335 138 306 161 l 306 592 l 524 592 l 524 711 l 306 711 l 306 914 l 147 914 l 147 711 l 43 711 l 43 592 l 147 592 l 147 208 b 354 -7 147 57 243 -7 b 536 47 417 -7 478 13 l 496 169 b 385 138 453 149 418 138 z "},"ţ":{"ha":565,"x_min":0,"x_max":0,"o":"m 378 -69 l 410 -1 b 536 47 453 6 496 22 l 496 169 b 385 138 453 149 418 138 b 306 238 335 138 306 161 l 306 592 l 524 592 l 524 711 l 306 711 l 306 914 l 147 914 l 147 711 l 43 711 l 43 592 l 147 592 l 147 208 b 315 -4 147 75 222 10 l 265 -122 b 314 -115 281 -118 299 -115 b 381 -168 360 -115 381 -142 b 317 -225 381 -196 357 -225 b 236 -197 289 -225 260 -215 l 206 -272 b 328 -311 238 -296 282 -311 b 475 -179 410 -311 475 -260 b 378 -69 475 -118 436 -81 z "},"ț":{"ha":565,"x_min":0,"x_max":0,"o":"m 536 47 l 496 169 b 385 138 453 149 418 138 b 306 238 335 138 306 161 l 306 592 l 524 592 l 524 711 l 306 711 l 306 914 l 147 914 l 147 711 l 43 711 l 43 592 l 147 592 l 147 208 b 354 -7 147 57 243 -7 b 536 47 417 -7 478 13 z m 340 -69 b 254 -157 290 -69 254 -107 b 292 -226 254 -185 267 -211 l 239 -346 l 321 -346 l 400 -228 b 425 -156 415 -206 425 -183 b 340 -69 425 -101 385 -69 z "},"ẗ":{"ha":565,"x_min":0,"x_max":0,"o":"m 103 1038 b 188 1125 150 1038 188 1076 b 103 1213 188 1176 150 1213 b 18 1125 54 1213 18 1176 b 103 1038 18 1076 54 1038 z m 349 1038 b 433 1125 396 1038 433 1076 b 349 1213 433 1176 396 1213 b 264 1125 300 1213 264 1176 b 349 1038 264 1076 300 1038 z m 496 169 b 385 138 453 149 418 138 b 306 238 335 138 306 161 l 306 592 l 524 592 l 524 711 l 306 711 l 306 914 l 147 914 l 147 711 l 43 711 l 43 592 l 147 592 l 147 208 b 354 -7 147 57 243 -7 b 536 47 417 -7 478 13 z "},"ṭ":{"ha":565,"x_min":0,"x_max":0,"o":"m 536 47 l 496 169 b 385 138 453 149 418 138 b 306 238 335 138 306 161 l 306 592 l 524 592 l 524 711 l 306 711 l 306 914 l 147 914 l 147 711 l 43 711 l 43 592 l 147 592 l 147 208 b 354 -7 147 57 243 -7 b 536 47 417 -7 478 13 z m 340 -69 b 247 -165 288 -69 247 -110 b 340 -260 247 -219 288 -260 b 433 -165 393 -260 433 -219 b 340 -69 433 -110 393 -69 z "},"ṯ":{"ha":565,"x_min":0,"x_max":0,"o":"m 354 -7 b 536 47 417 -7 478 13 l 496 169 b 385 138 453 149 418 138 b 306 238 335 138 306 161 l 306 592 l 524 592 l 524 711 l 306 711 l 306 914 l 147 914 l 147 711 l 43 711 l 43 592 l 147 592 l 147 208 b 354 -7 147 57 243 -7 z m 163 -203 l 517 -203 l 517 -87 l 163 -87 z "},"u":{"ha":907,"x_min":0,"x_max":0,"o":"m 629 739 l 629 375 b 426 144 629 246 554 147 b 254 324 319 144 254 213 l 254 739 l 94 739 l 94 279 b 365 -6 94 103 196 -6 b 629 144 486 -4 579 42 l 629 0 l 789 0 l 789 739 z "},"ú":{"ha":907,"x_min":0,"x_max":0,"o":"m 660 982 l 496 1051 l 349 846 l 490 846 z m 629 739 l 629 375 b 426 144 629 246 554 147 b 254 324 319 144 254 213 l 254 739 l 94 739 l 94 279 b 365 -6 94 103 196 -6 b 629 144 486 -4 579 42 l 629 0 l 789 0 l 789 739 z "},"ŭ":{"ha":907,"x_min":0,"x_max":0,"o":"m 442 842 b 638 1039 553 842 633 921 l 529 1039 b 442 949 526 986 490 949 b 354 1039 393 949 357 986 l 246 1039 b 442 842 250 921 331 842 z m 629 739 l 629 375 b 426 144 629 246 554 147 b 254 324 319 144 254 213 l 254 739 l 94 739 l 94 279 b 365 -6 94 103 196 -6 b 629 144 486 -4 579 42 l 629 0 l 789 0 l 789 739 z "},"û":{"ha":907,"x_min":0,"x_max":0,"o":"m 442 971 l 528 849 l 658 849 l 515 1044 l 368 1044 l 225 849 l 356 849 z m 629 739 l 629 375 b 426 144 629 246 554 147 b 254 324 319 144 254 213 l 254 739 l 94 739 l 94 279 b 365 -6 94 103 196 -6 b 629 144 486 -4 579 42 l 629 0 l 789 0 l 789 739 z "},"ȕ":{"ha":907,"x_min":0,"x_max":0,"o":"m 403 846 l 288 1060 l 151 999 l 279 846 z m 632 846 l 517 1060 l 381 999 l 508 846 z m 629 739 l 629 375 b 426 144 629 246 554 147 b 254 324 319 144 254 213 l 254 739 l 94 739 l 94 279 b 365 -6 94 103 196 -6 b 629 144 486 -4 579 42 l 629 0 l 789 0 l 789 739 z "},"ü":{"ha":907,"x_min":0,"x_max":0,"o":"m 319 863 b 404 950 367 863 404 901 b 319 1038 404 1001 367 1038 b 235 950 271 1038 235 1001 b 319 863 235 901 271 863 z m 565 863 b 650 950 613 863 650 901 b 565 1038 650 1001 613 1038 b 481 950 517 1038 481 1001 b 565 863 481 901 517 863 z m 629 739 l 629 375 b 426 144 629 246 554 147 b 254 324 319 144 254 213 l 254 739 l 94 739 l 94 279 b 365 -6 94 103 196 -6 b 629 144 486 -4 579 42 l 629 0 l 789 0 l 789 739 z "},"ụ":{"ha":907,"x_min":0,"x_max":0,"o":"m 629 739 l 629 375 b 426 144 629 246 554 147 b 254 324 319 144 254 213 l 254 739 l 94 739 l 94 279 b 365 -6 94 103 196 -6 b 629 144 486 -4 579 42 l 629 0 l 789 0 l 789 739 z m 463 -71 b 369 -165 408 -71 369 -110 b 463 -260 369 -219 408 -260 b 556 -165 515 -260 556 -219 b 463 -71 556 -110 515 -71 z "},"ù":{"ha":907,"x_min":0,"x_max":0,"o":"m 528 846 l 381 1051 l 217 982 l 386 846 z m 629 739 l 629 375 b 426 144 629 246 554 147 b 254 324 319 144 254 213 l 254 739 l 94 739 l 94 279 b 365 -6 94 103 196 -6 b 629 144 486 -4 579 42 l 629 0 l 789 0 l 789 739 z "},"ủ":{"ha":907,"x_min":0,"x_max":0,"o":"m 438 997 b 497 942 476 997 497 972 b 415 829 497 900 465 868 l 492 803 b 578 947 546 847 578 888 b 439 1076 578 1022 524 1076 b 292 961 361 1076 303 1035 l 367 936 b 438 997 372 972 396 997 z m 629 739 l 629 375 b 426 144 629 246 554 147 b 254 324 319 144 254 213 l 254 739 l 94 739 l 94 279 b 365 -6 94 103 196 -6 b 629 144 486 -4 579 42 l 629 0 l 789 0 l 789 739 z "},"ư":{"ha":907,"x_min":0,"x_max":0,"o":"m 953 849 l 831 849 b 776 739 831 803 810 764 l 629 739 l 629 375 b 426 144 629 246 554 147 b 254 324 319 144 254 213 l 254 739 l 94 739 l 94 279 b 365 -6 94 103 196 -6 b 629 144 486 -4 579 42 l 629 0 l 789 0 l 789 617 b 953 849 888 651 953 740 z "},"ứ":{"ha":907,"x_min":0,"x_max":0,"o":"m 681 982 l 517 1051 l 369 846 l 511 846 z m 953 849 l 831 849 b 776 739 831 803 810 764 l 629 739 l 629 375 b 426 144 629 246 554 147 b 254 324 319 144 254 213 l 254 739 l 94 739 l 94 279 b 365 -6 94 103 196 -6 b 629 144 486 -4 579 42 l 629 0 l 789 0 l 789 617 b 953 849 888 651 953 740 z "},"ự":{"ha":907,"x_min":0,"x_max":0,"o":"m 953 849 l 831 849 b 776 739 831 803 810 764 l 629 739 l 629 375 b 426 144 629 246 554 147 b 254 324 319 144 254 213 l 254 739 l 94 739 l 94 279 b 365 -6 94 103 196 -6 b 629 144 486 -4 579 42 l 629 0 l 789 0 l 789 617 b 953 849 888 651 953 740 z m 463 -71 b 369 -165 408 -71 369 -110 b 463 -260 369 -219 408 -260 b 556 -165 515 -260 556 -219 b 463 -71 556 -110 515 -71 z "},"ừ":{"ha":907,"x_min":0,"x_max":0,"o":"m 528 846 l 381 1051 l 217 982 l 386 846 z m 953 849 l 831 849 b 776 739 831 803 810 764 l 629 739 l 629 375 b 426 144 629 246 554 147 b 254 324 319 144 254 213 l 254 739 l 94 739 l 94 279 b 365 -6 94 103 196 -6 b 629 144 486 -4 579 42 l 629 0 l 789 0 l 789 617 b 953 849 888 651 953 740 z "},"ử":{"ha":907,"x_min":0,"x_max":0,"o":"m 444 997 b 504 942 483 997 504 972 b 422 829 504 900 472 868 l 499 803 b 585 947 553 847 585 888 b 446 1076 585 1022 531 1076 b 299 961 368 1076 310 1035 l 374 936 b 444 997 379 972 403 997 z m 953 849 l 831 849 b 776 739 831 803 810 764 l 629 739 l 629 375 b 426 144 629 246 554 147 b 254 324 319 144 254 213 l 254 739 l 94 739 l 94 279 b 365 -6 94 103 196 -6 b 629 144 486 -4 579 42 l 629 0 l 789 0 l 789 617 b 953 849 888 651 953 740 z "},"ữ":{"ha":907,"x_min":0,"x_max":0,"o":"m 379 939 b 546 863 428 939 463 863 b 672 1044 629 863 672 924 l 571 1044 b 518 976 571 1000 553 976 b 353 1053 471 976 429 1053 b 225 871 269 1053 225 992 l 328 871 b 379 939 328 915 346 939 z m 953 849 l 831 849 b 776 739 831 803 810 764 l 629 739 l 629 375 b 426 144 629 246 554 147 b 254 324 319 144 254 213 l 254 739 l 94 739 l 94 279 b 365 -6 94 103 196 -6 b 629 144 486 -4 579 42 l 629 0 l 789 0 l 789 617 b 953 849 888 651 953 740 z "},"ű":{"ha":907,"x_min":0,"x_max":0,"o":"m 490 994 l 354 1056 l 239 842 l 363 842 z m 592 842 l 719 994 l 583 1056 l 468 842 z m 629 739 l 629 375 b 426 144 629 246 554 147 b 254 324 319 144 254 213 l 254 739 l 94 739 l 94 279 b 365 -6 94 103 196 -6 b 629 144 486 -4 579 42 l 629 0 l 789 0 l 789 739 z "},"ȗ":{"ha":907,"x_min":0,"x_max":0,"o":"m 442 935 b 529 843 490 935 526 897 l 638 843 b 442 1040 633 963 553 1040 b 246 843 331 1040 250 963 l 354 843 b 442 935 357 897 393 935 z m 629 739 l 629 375 b 426 144 629 246 554 147 b 254 324 319 144 254 213 l 254 739 l 94 739 l 94 279 b 365 -6 94 103 196 -6 b 629 144 486 -4 579 42 l 629 0 l 789 0 l 789 739 z "},"ū":{"ha":907,"x_min":0,"x_max":0,"o":"m 619 1006 l 265 1006 l 265 890 l 619 890 z m 629 739 l 629 375 b 426 144 629 246 554 147 b 254 324 319 144 254 213 l 254 739 l 94 739 l 94 279 b 365 -6 94 103 196 -6 b 629 144 486 -4 579 42 l 629 0 l 789 0 l 789 739 z "},"ṻ":{"ha":907,"x_min":0,"x_max":0,"o":"m 318 1093 b 403 1181 365 1093 403 1132 b 318 1268 403 1232 365 1268 b 233 1181 269 1268 233 1232 b 318 1093 233 1132 269 1093 z m 564 1093 b 649 1181 611 1093 649 1132 b 564 1268 649 1232 611 1268 b 479 1181 515 1268 479 1232 b 564 1093 479 1132 515 1093 z m 264 864 l 618 864 l 618 979 l 264 979 z m 629 739 l 629 375 b 426 144 629 246 554 147 b 254 324 319 144 254 213 l 254 739 l 94 739 l 94 279 b 365 -6 94 103 196 -6 b 629 144 486 -4 579 42 l 629 0 l 789 0 l 789 739 z "},"ų":{"ha":899,"x_min":0,"x_max":0,"o":"m 751 0 l 786 0 l 786 739 l 628 739 l 628 346 b 426 144 617 232 543 147 b 253 324 319 144 253 213 l 253 739 l 94 739 l 94 279 b 364 -6 94 103 194 -6 b 628 138 485 -4 576 40 l 628 0 l 668 0 b 596 -171 622 -65 596 -119 b 706 -279 596 -247 653 -279 b 838 -200 757 -279 806 -250 l 792 -146 b 724 -190 771 -172 749 -190 b 682 -146 699 -190 682 -174 b 751 0 682 -114 701 -67 z "},"ů":{"ha":907,"x_min":0,"x_max":0,"o":"m 442 790 b 606 951 532 790 606 863 b 442 1113 606 1039 532 1113 b 278 951 351 1113 278 1039 b 442 790 278 863 351 790 z m 442 1040 b 536 951 493 1040 536 1000 b 442 863 536 903 493 863 b 347 951 390 863 347 903 b 442 1040 347 1000 390 1040 z m 629 739 l 629 375 b 426 144 629 246 554 147 b 254 324 319 144 254 213 l 254 739 l 94 739 l 94 279 b 365 -6 94 103 196 -6 b 629 144 486 -4 579 42 l 629 0 l 789 0 l 789 739 z "},"ũ":{"ha":907,"x_min":0,"x_max":0,"o":"m 372 939 b 539 863 421 939 456 863 b 665 1044 622 863 665 924 l 564 1044 b 511 976 564 1000 546 976 b 346 1053 464 976 422 1053 b 218 871 263 1053 218 992 l 321 871 b 372 939 321 915 339 939 z m 629 739 l 629 375 b 426 144 629 246 554 147 b 254 324 319 144 254 213 l 254 739 l 94 739 l 94 279 b 365 -6 94 103 196 -6 b 629 144 486 -4 579 42 l 629 0 l 789 0 l 789 739 z "},"ṹ":{"ha":907,"x_min":0,"x_max":0,"o":"m 674 1253 l 510 1322 l 363 1117 l 504 1117 z m 372 939 b 539 863 421 939 456 863 b 665 1044 622 863 665 924 l 564 1044 b 511 976 564 1000 546 976 b 346 1053 464 976 422 1053 b 218 871 263 1053 218 992 l 321 871 b 372 939 321 915 339 939 z m 629 739 l 629 375 b 426 144 629 246 554 147 b 254 324 319 144 254 213 l 254 739 l 94 739 l 94 279 b 365 -6 94 103 196 -6 b 629 144 486 -4 579 42 l 629 0 l 789 0 l 789 739 z "},"v":{"ha":729,"x_min":0,"x_max":0,"o":"m 1 739 l 288 0 l 453 0 l 736 739 l 576 739 l 374 157 l 168 739 z "},"w":{"ha":1240,"x_min":0,"x_max":0,"o":"m 1 739 l 274 0 l 438 0 l 625 547 l 813 0 l 978 0 l 1247 739 l 1085 739 l 896 158 l 708 739 l 543 739 l 357 158 l 165 739 z "},"ẃ":{"ha":1240,"x_min":0,"x_max":0,"o":"m 681 1051 l 533 846 l 675 846 l 844 982 z m 1 739 l 274 0 l 438 0 l 625 547 l 813 0 l 978 0 l 1247 739 l 1085 739 l 896 158 l 708 739 l 543 739 l 357 158 l 165 739 z "},"ŵ":{"ha":1240,"x_min":0,"x_max":0,"o":"m 553 1044 l 410 849 l 540 849 l 626 971 l 713 849 l 843 849 l 700 1044 z m 1 739 l 274 0 l 438 0 l 625 547 l 813 0 l 978 0 l 1247 739 l 1085 739 l 896 158 l 708 739 l 543 739 l 357 158 l 165 739 z "},"ẅ":{"ha":1240,"x_min":0,"x_max":0,"o":"m 504 1038 b 419 950 456 1038 419 1001 b 504 863 419 901 456 863 b 589 950 551 863 589 901 b 504 1038 589 1001 551 1038 z m 750 1038 b 665 950 701 1038 665 1001 b 750 863 665 901 701 863 b 835 950 797 863 835 901 b 750 1038 835 1001 797 1038 z m 1 739 l 274 0 l 438 0 l 625 547 l 813 0 l 978 0 l 1247 739 l 1085 739 l 896 158 l 708 739 l 543 739 l 357 158 l 165 739 z "},"ẁ":{"ha":1240,"x_min":0,"x_max":0,"o":"m 565 1051 l 401 982 l 571 846 l 713 846 z m 1 739 l 274 0 l 438 0 l 625 547 l 813 0 l 978 0 l 1247 739 l 1085 739 l 896 158 l 708 739 l 543 739 l 357 158 l 165 739 z "},"x":{"ha":769,"x_min":0,"x_max":0,"o":"m 38 739 l 281 379 l 19 0 l 197 0 l 386 271 l 563 0 l 746 0 l 492 379 l 729 739 l 554 739 l 386 486 l 221 739 z "},"y":{"ha":738,"x_min":0,"x_max":0,"o":"m 408 -101 l 744 739 l 585 739 l 379 179 l 158 739 l -7 739 l 299 11 l 274 -44 b 161 -126 249 -100 210 -126 b 65 -90 128 -126 100 -115 l -3 -214 b 168 -276 49 -257 101 -276 b 408 -101 279 -276 363 -218 z "},"ý":{"ha":738,"x_min":0,"x_max":0,"o":"m 426 1051 l 279 846 l 421 846 l 590 982 z m 408 -101 l 744 739 l 585 739 l 379 179 l 158 739 l -7 739 l 299 11 l 274 -44 b 161 -126 249 -100 210 -126 b 65 -90 128 -126 100 -115 l -3 -214 b 168 -276 49 -257 101 -276 b 408 -101 279 -276 363 -218 z "},"ŷ":{"ha":738,"x_min":0,"x_max":0,"o":"m 299 1044 l 156 849 l 286 849 l 372 971 l 458 849 l 589 849 l 446 1044 z m 408 -101 l 744 739 l 585 739 l 379 179 l 158 739 l -7 739 l 299 11 l 274 -44 b 161 -126 249 -100 210 -126 b 65 -90 128 -126 100 -115 l -3 -214 b 168 -276 49 -257 101 -276 b 408 -101 279 -276 363 -218 z "},"ÿ":{"ha":738,"x_min":0,"x_max":0,"o":"m 250 1038 b 165 950 201 1038 165 1001 b 250 863 165 901 201 863 b 335 950 297 863 335 901 b 250 1038 335 1001 297 1038 z m 496 1038 b 411 950 447 1038 411 1001 b 496 863 411 901 447 863 b 581 950 543 863 581 901 b 496 1038 581 1001 543 1038 z m 408 -101 l 744 739 l 585 739 l 379 179 l 158 739 l -7 739 l 299 11 l 274 -44 b 161 -126 249 -100 210 -126 b 65 -90 128 -126 100 -115 l -3 -214 b 168 -276 49 -257 101 -276 b 408 -101 279 -276 363 -218 z "},"ẏ":{"ha":738,"x_min":0,"x_max":0,"o":"m 372 1046 b 279 950 319 1046 279 1006 b 372 856 279 896 319 856 b 465 950 425 856 465 896 b 372 1046 465 1006 425 1046 z m 408 -101 l 744 739 l 585 739 l 379 179 l 158 739 l -7 739 l 299 11 l 274 -44 b 161 -126 249 -100 210 -126 b 65 -90 128 -126 100 -115 l -3 -214 b 168 -276 49 -257 101 -276 b 408 -101 279 -276 363 -218 z "},"ỵ":{"ha":738,"x_min":0,"x_max":0,"o":"m 408 -101 l 744 739 l 585 739 l 379 179 l 158 739 l -7 739 l 299 11 l 274 -44 b 161 -126 249 -100 210 -126 b 65 -90 128 -126 100 -115 l -3 -214 b 168 -276 49 -257 101 -276 b 408 -101 279 -276 363 -218 z m 578 -71 b 485 -165 524 -71 485 -110 b 578 -260 485 -219 524 -260 b 671 -165 631 -260 671 -219 b 578 -71 671 -110 631 -71 z "},"ỳ":{"ha":738,"x_min":0,"x_max":0,"o":"m 311 1051 l 147 982 l 317 846 l 458 846 z m 408 -101 l 744 739 l 585 739 l 379 179 l 158 739 l -7 739 l 299 11 l 274 -44 b 161 -126 249 -100 210 -126 b 65 -90 128 -126 100 -115 l -3 -214 b 168 -276 49 -257 101 -276 b 408 -101 279 -276 363 -218 z "},"ỷ":{"ha":738,"x_min":0,"x_max":0,"o":"m 222 961 l 297 936 b 368 997 303 972 326 997 b 428 942 407 997 428 972 b 346 829 428 900 396 868 l 422 803 b 508 947 476 847 508 888 b 369 1076 508 1022 454 1076 b 222 961 292 1076 233 1035 z m 408 -101 l 744 739 l 585 739 l 379 179 l 158 739 l -7 739 l 299 11 l 274 -44 b 161 -126 249 -100 210 -126 b 65 -90 128 -126 100 -115 l -3 -214 b 168 -276 49 -257 101 -276 b 408 -101 279 -276 363 -218 z "},"ȳ":{"ha":738,"x_min":0,"x_max":0,"o":"m 194 979 l 194 864 l 549 864 l 549 979 z m 408 -101 l 744 739 l 585 739 l 379 179 l 158 739 l -7 739 l 299 11 l 274 -44 b 161 -126 249 -100 210 -126 b 65 -90 128 -126 100 -115 l -3 -214 b 168 -276 49 -257 101 -276 b 408 -101 279 -276 363 -218 z "},"ỹ":{"ha":738,"x_min":0,"x_max":0,"o":"m 596 1044 l 494 1044 b 442 976 494 1000 476 976 b 276 1053 394 976 353 1053 b 149 871 193 1053 149 992 l 251 871 b 303 939 251 915 269 939 b 469 863 351 939 386 863 b 596 1044 553 863 596 924 z m 408 -101 l 744 739 l 585 739 l 379 179 l 158 739 l -7 739 l 299 11 l 274 -44 b 161 -126 249 -100 210 -126 b 65 -90 128 -126 100 -115 l -3 -214 b 168 -276 49 -257 101 -276 b 408 -101 279 -276 363 -218 z "},"z":{"ha":746,"x_min":0,"x_max":0,"o":"m 75 739 l 75 608 l 485 608 l 63 108 l 63 0 l 694 -1 l 694 129 l 260 131 l 682 631 l 682 738 z "},"ź":{"ha":746,"x_min":0,"x_max":0,"o":"m 433 1051 l 286 846 l 428 846 l 597 982 z m 75 739 l 75 608 l 485 608 l 63 108 l 63 0 l 694 -1 l 694 129 l 260 131 l 682 631 l 682 738 z "},"ž":{"ha":746,"x_min":0,"x_max":0,"o":"m 146 1044 l 296 836 l 454 836 l 604 1044 l 463 1044 l 375 915 l 288 1044 z m 75 739 l 75 608 l 485 608 l 63 108 l 63 0 l 694 -1 l 694 129 l 260 131 l 682 631 l 682 738 z "},"ż":{"ha":746,"x_min":0,"x_max":0,"o":"m 379 1046 b 286 950 326 1046 286 1006 b 379 856 286 896 326 856 b 472 950 432 856 472 896 b 379 1046 472 1006 432 1046 z m 75 739 l 75 608 l 485 608 l 63 108 l 63 0 l 694 -1 l 694 129 l 260 131 l 682 631 l 682 738 z "},"ẓ":{"ha":746,"x_min":0,"x_max":0,"o":"m 75 739 l 75 608 l 485 608 l 63 108 l 63 0 l 694 -1 l 694 129 l 260 131 l 682 631 l 682 738 z m 378 -69 b 285 -165 325 -69 285 -110 b 378 -260 285 -219 325 -260 b 471 -165 431 -260 471 -219 b 378 -69 471 -110 431 -69 z "},"ﬁ":{"ha":871,"x_min":0,"x_max":0,"o":"m 674 856 b 767 950 726 856 767 896 b 674 1046 767 1006 726 1046 b 581 950 621 1046 581 1006 b 674 856 581 896 621 856 z m 149 783 l 149 711 l 51 711 l 51 592 l 149 592 l 149 0 l 307 0 l 307 592 l 500 592 l 500 711 l 307 711 l 307 799 b 407 897 307 871 350 897 b 535 865 446 897 492 885 l 540 1004 b 403 1038 501 1026 453 1038 b 149 783 279 1038 149 960 z m 594 0 l 753 0 l 753 739 l 594 739 z "},"ﬂ":{"ha":904,"x_min":0,"x_max":0,"o":"m 149 803 l 149 711 l 53 711 l 51 593 l 149 593 l 149 0 l 307 0 l 307 593 l 500 593 l 501 711 l 307 711 l 307 779 b 435 910 307 857 361 911 b 538 874 469 910 507 897 l 542 1013 b 404 1044 506 1032 453 1043 b 149 803 254 1046 149 946 z m 619 1031 l 619 0 l 779 0 l 779 1031 z "},"ª":{"ha":535,"x_min":0,"x_max":0,"o":"m 275 1079 b 72 1028 208 1079 139 1060 l 100 950 b 249 992 153 976 203 992 b 354 910 319 992 354 961 l 354 890 l 219 890 b 46 764 108 889 46 844 b 196 632 46 686 103 632 b 356 706 267 632 321 657 l 356 636 l 465 636 l 465 922 b 275 1079 465 1021 396 1079 z m 233 707 b 151 774 183 707 151 733 b 242 833 151 813 185 833 l 354 833 l 354 775 b 233 707 329 728 288 707 z "},"º":{"ha":565,"x_min":0,"x_max":0,"o":"m 282 1078 b 42 856 139 1078 42 989 b 282 633 42 722 139 633 b 524 856 425 633 524 722 b 282 1078 524 989 425 1078 z m 282 986 b 408 854 357 986 408 933 b 282 722 408 775 357 722 b 154 854 207 722 154 775 b 282 986 154 933 207 986 z "},"Δ":{"ha":1025,"x_min":0,"x_max":0,"o":"m 599 972 l 431 972 l 1 0 l 1024 0 z m 226 129 l 510 797 l 793 129 z "},"Ω":{"ha":1225,"x_min":0,"x_max":0,"o":"m 751 149 l 751 0 l 1213 0 l 1213 139 l 922 139 b 1113 518 1033 224 1113 379 b 613 979 1113 783 900 979 b 114 518 325 979 114 783 b 304 139 114 378 192 225 l 13 139 l 13 0 l 475 0 l 475 149 b 260 496 328 232 260 367 b 613 835 260 672 388 835 b 967 494 839 835 967 672 b 751 149 967 367 899 231 z "},"μ":{"ha":938,"x_min":0,"x_max":0,"o":"m 660 739 l 660 375 b 457 144 660 246 585 147 b 285 324 350 144 285 213 l 285 739 l 125 739 l 125 -269 l 285 -269 l 285 13 b 396 -6 318 1 354 -6 b 660 144 517 -4 610 42 l 660 0 l 819 0 l 819 739 z "},"π":{"ha":1007,"x_min":0,"x_max":0,"o":"m 993 739 l 226 739 b -14 528 88 739 -15 647 b 38 351 -12 469 7 401 l 149 394 b 113 500 126 428 113 468 b 246 617 111 568 168 617 l 317 617 l 249 0 l 382 0 l 451 617 l 656 617 l 656 0 l 789 0 l 789 617 l 993 617 z "},"₀":{"ha":621,"x_min":0,"x_max":0,"o":"m 310 426 b 53 138 150 426 53 318 b 310 -153 53 -44 150 -153 b 567 138 469 -153 567 -44 b 310 426 567 318 469 426 z m 310 333 b 461 138 406 333 461 261 b 310 -58 461 13 406 -58 b 160 138 214 -58 160 13 b 310 333 160 261 214 333 z "},"₁":{"ha":364,"x_min":0,"x_max":0,"o":"m 22 435 l 22 340 l 138 340 l 138 -139 l 254 -139 l 254 435 z "},"₂":{"ha":532,"x_min":0,"x_max":0,"o":"m 269 163 l 51 -60 l 51 -139 l 483 -139 l 483 -46 l 197 -46 l 347 104 b 458 293 414 168 458 233 b 265 439 458 382 379 439 b 39 356 185 439 107 408 l 85 271 b 247 343 136 315 197 343 b 338 278 304 343 338 318 b 269 163 338 247 310 203 z "},"₃":{"ha":493,"x_min":0,"x_max":0,"o":"m 282 189 l 251 192 l 417 358 l 417 426 l 43 426 l 43 339 l 283 339 l 128 182 l 128 117 l 214 117 b 331 32 288 117 331 88 b 215 -61 331 -25 288 -61 b 64 4 160 -61 107 -39 l 15 -86 b 224 -150 67 -125 147 -150 b 444 33 358 -150 444 -75 b 282 189 444 124 378 179 z "},"₄":{"ha":547,"x_min":0,"x_max":0,"o":"m 238 435 l 39 78 l 39 -4 l 322 -4 l 322 -139 l 432 -139 l 432 -4 l 517 -4 l 517 82 l 432 82 l 432 224 l 322 224 l 322 82 l 156 82 l 349 435 z "},"₅":{"ha":524,"x_min":0,"x_max":0,"o":"m 186 199 l 186 333 l 451 333 l 451 425 l 79 425 l 79 108 b 238 121 119 117 204 121 b 353 35 310 121 353 89 b 238 -64 353 -28 310 -64 b 79 6 185 -64 126 -39 l 32 -86 b 250 -153 92 -125 178 -153 b 476 42 388 -153 476 -76 b 260 208 476 143 392 208 b 186 199 242 208 207 204 z "},"₆":{"ha":557,"x_min":0,"x_max":0,"o":"m 325 224 b 165 131 243 224 185 186 b 164 156 164 139 164 146 b 326 336 164 271 222 336 b 454 301 382 336 418 324 l 499 385 b 328 431 451 413 394 431 b 53 128 160 431 53 310 b 300 -153 53 -49 147 -153 b 514 40 429 -153 514 -79 b 325 224 514 151 440 224 z m 294 -58 b 182 38 217 -58 182 -8 b 299 138 182 94 225 138 b 406 42 365 138 406 103 b 294 -58 406 -22 363 -58 z "},"₇":{"ha":519,"x_min":0,"x_max":0,"o":"m 44 435 l 44 258 l 147 258 l 147 343 l 361 343 l 132 -139 l 256 -139 l 488 351 l 488 435 z "},"₈":{"ha":565,"x_min":0,"x_max":0,"o":"m 282 429 b 79 283 158 429 79 374 b 168 158 79 229 113 183 b 49 11 94 133 49 79 b 283 -153 49 -90 139 -153 b 517 13 426 -153 517 -90 b 403 158 517 81 474 133 b 488 279 454 182 488 226 b 282 429 488 372 407 429 z m 283 351 b 389 274 350 351 389 322 b 283 196 389 224 350 196 b 176 274 215 196 176 224 b 283 351 176 322 215 351 z m 282 110 b 407 22 363 110 407 78 b 283 -67 407 -35 361 -67 b 158 24 204 -67 158 -35 b 282 110 158 78 204 110 z "},"₉":{"ha":557,"x_min":0,"x_max":0,"o":"m 257 429 b 43 236 128 429 43 356 b 232 53 43 125 117 53 b 392 146 314 53 372 90 b 393 121 393 138 393 131 b 231 -60 393 6 335 -60 b 103 -25 175 -60 139 -47 l 58 -108 b 229 -154 106 -136 163 -154 b 504 149 397 -154 504 -33 b 257 429 504 325 410 429 z m 258 139 b 151 235 192 139 151 174 b 263 335 151 299 194 335 b 375 239 340 335 375 285 b 258 139 375 182 332 139 z "},"⁰":{"ha":621,"x_min":0,"x_max":0,"o":"m 310 1067 b 53 778 150 1067 53 958 b 310 488 53 596 150 488 b 567 778 469 488 567 596 b 310 1067 567 958 469 1067 z m 310 974 b 461 778 406 974 461 901 b 310 582 461 653 406 582 b 160 778 214 582 160 653 b 310 974 160 901 214 974 z "},"¹":{"ha":364,"x_min":0,"x_max":0,"o":"m 22 1074 l 22 979 l 138 979 l 138 500 l 254 500 l 254 1074 z "},"²":{"ha":532,"x_min":0,"x_max":0,"o":"m 269 801 l 51 579 l 51 500 l 483 500 l 483 593 l 197 593 l 347 743 b 458 932 414 807 458 872 b 265 1078 458 1021 379 1078 b 39 994 185 1078 107 1047 l 85 910 b 247 982 136 954 197 982 b 338 917 304 982 338 957 b 269 801 338 886 310 842 z "},"³":{"ha":493,"x_min":0,"x_max":0,"o":"m 282 832 l 251 835 l 417 1001 l 417 1069 l 43 1069 l 43 982 l 283 982 l 128 825 l 128 760 l 214 760 b 331 675 288 760 331 731 b 215 582 331 618 288 582 b 64 647 160 582 107 604 l 15 557 b 224 493 67 518 147 493 b 444 676 358 493 444 568 b 282 832 444 767 378 822 z "},"⁴":{"ha":547,"x_min":0,"x_max":0,"o":"m 238 1074 l 39 717 l 39 635 l 322 635 l 322 500 l 432 500 l 432 635 l 517 635 l 517 721 l 432 721 l 432 863 l 322 863 l 322 721 l 156 721 l 349 1074 z "},"⁵":{"ha":524,"x_min":0,"x_max":0,"o":"m 186 843 l 186 978 l 451 978 l 451 1069 l 79 1069 l 79 753 b 238 765 119 761 204 765 b 353 679 310 765 353 733 b 238 581 353 617 310 581 b 79 650 185 581 126 606 l 32 558 b 250 492 92 519 178 492 b 476 686 388 492 476 568 b 260 853 476 788 392 853 b 186 843 242 853 207 849 z "},"⁶":{"ha":557,"x_min":0,"x_max":0,"o":"m 325 869 b 165 776 243 869 185 832 b 164 801 164 785 164 792 b 326 982 164 917 222 982 b 454 947 382 982 418 969 l 499 1031 b 328 1076 451 1058 394 1076 b 53 774 160 1076 53 956 b 300 493 53 597 147 493 b 514 686 429 493 514 567 b 325 869 514 797 440 869 z m 294 588 b 182 683 217 588 182 638 b 299 783 182 740 225 783 b 406 688 365 783 406 749 b 294 588 406 624 363 588 z "},"⁷":{"ha":519,"x_min":0,"x_max":0,"o":"m 44 1074 l 44 897 l 147 897 l 147 982 l 361 982 l 132 500 l 256 500 l 488 990 l 488 1074 z "},"⁸":{"ha":565,"x_min":0,"x_max":0,"o":"m 282 1078 b 79 932 158 1078 79 1022 b 168 807 79 878 113 832 b 49 660 94 782 49 728 b 283 496 49 558 139 496 b 517 661 426 496 517 558 b 403 807 517 729 474 782 b 488 928 454 831 488 875 b 282 1078 488 1021 407 1078 z m 283 1000 b 389 922 350 1000 389 971 b 283 844 389 872 350 844 b 176 922 215 844 176 872 b 283 1000 176 971 215 1000 z m 282 758 b 407 671 363 758 407 726 b 283 582 407 614 361 582 b 158 672 204 582 158 614 b 282 758 158 726 204 758 z "},"⁹":{"ha":557,"x_min":0,"x_max":0,"o":"m 257 1081 b 43 888 128 1081 43 1007 b 232 704 43 776 117 704 b 392 797 314 704 372 742 b 393 772 393 789 393 782 b 231 592 393 657 335 592 b 103 626 175 592 139 604 l 58 543 b 229 497 106 515 163 497 b 504 800 397 497 504 618 b 257 1081 504 976 410 1081 z m 258 790 b 151 886 192 790 151 825 b 263 986 151 950 194 986 b 375 890 340 986 375 936 b 258 790 375 833 332 790 z "},"⁄":{"ha":111,"x_min":0,"x_max":0,"o":"m 331 972 l -385 0 l -231 0 l 483 972 z "},"½":{"ha":1165,"x_min":0,"x_max":0,"o":"m 22 972 l 22 878 l 138 878 l 138 399 l 254 399 l 254 972 z m 785 972 l 69 0 l 224 0 l 938 972 z m 903 301 l 685 79 l 685 0 l 1117 0 l 1117 93 l 831 93 l 981 243 b 1092 432 1047 307 1092 372 b 899 578 1092 521 1013 578 b 672 494 818 578 740 547 l 718 410 b 881 482 769 454 831 482 b 971 417 938 482 971 457 b 903 301 971 386 943 342 z "},"¼":{"ha":1135,"x_min":0,"x_max":0,"o":"m 22 972 l 22 878 l 138 878 l 138 399 l 254 399 l 254 972 z m 785 972 l 69 0 l 224 0 l 938 972 z m 825 574 l 626 217 l 626 135 l 910 135 l 910 0 l 1019 0 l 1019 135 l 1104 135 l 1104 221 l 1019 221 l 1019 363 l 910 363 l 910 221 l 743 221 l 936 574 z "},"¾":{"ha":1221,"x_min":0,"x_max":0,"o":"m 871 972 l 156 0 l 310 0 l 1024 972 z m 282 733 l 251 736 l 417 903 l 417 971 l 43 971 l 43 883 l 283 883 l 128 726 l 128 661 l 214 661 b 331 576 288 661 331 632 b 215 483 331 519 288 483 b 64 549 160 483 107 506 l 15 458 b 224 394 67 419 147 394 b 444 578 358 394 444 469 b 282 733 444 668 378 724 z m 911 574 l 713 217 l 713 135 l 996 135 l 996 0 l 1106 0 l 1106 135 l 1190 135 l 1190 221 l 1106 221 l 1106 363 l 996 363 l 996 221 l 829 221 l 1022 574 z "},"⅛":{"ha":1158,"x_min":0,"x_max":0,"o":"m 22 972 l 22 878 l 138 878 l 138 399 l 254 399 l 254 972 z m 785 972 l 69 0 l 224 0 l 938 972 z m 875 578 b 672 432 751 578 672 522 b 761 307 672 378 706 332 b 642 160 688 282 642 228 b 876 -4 642 58 732 -4 b 1110 161 1019 -4 1110 58 b 996 307 1110 229 1067 282 b 1081 428 1047 331 1081 375 b 875 578 1081 521 1000 578 z m 876 500 b 982 422 943 500 982 471 b 876 344 982 372 943 344 b 769 422 808 344 769 372 b 876 500 769 471 808 500 z m 875 258 b 1000 171 956 258 1000 226 b 876 82 1000 114 954 82 b 751 172 797 82 751 114 b 875 258 751 226 797 258 z "},"⅜":{"ha":1244,"x_min":0,"x_max":0,"o":"m 871 972 l 156 0 l 310 0 l 1024 972 z m 282 733 l 251 736 l 417 903 l 417 971 l 43 971 l 43 883 l 283 883 l 128 726 l 128 661 l 214 661 b 331 576 288 661 331 632 b 215 483 331 519 288 483 b 64 549 160 483 107 506 l 15 458 b 224 394 67 419 147 394 b 444 578 358 394 444 469 b 282 733 444 668 378 724 z m 961 578 b 758 432 838 578 758 522 b 847 307 758 378 792 332 b 728 160 774 282 728 228 b 963 -4 728 58 818 -4 b 1196 161 1106 -4 1196 58 b 1082 307 1196 229 1153 282 b 1167 428 1133 331 1167 375 b 961 578 1167 521 1086 578 z m 963 500 b 1068 422 1029 500 1068 471 b 963 344 1068 372 1029 344 b 856 422 894 344 856 372 b 963 500 856 471 894 500 z m 961 258 b 1086 171 1042 258 1086 226 b 963 82 1086 114 1040 82 b 838 172 883 82 838 114 b 961 258 838 226 883 258 z "},"⅝":{"ha":1269,"x_min":0,"x_max":0,"o":"m 186 746 l 186 881 l 451 881 l 451 972 l 79 972 l 79 656 b 238 668 119 664 204 668 b 353 582 310 668 353 636 b 238 483 353 519 310 483 b 79 553 185 483 126 508 l 32 461 b 250 394 92 422 178 394 b 476 589 388 394 476 471 b 260 756 476 690 392 756 b 186 746 242 756 207 751 z m 896 972 l 181 0 l 335 0 l 1049 972 z m 986 578 b 783 432 863 578 783 522 b 872 307 783 378 817 332 b 753 160 799 282 753 228 b 988 -4 753 58 843 -4 b 1221 161 1131 -4 1221 58 b 1107 307 1221 229 1178 282 b 1192 428 1158 331 1192 375 b 986 578 1192 521 1111 578 z m 988 500 b 1093 422 1054 500 1093 471 b 988 344 1093 372 1054 344 b 881 422 919 344 881 372 b 988 500 881 471 919 500 z m 986 258 b 1111 171 1067 258 1111 226 b 988 82 1111 114 1065 82 b 863 172 908 82 863 114 b 986 258 863 226 908 258 z "},"⅞":{"ha":1224,"x_min":0,"x_max":0,"o":"m 44 972 l 44 796 l 147 796 l 147 881 l 361 881 l 132 399 l 256 399 l 488 889 l 488 972 z m 850 972 l 135 0 l 289 0 l 1003 972 z m 940 578 b 738 432 817 578 738 522 b 826 307 738 378 771 332 b 707 160 753 282 707 228 b 942 -4 707 58 797 -4 b 1175 161 1085 -4 1175 58 b 1061 307 1175 229 1132 282 b 1146 428 1113 331 1146 375 b 940 578 1146 521 1065 578 z m 942 500 b 1047 422 1008 500 1047 471 b 942 344 1047 372 1008 344 b 835 422 874 344 835 372 b 942 500 835 471 874 500 z m 940 258 b 1065 171 1021 258 1065 226 b 942 82 1065 114 1019 82 b 817 172 863 82 817 114 b 940 258 817 226 863 258 z "},"*":{"ha":483,"x_min":0,"x_max":0,"o":"m 200 1001 l 201 858 l 78 932 l 35 853 l 160 785 l 35 714 l 78 638 l 201 710 l 200 567 l 283 567 l 282 710 l 406 636 l 447 714 l 322 785 l 447 853 l 406 931 l 282 858 l 283 1001 z "},"\\":{"ha":757,"x_min":0,"x_max":0,"o":"m 317 1133 l 181 1133 l 621 -162 l 757 -162 z "},"·":{"ha":294,"x_min":0,"x_max":0,"o":"m 147 485 b 64 399 100 485 64 450 b 147 310 64 347 100 310 b 231 399 194 310 231 347 b 147 485 231 450 194 485 z "},"•":{"ha":390,"x_min":0,"x_max":0,"o":"m 194 508 b 64 372 119 508 64 451 b 194 233 64 293 119 233 b 326 372 271 233 326 293 b 194 508 326 451 271 508 z "},":":{"ha":303,"x_min":0,"x_max":0,"o":"m 151 583 b 64 493 101 583 64 546 b 151 400 64 439 101 400 b 239 493 201 400 239 439 b 151 583 239 546 201 583 z m 151 171 b 64 81 101 171 64 133 b 151 -12 64 26 101 -12 b 239 81 201 -12 239 26 b 151 171 239 133 201 171 z "},",":{"ha":297,"x_min":0,"x_max":0,"o":"m 151 168 b 65 79 101 168 65 131 b 103 7 65 50 78 24 l 50 -114 l 132 -114 l 211 6 b 236 79 226 28 236 51 b 151 168 236 135 196 168 z "},"…":{"ha":844,"x_min":0,"x_max":0,"o":"m 147 163 b 64 76 100 163 64 128 b 147 -12 64 25 100 -12 b 231 76 194 -12 231 25 b 147 163 231 128 194 163 z m 422 163 b 339 76 375 163 339 128 b 422 -12 339 25 375 -12 b 506 76 469 -12 506 25 b 422 163 506 128 469 163 z m 697 163 b 614 76 650 163 614 128 b 697 -12 614 25 650 -12 b 781 76 744 -12 781 25 b 697 163 781 128 744 163 z "},"!":{"ha":292,"x_min":0,"x_max":0,"o":"m 90 961 l 90 721 l 117 310 l 217 310 l 243 721 l 243 961 z m 167 171 b 79 81 117 171 79 133 b 167 -12 79 26 117 -12 b 254 81 217 -12 254 26 b 167 171 254 133 217 171 z "},"¡":{"ha":292,"x_min":0,"x_max":0,"o":"m 167 567 b 254 657 217 567 254 604 b 167 750 254 711 217 750 b 79 657 117 750 79 711 b 167 567 79 604 117 567 z m 243 -224 l 243 17 l 217 428 l 117 428 l 90 17 l 90 -224 z "},"#":{"ha":1007,"x_min":0,"x_max":0,"o":"m 957 604 l 967 724 l 774 724 l 804 972 l 686 972 l 656 724 l 410 724 l 440 972 l 322 972 l 292 724 l 94 724 l 83 604 l 276 604 l 247 360 l 49 360 l 38 240 l 232 240 l 203 0 l 319 0 l 350 240 l 596 240 l 567 0 l 683 0 l 714 240 l 911 240 l 922 360 l 728 360 l 758 604 z m 611 360 l 364 360 l 394 604 l 640 604 z "},".":{"ha":303,"x_min":0,"x_max":0,"o":"m 151 171 b 64 81 101 171 64 133 b 151 -12 64 26 101 -12 b 239 81 201 -12 239 26 b 151 171 239 133 201 171 z "},"?":{"ha":615,"x_min":0,"x_max":0,"o":"m 7 689 l 132 688 b 281 829 136 782 190 829 b 424 710 367 829 424 790 b 231 317 424 542 231 540 l 353 317 b 572 733 353 504 572 514 b 294 965 572 885 461 965 b 7 689 122 965 13 865 z m 290 171 b 203 81 240 171 203 133 b 290 -12 203 26 240 -12 b 378 81 340 -12 378 26 b 290 171 378 133 340 171 z "},"¿":{"ha":615,"x_min":0,"x_max":0,"o":"m 325 567 b 413 657 375 567 413 604 b 325 750 413 711 375 750 b 238 657 275 750 238 711 b 325 567 238 604 275 567 z m 608 49 l 483 50 b 335 -92 479 -44 425 -92 b 192 28 249 -92 192 -53 b 385 421 192 196 385 197 l 263 421 b 43 4 263 233 43 224 b 321 -228 43 -147 154 -228 b 608 49 493 -228 603 -128 z "},"\"":{"ha":503,"x_min":0,"x_max":0,"o":"m 83 972 l 83 631 l 206 631 l 206 972 z m 297 972 l 297 631 l 419 631 l 419 972 z "},"'":{"ha":289,"x_min":0,"x_max":0,"o":"m 83 972 l 83 631 l 206 631 l 206 972 z "},";":{"ha":300,"x_min":0,"x_max":0,"o":"m 151 400 b 239 493 201 400 239 439 b 151 583 239 546 201 583 b 64 493 101 583 64 546 b 151 400 64 439 101 400 z m 151 168 b 65 79 101 168 65 131 b 103 7 65 50 78 24 l 50 -114 l 132 -114 l 211 6 b 236 79 226 28 236 51 b 151 168 236 135 196 168 z "},"/":{"ha":460,"x_min":0,"x_max":0,"o":"m 411 1133 l -29 -162 l 107 -162 l 547 1133 z "},"_":{"ha":786,"x_min":0,"x_max":0,"o":"m 0 -186 l 0 -283 l 786 -283 l 786 -186 z "},"{":{"ha":457,"x_min":0,"x_max":0,"o":"m 297 578 l 297 806 b 429 904 297 875 331 904 l 429 1032 l 369 1032 b 153 856 214 1032 153 983 l 153 568 b 93 494 153 515 135 494 l 50 494 l 50 363 l 93 363 b 153 289 135 363 153 342 l 153 3 b 369 -175 153 -126 214 -175 l 429 -175 l 429 -47 b 297 51 331 -47 297 -18 l 297 279 b 200 429 297 368 271 411 b 297 578 271 446 297 489 z "},"}":{"ha":558,"x_min":0,"x_max":0,"o":"m 515 494 b 456 568 474 494 456 515 l 456 856 b 239 1032 456 983 394 1032 l 179 1032 l 179 904 b 311 806 278 904 311 875 l 311 578 b 408 429 311 489 338 446 b 311 279 338 411 311 368 l 311 51 b 179 -47 311 -18 278 -47 l 179 -175 l 239 -175 b 456 3 394 -175 456 -126 l 456 289 b 515 363 456 342 474 363 l 558 363 l 558 494 z "},"[":{"ha":479,"x_min":0,"x_max":0,"o":"m 128 1031 l 128 -172 l 443 -172 l 443 -44 l 271 -44 l 271 903 l 443 903 l 443 1031 z "},"]":{"ha":657,"x_min":0,"x_max":0,"o":"m 529 1031 l 214 1031 l 214 903 l 386 903 l 386 -44 l 214 -44 l 214 -172 l 529 -172 z "},"(":{"ha":443,"x_min":0,"x_max":0,"o":"m 421 1031 l 276 1031 b 107 429 167 872 107 660 b 276 -172 107 199 167 -14 l 421 -172 b 257 429 319 -14 257 199 b 421 1031 257 660 319 872 z "},")":{"ha":479,"x_min":0,"x_max":0,"o":"m 165 1031 b 329 429 267 872 329 660 b 165 -172 329 199 267 -14 l 310 -172 b 479 429 419 -14 479 199 b 310 1031 479 660 419 872 z "},"—":{"ha":960,"x_min":0,"x_max":0,"o":"m 0 478 l 0 367 l 960 367 l 960 478 z "},"–":{"ha":563,"x_min":0,"x_max":0,"o":"m 0 478 l 0 367 l 563 367 l 563 478 z "},"‒":{"ha":857,"x_min":0,"x_max":0,"o":"m 0 478 l 0 367 l 857 367 l 857 478 z "},"―":{"ha":960,"x_min":0,"x_max":0,"o":"m 0 478 l 0 367 l 960 367 l 960 478 z "},"-":{"ha":511,"x_min":0,"x_max":0,"o":"m 85 478 l 85 368 l 426 368 l 426 478 z "},"‐":{"ha":511,"x_min":0,"x_max":0,"o":"m 85 478 l 85 368 l 426 368 l 426 478 z "},"­":{"ha":511,"x_min":0,"x_max":0,"o":"m 85 478 l 85 368 l 426 368 l 426 478 z "},"«":{"ha":633,"x_min":0,"x_max":0,"o":"m 193 603 l 32 361 l 193 119 l 326 119 l 178 361 l 326 603 z m 443 603 l 282 361 l 443 119 l 576 119 l 428 361 l 576 603 z "},"»":{"ha":650,"x_min":0,"x_max":0,"o":"m 239 121 l 400 363 l 239 604 l 106 604 l 254 363 l 106 121 z m 489 121 l 650 363 l 489 604 l 356 604 l 504 363 l 356 121 z "},"‹":{"ha":383,"x_min":0,"x_max":0,"o":"m 193 603 l 32 361 l 193 119 l 326 119 l 178 361 l 326 603 z "},"›":{"ha":400,"x_min":0,"x_max":0,"o":"m 239 121 l 400 363 l 239 604 l 106 604 l 254 363 l 106 121 z "},"„":{"ha":504,"x_min":0,"x_max":0,"o":"m 151 168 b 65 79 101 168 65 131 b 103 7 65 50 78 24 l 50 -114 l 132 -114 l 211 6 b 236 79 226 28 236 51 b 151 168 236 135 196 168 z m 358 168 b 272 79 308 168 272 131 b 310 7 272 50 285 24 l 257 -114 l 339 -114 l 418 6 b 443 79 433 28 443 51 b 358 168 443 135 403 168 z "},"“":{"ha":504,"x_min":0,"x_max":0,"o":"m 154 981 l 75 861 b 50 788 60 839 50 815 b 135 699 50 732 90 699 b 221 788 185 699 221 736 b 183 860 221 817 208 843 l 236 981 z m 390 860 l 443 981 l 361 981 l 282 861 b 257 788 267 839 257 815 b 342 699 257 732 297 699 b 428 788 392 699 428 736 b 390 860 428 817 415 843 z "},"”":{"ha":504,"x_min":0,"x_max":0,"o":"m 151 974 b 65 885 101 974 65 936 b 103 813 65 856 78 829 l 50 692 l 132 692 l 211 811 b 236 885 226 833 236 857 b 151 974 236 940 196 974 z m 358 974 b 272 885 308 974 272 936 b 310 813 272 856 285 829 l 257 692 l 339 692 l 418 811 b 443 885 433 833 443 857 b 358 974 443 940 403 974 z "},"‘":{"ha":297,"x_min":0,"x_max":0,"o":"m 183 860 l 236 981 l 154 981 l 75 861 b 50 788 60 839 50 815 b 135 699 50 732 90 699 b 221 788 185 699 221 736 b 183 860 221 817 208 843 z "},"’":{"ha":297,"x_min":0,"x_max":0,"o":"m 151 974 b 65 885 101 974 65 936 b 103 813 65 856 78 829 l 50 692 l 132 692 l 211 811 b 236 885 226 833 236 857 b 151 974 236 940 196 974 z "},"‚":{"ha":297,"x_min":0,"x_max":0,"o":"m 151 168 b 65 79 101 168 65 131 b 103 7 65 50 78 24 l 50 -114 l 132 -114 l 211 6 b 236 79 226 28 236 51 b 151 168 236 135 196 168 z "}," ":{"ha":857,"x_min":0,"x_max":0,"o":""}," ":{"ha":139,"x_min":0,"x_max":0,"o":""}," ":{"ha":303,"x_min":0,"x_max":0,"o":""}," ":{"ha":417,"x_min":0,"x_max":0,"o":""}," ":{"ha":417,"x_min":0,"x_max":0,"o":""}," ":{"ha":278,"x_min":0,"x_max":0,"o":""},"​":{"ha":0,"x_min":0,"x_max":0,"o":""},"\r":{"ha":417,"x_min":0,"x_max":0,"o":""},"₵":{"ha":968,"x_min":0,"x_max":0,"o":"m 929 153 l 832 261 b 561 146 758 190 658 146 b 214 489 367 146 214 297 b 561 831 214 681 367 831 b 832 707 660 831 761 783 l 928 826 b 608 974 844 908 729 963 l 608 1157 l 486 1157 l 486 972 b 47 488 235 940 47 740 b 486 -3 47 231 235 28 l 486 -197 l 608 -197 l 608 -4 b 929 153 728 11 844 68 z "},"¢":{"ha":833,"x_min":0,"x_max":0,"o":"m 735 132 l 646 221 b 428 132 596 163 521 132 b 208 368 300 132 208 228 b 428 604 208 508 300 604 b 639 521 517 606 588 574 l 726 624 b 485 740 669 689 588 729 l 485 950 l 364 950 l 364 740 b 49 368 175 717 49 572 b 364 -1 49 165 175 22 l 364 -197 l 485 -197 l 485 -1 b 735 132 594 11 679 58 z "},"₡":{"ha":968,"x_min":0,"x_max":0,"o":"m 929 153 l 832 261 b 561 146 758 190 658 146 b 214 489 367 146 214 297 b 561 831 214 681 367 831 b 832 707 660 831 761 783 l 928 826 b 719 951 871 882 799 925 l 750 1157 l 628 1157 l 601 975 b 558 976 586 976 572 976 b 519 975 544 976 532 976 l 546 1157 l 424 1157 l 393 951 b 47 488 189 888 47 708 b 371 24 47 271 179 93 l 340 -197 l 463 -197 l 490 -3 b 553 -7 510 -6 532 -7 l 571 -7 l 544 -197 l 667 -197 l 696 15 b 929 153 783 42 865 90 z "},"¤":{"ha":988,"x_min":0,"x_max":0,"o":"m 868 443 b 800 653 868 521 843 593 l 939 792 l 849 888 l 706 746 b 493 810 644 786 572 810 b 282 744 415 810 343 786 l 139 888 l 49 792 l 188 653 b 121 443 146 593 121 521 b 190 232 121 365 147 292 l 49 90 l 139 -6 l 286 140 b 493 79 346 101 417 79 b 701 140 569 79 642 101 l 849 -6 l 939 90 l 797 232 b 868 443 842 292 868 364 z m 493 215 b 249 443 358 215 249 318 b 493 675 249 571 358 675 b 742 443 631 675 742 571 b 493 215 742 318 631 215 z "},"$":{"ha":864,"x_min":0,"x_max":0,"o":"m 276 724 b 435 825 276 789 339 825 b 719 735 508 825 614 799 l 788 879 b 504 976 711 931 610 967 l 504 1158 l 382 1157 l 382 975 b 93 708 207 956 93 857 b 618 267 93 363 618 483 b 436 149 618 192 550 149 b 107 290 332 149 207 199 l 36 149 b 382 -3 125 67 249 8 l 382 -197 l 504 -197 l 504 -1 b 800 275 681 19 800 121 b 276 724 801 625 276 511 z "},"₫":{"ha":946,"x_min":0,"x_max":0,"o":"m 918 947 l 822 947 l 822 1031 l 663 1031 l 663 947 l 525 947 l 525 856 l 663 856 l 663 611 b 400 746 608 697 519 746 b 49 372 192 746 49 594 b 403 -7 49 147 190 -7 b 663 126 521 -7 610 40 l 663 0 l 822 0 l 822 856 l 918 856 z m 436 126 b 208 367 301 126 210 226 b 436 610 210 508 303 610 b 663 367 569 610 663 510 b 436 126 663 226 569 126 z m 147 -189 l 742 -189 l 742 -79 l 147 -79 z "},"€":{"ha":1099,"x_min":0,"x_max":0,"o":"m 964 261 b 692 146 889 190 789 146 b 385 326 558 146 443 218 l 733 326 l 733 415 l 353 415 b 344 489 347 439 344 464 b 351 561 344 514 347 538 l 733 561 l 733 650 l 385 650 b 692 831 443 758 558 831 b 964 707 792 831 892 783 l 1058 826 b 690 976 965 919 828 976 b 206 650 461 976 274 843 l 51 650 l 51 561 l 183 561 b 178 488 179 538 178 513 b 183 415 178 463 179 439 l 51 415 l 51 326 l 204 326 b 683 -7 271 129 457 -7 b 1060 153 822 -7 963 56 z "},"ƒ":{"ha":517,"x_min":0,"x_max":0,"o":"m 464 910 b 563 874 496 910 535 896 l 619 992 b 442 1044 575 1022 506 1043 b 179 810 300 1046 197 954 l 158 644 l 63 644 l 50 533 l 146 533 l 78 -18 b -31 -143 68 -94 35 -144 b -121 -106 -60 -142 -96 -128 l -165 -224 b -14 -276 -128 -254 -67 -275 b 233 -42 128 -278 215 -186 l 304 533 l 499 533 l 511 644 l 317 644 l 335 788 b 464 910 344 864 396 911 z "},"₣":{"ha":796,"x_min":0,"x_max":0,"o":"m 776 825 l 778 972 l 125 972 l 125 251 l 21 251 l 21 167 l 125 167 l 125 0 l 289 0 l 289 167 l 608 167 l 608 251 l 289 251 l 289 399 l 731 399 l 731 544 l 289 544 l 289 825 z "},"₲":{"ha":1004,"x_min":0,"x_max":0,"o":"m 793 207 b 569 140 724 165 642 140 b 214 486 371 140 214 292 b 568 831 214 679 369 831 b 849 719 669 831 774 789 l 942 840 b 622 974 858 913 743 963 l 622 1157 l 500 1157 l 500 972 b 47 486 239 943 47 742 b 500 -4 47 228 242 24 l 500 -197 l 622 -197 l 622 -3 b 936 119 736 10 853 57 l 936 478 l 793 478 z "},"₭":{"ha":913,"x_min":0,"x_max":0,"o":"m 906 0 l 489 431 l 814 431 l 814 547 l 488 547 l 881 972 l 688 972 l 289 535 l 289 972 l 125 972 l 125 547 l 21 547 l 21 431 l 125 431 l 125 0 l 289 0 l 289 440 l 708 0 z "},"₤":{"ha":760,"x_min":0,"x_max":0,"o":"m 331 304 l 575 304 l 575 414 l 331 414 l 331 506 l 575 506 l 575 615 l 331 615 l 331 667 b 479 832 331 776 383 832 b 672 726 547 832 614 796 l 738 854 b 463 979 667 935 568 979 b 167 671 274 979 167 868 l 167 615 l 51 615 l 51 506 l 167 506 l 167 414 l 51 414 l 51 304 l 167 304 l 167 133 l 51 133 l 51 0 l 719 0 l 719 133 l 331 133 z "},"₺":{"ha":947,"x_min":0,"x_max":0,"o":"m 746 486 b 413 147 746 288 601 147 l 313 147 l 313 483 l 815 628 l 815 740 l 313 596 l 313 685 l 815 829 l 815 942 l 313 797 l 313 972 l 149 972 l 149 750 l 44 719 l 44 607 l 149 638 l 149 549 l 44 518 l 44 406 l 149 436 l 149 0 l 404 0 b 911 488 699 0 911 206 z "},"₼":{"ha":1031,"x_min":0,"x_max":0,"o":"m 599 840 l 599 972 l 432 972 l 432 840 b 42 382 204 804 42 622 l 42 0 l 208 0 l 208 382 b 432 689 208 535 300 653 l 432 0 l 599 0 l 599 689 b 821 382 729 654 821 535 l 821 0 l 989 0 l 989 382 b 599 840 989 621 826 804 z "},"₦":{"ha":1051,"x_min":0,"x_max":0,"o":"m 1024 549 l 1024 663 l 919 663 l 919 972 l 758 972 l 758 663 l 488 663 l 293 972 l 132 972 l 132 663 l 28 663 l 28 549 l 132 549 l 132 422 l 28 422 l 28 308 l 132 308 l 132 0 l 296 0 l 296 308 l 565 308 l 758 0 l 919 0 l 919 308 l 1024 308 l 1024 422 l 919 422 l 919 549 z m 296 739 l 343 663 l 296 663 z m 296 422 l 296 549 l 415 549 l 494 422 z m 758 422 l 639 422 l 560 549 l 758 549 z m 758 232 l 710 308 l 758 308 z "},"₧":{"ha":2111,"x_min":0,"x_max":0,"o":"m 479 972 l 128 972 l 128 0 l 292 0 l 292 293 l 479 293 b 864 640 724 293 864 419 b 479 972 864 851 724 972 z m 1281 138 b 1201 238 1231 138 1201 161 l 1201 593 l 1406 593 l 1406 711 l 1201 711 l 1201 914 l 1043 914 l 1043 711 l 939 711 l 939 593 l 1043 593 l 1043 208 b 1250 -7 1043 57 1139 -7 b 1432 47 1313 -7 1374 13 l 1392 169 b 1281 138 1349 147 1314 138 z m 472 438 l 292 438 l 292 828 l 472 828 b 707 636 622 828 707 765 b 472 438 707 503 622 438 z m 1676 544 b 1785 619 1676 599 1722 619 b 1997 556 1850 619 1932 596 l 2056 672 b 1797 746 1989 718 1890 746 b 1525 533 1656 746 1525 683 b 1913 199 1524 268 1913 351 b 1792 118 1913 142 1860 118 b 1544 208 1711 118 1608 151 l 1488 96 b 1785 -6 1561 29 1676 -6 b 2068 213 1933 -6 2068 63 b 1676 544 2069 481 1676 407 z "},"₱":{"ha":1029,"x_min":0,"x_max":0,"o":"m 1008 757 l 885 757 b 519 972 838 896 710 972 l 132 972 l 132 757 l 28 757 l 28 651 l 132 651 l 132 597 l 28 597 l 28 492 l 132 492 l 132 0 l 296 0 l 296 276 l 519 276 b 883 492 710 276 836 351 l 1008 492 l 1008 597 l 903 597 b 904 626 904 607 904 617 l 904 651 l 1008 651 z m 513 826 b 711 750 606 826 674 801 l 296 750 l 296 826 z m 296 658 l 746 658 b 747 625 747 647 747 636 b 746 590 747 613 747 601 l 296 590 z m 513 422 l 296 422 l 296 499 l 711 499 b 513 422 672 447 604 422 z "},"₽":{"ha":935,"x_min":0,"x_max":0,"o":"m 515 314 b 900 650 760 314 900 436 b 515 972 900 856 760 972 l 128 972 l 128 222 l 24 222 l 24 138 l 128 138 l 128 0 l 292 0 l 292 138 l 639 138 l 639 222 l 292 222 l 292 314 z m 292 826 l 508 826 b 743 647 658 826 743 768 b 508 460 743 521 658 460 l 292 460 z "},"₹":{"ha":807,"x_min":0,"x_max":0,"o":"m 779 828 l 779 972 l 42 972 l 42 826 l 283 826 b 511 701 406 826 485 786 l 42 701 l 42 565 l 510 565 b 283 439 483 481 404 439 l 42 439 l 42 293 l 283 293 b 369 299 314 293 343 294 l 593 0 l 779 0 l 518 346 b 669 565 601 390 653 465 l 779 565 l 779 701 l 669 701 b 619 828 663 750 644 792 z "},"£":{"ha":760,"x_min":0,"x_max":0,"o":"m 331 414 l 575 414 l 575 531 l 331 531 l 331 667 b 479 832 331 776 383 832 b 672 726 547 832 614 796 l 738 854 b 463 979 667 935 568 979 b 167 671 274 979 167 868 l 167 531 l 51 531 l 51 414 l 167 414 l 167 133 l 51 133 l 51 0 l 719 0 l 719 133 l 331 133 z "},"₩":{"ha":1369,"x_min":0,"x_max":0,"o":"m 1369 565 l 1369 676 l 1269 676 l 1356 972 l 1186 972 l 1114 676 l 853 676 l 771 972 l 610 972 l 528 676 l 267 676 l 194 972 l 18 972 l 103 676 l 0 676 l 0 565 l 136 565 l 175 426 l 14 426 l 14 315 l 207 315 l 299 0 l 468 0 l 556 315 l 818 315 l 904 0 l 1072 0 l 1164 315 l 1356 315 l 1356 426 l 1196 426 l 1238 565 z m 688 788 l 718 676 l 657 676 z m 588 426 l 625 565 l 657 565 l 689 568 l 719 565 l 749 565 l 788 426 z m 293 565 l 497 565 l 458 426 l 328 426 z m 1054 426 l 924 426 l 885 565 l 1088 565 z m 389 175 l 354 315 l 428 315 z m 993 175 l 954 315 l 1026 315 z "},"¥":{"ha":882,"x_min":0,"x_max":0,"o":"m 882 972 l 715 972 l 443 499 l 165 972 l 0 972 l 297 436 l 103 436 l 103 332 l 356 332 l 363 318 l 363 247 l 103 247 l 103 142 l 363 142 l 363 0 l 526 0 l 526 142 l 797 142 l 797 247 l 526 247 l 526 325 l 531 332 l 797 332 l 797 436 l 588 436 z "},"∙":{"ha":390,"x_min":0,"x_max":0,"o":"m 194 508 b 64 372 119 508 64 451 b 194 233 64 293 119 233 b 326 372 271 233 326 293 b 194 508 326 451 271 508 z "},"∕":{"ha":460,"x_min":0,"x_max":0,"o":"m 411 1133 l -29 -162 l 107 -162 l 547 1133 z "},"+":{"ha":692,"x_min":0,"x_max":0,"o":"m 643 506 l 399 506 l 399 749 l 294 749 l 294 506 l 49 506 l 49 396 l 294 396 l 294 153 l 399 153 l 399 396 l 643 396 z "},"−":{"ha":692,"x_min":0,"x_max":0,"o":"m 49 506 l 49 396 l 643 396 l 643 506 z "},"×":{"ha":692,"x_min":0,"x_max":0,"o":"m 593 622 l 519 700 l 347 526 l 174 700 l 100 622 l 271 451 l 100 279 l 174 201 l 347 375 l 519 201 l 593 279 l 422 451 z "},"÷":{"ha":692,"x_min":0,"x_max":0,"o":"m 338 793 b 253 706 289 793 253 756 b 338 619 253 657 289 619 b 422 706 385 619 422 657 b 338 793 422 756 385 793 z m 49 506 l 49 396 l 643 396 l 643 506 z m 338 300 b 253 213 289 300 253 263 b 338 126 253 164 289 126 b 422 213 385 126 422 164 b 338 300 422 263 385 300 z "},"=":{"ha":692,"x_min":0,"x_max":0,"o":"m 49 651 l 49 542 l 643 542 l 643 651 z m 49 360 l 49 250 l 643 250 l 643 360 z "},"≠":{"ha":692,"x_min":0,"x_max":0,"o":"m 643 542 l 643 651 l 463 651 l 526 851 l 404 851 l 340 651 l 49 651 l 49 542 l 306 542 l 249 360 l 49 360 l 49 250 l 214 250 l 149 43 l 271 43 l 336 250 l 643 250 l 643 360 l 371 360 l 428 542 z "},">":{"ha":692,"x_min":0,"x_max":0,"o":"m 49 131 l 643 389 l 643 529 l 49 788 l 49 664 l 536 458 l 49 254 z "},"<":{"ha":692,"x_min":0,"x_max":0,"o":"m 643 781 l 49 522 l 49 382 l 643 124 l 643 247 l 156 453 l 643 657 z "},"≥":{"ha":692,"x_min":0,"x_max":0,"o":"m 49 231 l 643 483 l 643 619 l 49 872 l 49 751 l 536 550 l 49 351 z m 49 138 l 49 28 l 643 28 l 643 138 z "},"≤":{"ha":692,"x_min":0,"x_max":0,"o":"m 643 865 l 49 613 l 49 476 l 643 224 l 643 344 l 156 546 l 643 744 z m 49 138 l 49 28 l 643 28 l 643 138 z "},"±":{"ha":692,"x_min":0,"x_max":0,"o":"m 399 597 l 399 835 l 294 835 l 294 597 l 49 597 l 49 489 l 294 489 l 294 251 l 399 251 l 399 489 l 643 489 l 643 597 z m 49 28 l 643 28 l 643 138 l 49 138 z "},"≈":{"ha":692,"x_min":0,"x_max":0,"o":"m 601 701 l 492 701 b 438 631 492 656 472 631 b 226 710 381 631 315 710 b 92 515 138 710 92 644 l 203 515 b 257 586 203 561 221 586 b 467 507 314 586 372 507 b 601 701 556 507 601 572 z m 601 394 l 492 394 b 438 325 492 349 472 325 b 226 404 381 325 315 404 b 92 210 138 404 92 339 l 203 210 b 257 279 203 256 221 279 b 467 200 314 279 372 200 b 601 394 556 200 601 265 z "},"~":{"ha":692,"x_min":0,"x_max":0,"o":"m 601 539 l 492 539 b 438 469 492 493 472 469 b 226 549 381 469 315 549 b 92 354 138 549 92 483 l 203 354 b 257 424 203 400 221 424 b 467 344 314 424 372 344 b 601 539 556 344 601 410 z "},"¬":{"ha":779,"x_min":0,"x_max":0,"o":"m 675 561 l 49 561 l 49 451 l 558 451 l 558 201 l 675 201 z "}}}
